<?xml version="1.0" standalone="no"?>
<!DOCTYPE svg PUBLIC "-//W3C//DTD SVG 1.1//EN" "http://www.w3.org/Graphics/SVG/1.1/DTD/svg11.dtd" >
<svg xmlns="http://www.w3.org/2000/svg" xmlns:xlink="http://www.w3.org/1999/xlink" version="1.1">
<metadata>
Created by FontForge 20170731 at Tue Nov 10 15:30:49 1998
 By Aleksey,,,
Digitized data copyright Monotype Typography, Ltd 1991-1995. All rights reserved. Monotype Garamond is a trademark of Monotype Typography, Ltd which may be registered in certain jurisdictions.
</metadata>
<defs>
<font id="Garamond-Bold" horiz-adv-x="1451" >
  <font-face 
    font-family="Garamond"
    font-weight="700"
    font-stretch="normal"
    units-per-em="2048"
    panose-1="2 2 8 4 3 3 7 1 8 3"
    ascent="1638"
    descent="-410"
    x-height="820"
    cap-height="1311"
    bbox="-301 -762 2392 2040"
    underline-thickness="102"
    underline-position="-307"
    unicode-range="U+0020-FB02"
  />
<missing-glyph horiz-adv-x="1536" 
d="M0 0v1280h1024v-1280h-1024zM32 32h960v1216h-960v-1216z" />
    <glyph glyph-name=".notdef" horiz-adv-x="1536" 
d="M0 0v1280h1024v-1280h-1024zM32 32h960v1216h-960v-1216z" />
    <glyph glyph-name="glyph1" horiz-adv-x="0" 
 />
    <glyph glyph-name="glyph2" horiz-adv-x="512" 
 />
    <glyph glyph-name="space" unicode=" " horiz-adv-x="512" 
 />
    <glyph glyph-name="exclam" unicode="!" horiz-adv-x="533" 
d="M305 387q-21 -2 -76 -3l-57 372q-30 218 -40 317q-5 62 -5 92q0 7 4 36q4 60 30.5 89t74.5 34q27 6 35 6q55 0 92.5 -40.5t37.5 -114.5q0 -69 -16 -232l-43 -323q-16 -141 -37 -233zM126 126q0 56 39 93q53 50 107 50q59 0 101 -42t42 -102q0 -61 -39.5 -102t-100.5 -41
q-64 0 -106.5 43t-42.5 101z" />
    <glyph glyph-name="quotedbl" unicode="&#x22;" horiz-adv-x="1131" 
d="M832 721h-50l-101 384q-24 87 -24 138q0 57 44.5 100.5t106.5 43.5q71 0 108.5 -47t37.5 -95q0 -35 -26 -140zM349 721h-49l-104 385q-20 75 -20 134q0 60 43.5 103.5t104.5 43.5q62 0 105 -41.5t43 -102.5q0 -44 -24 -139z" />
    <glyph glyph-name="numbersign" unicode="#" horiz-adv-x="1365" 
d="M85 986h320l86 398h143l-86 -398h401l84 398h143l-85 -398h189v-143h-216l-73 -350h289v-143h-317l-84 -395h-144l85 395h-403l-82 -395h-144l83 395h-189v143h219l73 350h-292v143zM520 843l-73 -348h401l73 348h-401z" />
    <glyph glyph-name="dollar" unicode="$" horiz-adv-x="960" 
d="M428 94l2 456q-16 8 -38 17q-164 68 -230 146.5t-66 188.5q0 121 80 207.5t220 105.5q23 3 38 6l1 79l90 1q1 -27 1 -38v-24q0 -10 2 -20q15 -2 37 -5q137 -16 223 -94q64 -60 64 -136q0 -38 -24 -63.5t-58 -25.5q-32 0 -54 21t-33.5 80.5t-33.5 82.5q-47 46 -122 51
q-2 -31 -2 -180q0 -152 1 -178l151 -69q72 -38 120.5 -86t73 -106.5t24.5 -130.5q0 -140 -91.5 -244.5t-243.5 -130.5q-22 -3 -38 -8l-2 -189l-90 -1l-1 191q-163 14 -255.5 100t-92.5 175q0 40 23.5 65t60.5 25t63.5 -24.5t43.5 -94.5t55 -105.5t101 -44.5zM431 812
q3 82 3 282q0 5 -1 32q-72 -7 -114 -49.5t-42 -100.5q0 -61 47 -103.5t107 -60.5zM522 96q77 7 131 65t54 134q0 79 -55 135.5t-126 77.5q-3 -38 -3 -52l1 -84z" />
    <glyph glyph-name="percent" unicode="%" horiz-adv-x="1707" 
d="M349 -26q219 320 887 1362l13 3l91 -4l10 1l-888 -1362q-20 -1 -29 0l-61 3zM65 973q0 60 10 97q23 85 35 108q28 53 53 76q39 36 78.5 53t84.5 17q106 0 182.5 -91t76.5 -251q0 -90 -22 -159t-62 -116q-31 -37 -69 -57q-50 -27 -86 -27q-86 0 -130 23q-62 34 -106.5 117
t-44.5 210zM239 1001q3 -70 3 -96q1 -152 13 -174l32 -41q14 -10 33 -10q27 0 49.5 21.5t32.5 92.5t10 147l-2 67v72q0 111 -29 155q-20 30 -54 30q-28 0 -49.5 -21t-32.5 -86q-4 -25 -6 -157zM1119 339q0 60 10 96q23 86 35 109q28 53 53 76q39 36 78.5 52.5t84.5 16.5
q105 0 182 -90.5t77 -250.5q0 -90 -22 -159t-63 -116q-30 -37 -68 -57q-50 -27 -87 -27q-85 0 -129 23q-63 34 -107 117t-44 210zM1293 367q3 -70 3 -96q0 -152 13 -174l32 -41q14 -10 33 -10q27 0 49 21.5t32 92.5t10 147l-1 67v72q0 111 -29 155q-20 30 -54 30
q-28 0 -50 -21t-33 -86q-4 -25 -5 -157z" />
    <glyph glyph-name="ampersand" unicode="&#x26;" horiz-adv-x="1643" 
d="M451 704q-71 82 -92 111t-35.5 71.5t-14.5 85.5q0 91 61 165t176 104q17 4 27 8q23 7 102 7q142 0 225 -73.5t83 -166.5q0 -56 -24 -106q-19 -38 -81 -80t-101 -56q-13 -4 -19 -12q19 -26 87 -91q26 -25 66 -74l115 -140q17 -23 32 -39q59 58 96 125q28 51 28 76
q0 20 -17 40.5t-58 35.5l4 63q46 10 60 11q69 8 163 13l73 4h50q11 0 65 6q-2 -13 -2.5 -29t-3.5 -30l-3 -18q-72 -34 -104.5 -56.5t-114.5 -109.5q-50 -52 -174 -210q3 -13 24 -33l26 -29q53 -60 99.5 -90t85.5 -30q26 0 41 8q33 20 75 63q27 29 42 29q20 0 34 -13.5
t14 -32.5q0 -39 -38.5 -100.5t-114.5 -103.5q-51 -28 -138 -28q-78 0 -144 30q-86 39 -189 132q-200 -163 -438 -163q-206 0 -306 91t-100 232q0 86 41 163t119.5 132.5t145.5 83.5q37 15 52 24zM685 834q61 27 91 74q20 33 20 98q0 32 -19 96q-7 22 -41.5 42.5t-82.5 20.5
q-50 0 -88 -31t-38 -85q0 -39 27 -81q35 -55 131 -134zM863 223q-8 15 -20.5 28.5t-22.5 27.5l-118 142q-91 110 -185 211q-73 -30 -116 -82.5t-43 -121.5q0 -44 17 -83q32 -71 68.5 -110.5t92.5 -70t118 -30.5q115 0 209 89z" />
    <glyph glyph-name="quotesingle" unicode="'" horiz-adv-x="576" 
d="M313 722h-48l-105 382q-20 71 -20 133q0 63 43 106.5t104 43.5q62 0 105.5 -42t43.5 -104q0 -44 -24 -136z" />
    <glyph glyph-name="parenleft" unicode="(" horiz-adv-x="725" 
d="M661 1326q31 -27 57 -54q-90 -93 -131 -154q-74 -112 -108.5 -197.5t-58.5 -215t-24 -316.5q0 -145 24.5 -281.5t43.5 -179.5q50 -115 99.5 -186t153.5 -175q-21 -26 -47 -52q-101 48 -238 195t-214.5 326t-77.5 382q0 225 77 396t217 315.5t227 196.5z" />
    <glyph glyph-name="parenright" unicode=")" horiz-adv-x="725" 
d="M24 1275q8 14 21 24.5t26 26.5q106 -63 179 -137q135 -134 206.5 -257t100.5 -215q47 -151 47 -299q0 -138 -32.5 -262.5t-101 -240.5t-184 -230.5t-200.5 -169.5l-58 54q82 81 141 167.5t95.5 176.5t60 220t23.5 297q0 117 -15.5 227t-50.5 239q-6 22 -24 55
q-54 137 -186 273q-33 34 -48 51z" />
    <glyph glyph-name="asterisk" unicode="*" horiz-adv-x="1003" 
d="M66 746q6 4 265 108l62 26q-37 20 -71 32l-255 113q32 59 98 164q15 -10 82.5 -62.5t82.5 -65.5q27 -24 52 -40q39 -25 65 -47q-2 28 -6 49q-9 45 -13 111q-2 28 -20 196q50 1 80 1l119 -1l-54 -351q92 69 139 101q31 21 117 82q18 17 31 26q37 -62 95 -168
q-27 -13 -96.5 -41t-217.5 -96q20 -9 35 -18q24 -13 73 -30l102 -43q72 -30 106 -52q-10 -18 -31 -60q-38 -75 -60 -106q-25 16 -91 67t-203 142l38 -274q6 -43 9 -72h-39q-115 0 -157 1l44 347q-39 -26 -59.5 -43.5t-72.5 -53.5q-30 -20 -152 -112q-56 111 -97 170z" />
    <glyph glyph-name="plus" unicode="+" horiz-adv-x="1365" 
d="M134 728h468v470h158v-470h471v-158h-471v-466h-158v466h-468v158z" />
    <glyph glyph-name="comma" unicode="," horiz-adv-x="533" 
d="M96 -295q2 8 7 12t34 19q57 28 96 80t39 101q0 28 -12 44q-13 16 -71 48t-77 58.5t-19 71.5q0 57 41.5 96.5t110.5 39.5q80 0 144.5 -71.5t64.5 -178.5q0 -61 -20.5 -126t-51 -106t-96.5 -94q-13 -10 -107 -60q-13 -6 -26 -6q-15 0 -26.5 11t-30.5 61z" />
    <glyph glyph-name="hyphen" unicode="-" horiz-adv-x="683" 
d="M76 514h315l160 2q33 0 61 -4q3 -47 6 -70l1 -17l-4 -52q-1 -12 -1 -30v-18l-542 -1q-1 29 -1 44q0 25 2 56q1 16 1 23l-1 50z" />
    <glyph glyph-name="period" unicode="." horiz-adv-x="533" 
d="M265 271q63 0 106.5 -40t43.5 -91q0 -67 -27 -100q-48 -57 -116 -57q-64 0 -105 41t-41 104q0 41 20 74q15 26 60 56q18 13 59 13z" />
    <glyph glyph-name="slash" unicode="/" horiz-adv-x="1131" 
d="M848 1426h166l-731 -1703h-166z" />
    <glyph glyph-name="zero" unicode="0" horiz-adv-x="960" 
d="M57 649q0 110 13 172q30 149 58 216q44 104 103.5 168.5t137.5 97.5q46 20 122 20q93 0 181 -65t157 -214.5t69 -375.5q0 -167 -38 -314q-24 -89 -68.5 -164.5t-73.5 -104.5q-50 -49 -110 -78t-97 -29q-109 0 -166 21.5t-109.5 77.5t-94 143t-59.5 168q-25 113 -25 261z
M316 517q0 -220 14 -297.5t53.5 -116t83.5 -38.5q45 0 77 24t54.5 75.5t31.5 162.5q15 181 15 259l-3 132v141q0 100 -14 186t-37.5 123.5t-56 52t-62.5 14.5q-37 0 -80 -36.5t-62 -133.5t-19 -331l2 -71q3 -103 3 -146z" />
    <glyph glyph-name="one" unicode="1" horiz-adv-x="811" 
d="M411 1318q5 0 68 2l32 -1l63 -1q4 -32 4 -47q0 -5 -1 -31q-1 -14 -2 -107l-2 -151l1 -95l-7 -675v-57q0 -30 14 -43t75 -22q24 -3 96 -16q2 -10 2 -19q0 -11 -2 -48h-43q-44 0 -128 4q-51 3 -70 3q-24 0 -177 -5q-17 -1 -28 -1h-18l-29 2l-27 -2l-50 2q-10 0 -41 -3
q-2 22 -2 34q0 11 2 33q40 11 93 22q73 15 89.5 29.5t16.5 38.5l-1 68l4 74l-1 152l-1 39q0 8 2 60q2 27 2 48q0 13 -3 81l4 57q-4 65 -4 77q0 15 1 30l2 25l-3 68l3 31q1 21 1 56q0 34 -1 83q-71 -53 -162 -106q-10 -6 -90 -41q-32 48 -41 72q106 55 144 81q63 44 136 110
q31 29 79 89z" />
    <glyph glyph-name="two" unicode="2" horiz-adv-x="960" 
d="M872 4h-104q-37 0 -58 1q-33 1 -40 1l-68 -3l-18 2q-24 3 -59 3q-33 0 -113 -3q-38 -1 -46 -1l-101 2l-162 -2h-64v68q142 180 213.5 251.5t203.5 237.5q92 114 126.5 204t34.5 156q0 74 -21.5 133t-76 93t-118.5 34q-65 0 -117 -32t-76 -81q-37 -71 -45 -148h-73
q-3 43 -3 72q0 97 75 186q116 138 327 138q176 0 277 -99.5t101 -250.5q0 -60 -19 -113q-27 -72 -65.5 -125t-211.5 -226q-125 -125 -313 -296l111 -2l182 4l106 -2q84 0 111.5 18t50.5 85q5 16 18 48l66 4l13 -4q5 -8 5 -15q0 -16 -5 -40t-11.5 -79t-32.5 -219z" />
    <glyph glyph-name="three" unicode="3" horiz-adv-x="960" 
d="M335 608q-30 38 -49 60q182 132 243 215q40 53 40 115q0 64 -46 111t-105 47q-122 0 -222 -149l-63 34q48 105 94.5 157.5t132.5 89.5q65 28 162 28q131 0 202 -65.5t71 -164.5q0 -78 -49 -149.5t-174 -156.5h21q134 0 218.5 -103t84.5 -225q0 -103 -47.5 -215
t-174.5 -188.5t-312 -76.5q-179 0 -273 63q-60 40 -60 94q0 38 29 66t74 28q38 0 70 -20t87 -90q28 -36 54 -46q46 -19 67 -19q53 0 110.5 36t91.5 119.5t34 194.5q0 119 -59.5 187.5t-130.5 68.5q-52 0 -121 -46z" />
    <glyph glyph-name="four" unicode="4" horiz-adv-x="960" 
d="M913 484v-168q-54 -3 -85 -3q-29 0 -74 3q-3 -24 -3 -29l2 -60l-1 -64l2 -44q0 -12 -3 -60q-2 -27 -3 -81l-86 1h-53q-21 0 -32 1l-17 2q-7 0 -22 -4l2 194l-4 125q0 5 2 19q-48 -1 -143 -2h-66q-85 0 -189 3q-33 1 -43 1q-15 0 -46 -2l-2 13l3 69l-2 22l3 41l-2 8
q47 89 60 108l229 352q77 114 122.5 173.5t63.5 88.5q28 45 49 71q31 39 40 55q59 3 74 3q19 0 71 -3l2 -12l-4 -74l2 -26l-3 -41l2 -41l-2 -99l-1 -43l1 -56l-1 -52l1 -71l-1 -68l1 -79l-3 -171q35 0 87 -2h24q16 0 48 2zM538 486q6 50 6 75q0 10 -1.5 37.5t-1.5 35.5l3 78
l-2 67l3 173l-1 79q0 10 2 47q-8 -12 -28 -36q-14 -23 -23 -34q-39 -48 -87 -119l-90 -144q-13 -20 -29 -47q-27 -44 -64.5 -101t-62.5 -111q30 3 41 3l48 -1h96l134 -2h57z" />
    <glyph glyph-name="five" unicode="5" horiz-adv-x="960" 
d="M742 1313l37 1q7 0 36 -1q-42 -201 -61 -233q-12 -20 -24 -22q-120 -5 -127 -5h-27l-64 -1q-16 0 -48 2q-84 3 -122 3q-11 0 -33 -1q-4 -28 -4 -40l-5 -130l-4 -94q43 21 90.5 31.5t98.5 10.5q75 0 146.5 -29t125.5 -82q40 -40 78 -107q27 -48 30 -72q12 -88 12 -93
q0 -77 -16.5 -140.5t-72.5 -141.5t-101 -108q-68 -46 -147.5 -64.5t-194.5 -18.5q-135 0 -226 65q-54 39 -54 98q0 43 31.5 74t77.5 31q71 0 144 -91q43 -55 65 -67q34 -19 77 -19q57 0 111.5 34.5t89 105t34.5 131.5q0 105 -71.5 180.5t-170.5 75.5q-51 0 -89 -12
q-19 -6 -71 -41l-43 -28q-12 -5 -23 -5q-15 0 -25 8q-7 7 -7 19l12 317q0 21 2 37t3.5 83.5t3.5 96.5q3 43 4 71q0 20 2 39q1 13 1 19l-1 37q0 23 32 33q17 5 160 5l230 -3q55 0 70.5 7.5t27.5 33.5z" />
    <glyph glyph-name="six" unicode="6" horiz-adv-x="960" 
d="M402 662q-1 22 -1 33t1 34q8 2 37 15q69 31 138 31q137 0 230.5 -102t93.5 -278q0 -191 -113.5 -304t-313.5 -113q-90 0 -160 37t-124 104.5t-83 140.5q-46 120 -46 259q0 119 41 253t124.5 235.5t189.5 168t187 96.5q156 57 236 57q15 0 23.5 -10t8.5 -31q0 -22 -5 -35
q-21 -9 -77 -22q-127 -32 -222 -106t-141 -153q-63 -109 -87 -244.5t-24 -268.5q0 -150 19.5 -245.5t66.5 -136.5q32 -26 91 -26q34 0 53 10q43 22 62 48q35 49 46.5 115t11.5 138q0 181 -50.5 249t-125.5 68q-33 0 -87 -17z" />
    <glyph glyph-name="seven" unicode="7" horiz-adv-x="960" 
d="M104 1284q40 0 125 3l245 -5l207 3l119 -1l41 2q13 0 38 -2q3 -37 3 -61q0 -29 -41 -140q-29 -78 -52.5 -151t-35.5 -105q-28 -72 -44 -125q-17 -41 -38 -100l-49 -137q-12 -36 -47 -128l-80 -222q-10 -22 -10 -34q0 -16 21.5 -31.5t21.5 -30.5q0 -19 -17 -40h-26l-75 1
q-6 1 -35 -0.5t-46 -1.5q-13 0 -40 1q3 30 41 109q22 47 97 245l179 466l45 119q13 27 29 75q5 15 19 52q-98 5 -159 5l-149 -2l-119 2q-56 0 -76 -15.5t-28 -55.5t-20.5 -50.5t-42.5 -10.5q-17 0 -26 10t-9 29q0 48 12 147q7 50 11.5 97.5t10.5 82.5z" />
    <glyph glyph-name="eight" unicode="8" horiz-adv-x="960" 
d="M339 624q-117 61 -171.5 150.5t-54.5 159.5q0 59 19.5 130.5t67 125t123.5 89t160 35.5q158 0 257.5 -90t99.5 -223q0 -65 -42.5 -134.5t-87.5 -93.5l-73 -44q0 -5 54.5 -34.5t121.5 -112.5q47 -60 61.5 -101t14.5 -105q0 -96 -18 -143q-11 -28 -45.5 -81.5t-59.5 -74.5
q-51 -42 -143 -76q-60 -23 -133 -23q-86 0 -161 18q-54 13 -92 41q-58 43 -83 76t-43 81q-24 66 -24 131q0 108 85 196q53 56 167 103zM567 772l20 20q40 40 55 78q22 56 22 134q0 105 -52 161t-131 56t-133 -52.5t-54 -127.5q0 -53 27 -96t88 -85q30 -21 158 -88zM409 577
q-16 0 -65 -56q-66 -77 -66 -190q0 -122 62.5 -190.5t151.5 -68.5q94 0 147.5 53t53.5 145q0 74 -35.5 127t-137 116.5t-111.5 63.5z" />
    <glyph glyph-name="nine" unicode="9" horiz-adv-x="960" 
d="M181 -28q-16 19 -16 37q0 17 10 27q5 7 58 27q104 40 179 96.5t126 137t72.5 174t23.5 147.5q1 18 9 87q6 51 6 123q0 255 -62 350q-47 71 -116 71q-64 0 -109 -61q-61 -83 -61 -237q0 -95 12 -178q8 -55 36 -101q18 -30 34 -39q39 -19 78 -19q25 0 52 8l15 3
q12 0 22 -11.5t10 -33.5q0 -38 -30 -49q-64 -24 -139 -24q-47 0 -59 4q-94 34 -117 51q-58 42 -88.5 85.5t-45.5 99.5q-19 74 -19 149q0 119 53.5 220.5t147 152.5t200.5 51q190 0 316.5 -145t126.5 -419q0 -135 -52 -288q-13 -38 -73 -142.5t-162 -190t-215 -125.5
t-185 -40q-13 0 -38 2z" />
    <glyph glyph-name="colon" unicode=":" horiz-adv-x="533" 
d="M117 722q0 28 17 64.5t53.5 58.5t79.5 22q55 0 96.5 -43t41.5 -104q0 -67 -41 -105.5t-112 -38.5q-8 0 -12 2q-60 28 -70 37q-25 20 -39 50.5t-14 56.5zM260 270q73 0 121 -57q27 -30 27 -81q0 -52 -13 -72q-25 -40 -63 -62q-27 -15 -79 -15q-54 0 -94.5 41.5
t-40.5 101.5q0 45 19.5 76t61.5 57q19 11 61 11z" />
    <glyph glyph-name="semicolon" unicode=";" horiz-adv-x="533" 
d="M135 731q0 53 40 96t111 43q48 0 90.5 -42.5t42.5 -90.5q0 -31 -18 -76q-13 -33 -46 -55.5t-77 -22.5q-7 0 -15 4t-25 5q-31 2 -67 44.5t-36 94.5zM103 -293q4 13 26 23q69 33 110 85q40 52 40 106q0 27 -15 44t-90 57.5t-75 116.5q0 60 41 98.5t114 38.5q78 0 142 -72.5
t64 -185.5q0 -57 -23.5 -123.5t-46.5 -97.5q-40 -51 -101 -100q-5 -3 -103 -56q-13 -6 -26 -6q-16 0 -27 10.5t-30 61.5z" />
    <glyph glyph-name="semicolon" unicode="&#x37e;" horiz-adv-x="533" 
d="M135 731q0 53 40 96t111 43q48 0 90.5 -42.5t42.5 -90.5q0 -31 -18 -76q-13 -33 -46 -55.5t-77 -22.5q-7 0 -15 4t-25 5q-31 2 -67 44.5t-36 94.5zM103 -293q4 13 26 23q69 33 110 85q40 52 40 106q0 27 -15 44t-90 57.5t-75 116.5q0 60 41 98.5t114 38.5q78 0 142 -72.5
t64 -185.5q0 -57 -23.5 -123.5t-46.5 -97.5q-40 -51 -101 -100q-5 -3 -103 -56q-13 -6 -26 -6q-16 0 -27 10.5t-30 61.5z" />
    <glyph glyph-name="less" unicode="&#x3c;" horiz-adv-x="1365" 
d="M1230 121l-1094 459v142l1094 459v-170l-881 -359l881 -361v-170z" />
    <glyph glyph-name="equal" unicode="=" horiz-adv-x="1365" 
d="M136 965h1094v-157h-1094v157zM136 494h1094v-158h-1094v158z" />
    <glyph glyph-name="greater" unicode="&#x3e;" horiz-adv-x="1365" 
d="M136 1181l1094 -459v-142l-1094 -459v170l881 359l-881 360v171z" />
    <glyph glyph-name="question" unicode="?" horiz-adv-x="853" 
d="M329 391h-26l-48 -1q-6 0 -25 1q-1 6 -24 210q-11 98 -14 114l-1 10q0 17 19 30t75 13h109q150 0 207 45q56 45 56 126q0 83 -60.5 143t-135.5 60q-38 0 -116 -28.5t-127 -28.5q-57 0 -88 28.5t-31 81.5q0 62 41 99.5t133 37.5q217 0 356.5 -135.5t139.5 -336.5
q0 -103 -39 -180.5t-106 -116t-184 -60.5q-55 -11 -67 -17q-19 -10 -26.5 -25t-17.5 -70zM289 266q64 0 104.5 -41t40.5 -103q0 -59 -42 -100t-103 -41q-60 0 -102 41.5t-42 101.5q0 59 43 100.5t101 41.5z" />
    <glyph glyph-name="at" unicode="@" horiz-adv-x="1899" 
d="M1179 925l244 10l-183 -628q-31 -104 -31 -158q0 -30 24 -53.5t56 -23.5q70 0 179.5 79.5t181 227t71.5 314.5q0 276 -177.5 453.5t-462.5 177.5q-246 0 -447 -115.5t-319 -335.5t-118 -472q0 -346 220.5 -566.5t561.5 -220.5q281 0 504 151t316 400h61
q-120 -294 -349.5 -450.5t-533.5 -156.5q-385 0 -635 248.5t-250 629.5q0 262 124.5 485.5t348 344.5t495.5 121q221 0 386.5 -88.5t248.5 -248.5t83 -338q0 -207 -89.5 -378t-223 -252.5t-287.5 -81.5q-99 0 -151 49t-52 124q0 57 24 143q-83 -138 -128 -190
q-63 -71 -125 -104q-41 -22 -93 -22q-70 0 -118.5 56.5t-48.5 164.5q0 162 64 310t153 246.5t194 157.5q50 28 106 28t92.5 -35t49.5 -122zM1027 891q-21 0 -51 -21.5t-82.5 -113.5t-101 -240t-48.5 -242q0 -43 19 -67t40 -24q28 0 77 47q86 81 152.5 239.5t66.5 291.5
q0 67 -26 103q-19 27 -46 27z" />
    <glyph glyph-name="A" unicode="A" horiz-adv-x="1344" 
d="M-26 7l2 68q19 6 67 15q77 15 93.5 27t40.5 58l202 529l237 622q33 -1 63 -1h45l9 -18l174 -412q59 -131 106 -254.5t81 -201.5q20 -47 55 -141q18 -51 55 -128q20 -42 30 -49q18 -15 58.5 -20t87.5 -23q5 -33 5 -49q0 -7 -1 -22q-74 0 -163 7t-160 7q-79 0 -114 -2
l-170 -9l-49 -2q0 35 3 67l111 24q50 13 58 20q10 10 10 23t-5 27l-40 98l-79 196l-382 1q-21 -48 -87 -235q-19 -53 -19 -72q0 -26 14 -37q23 -19 88 -27q9 -2 71 -11q1 -36 1 -50q0 -11 -2 -23q-62 0 -296 17l-41 -7q-74 -12 -141 -12h-18zM444 569q234 -3 276 -3l25 1
q-30 89 -78 207.5t-78 180.5z" />
    <glyph glyph-name="B" unicode="B" horiz-adv-x="1387" 
d="M73 -2l2 80q24 6 58 11q65 9 106 26q14 23 18 44q8 56 8 165l-2 425q0 66 -7 345q-2 75 -10 93q-3 6 -10 10q-16 11 -60 13q-19 1 -98 11l-3 71l224 5l327 11l39 1q12 1 24 1q10 0 53 -1h64q76 1 165 -23q31 -8 82 -33.5t88.5 -65t55.5 -88.5t18 -104q0 -61 -27 -109.5
t-82 -89.5q-28 -20 -129 -66q151 -34 230 -124.5t79 -201.5q0 -66 -25 -138q-18 -54 -61 -100q-57 -61 -120.5 -92t-175.5 -51q-56 -10 -170 -10l-170 4q-108 0 -257 -10q-42 -2 -234 -9zM539 757q40 -6 94 -6q150 0 227 55.5t77 191.5q0 96 -73 160t-220 64q-42 0 -112 -11
q0 -23 2 -66q5 -85 5 -238l-1 -84q0 -22 1 -66zM551 120q65 -27 121 -27q114 0 186 34.5t105 96.5t33 155q0 96 -36 154q-50 80 -121 107.5t-213 27.5q-63 0 -87 -9v-123l-1 -148l3 -230q1 -16 10 -38z" />
    <glyph glyph-name="C" unicode="C" horiz-adv-x="1387" 
d="M1229 1280q13 -30 53 -171q18 -64 19 -136h-91q-96 136 -198 195.5t-228 59.5q-155 0 -250 -121q-129 -164 -129 -457q0 -170 22 -242q36 -117 91 -191q42 -56 110 -89q88 -45 188 -45q110 0 212.5 68.5t196.5 204.5q37 7 97 8q-4 -38 -13 -79q-3 -16 -23 -127l-9 -30
l-14 -47q-61 -47 -171.5 -70.5t-271.5 -23.5q-123 0 -232.5 23t-187.5 73q-114 72 -179 156t-96.5 183t-31.5 222q0 298 196.5 492t501.5 194q124 0 233.5 -12.5t204.5 -37.5z" />
    <glyph glyph-name="D" unicode="D" horiz-adv-x="1600" 
d="M51 88q15 4 62 12q93 16 122 43q18 17 23 65q1 12 7 305l-1 110l1 133l-4 341l1 40q0 26 -14 40q-7 7 -39 7q-26 0 -60 -6q-44 -2 -79 -8q-6 -1 -19 -3l-1 88q59 19 169 37q182 30 448 30q222 0 325 -25q156 -39 254 -116q131 -103 196.5 -238.5t65.5 -295.5
q0 -202 -88 -346.5t-253 -231.5q-116 -62 -315 -62l-205 9l-60 3l-81 -2l-24 2l-84 -2l-111 1q-6 0 -102 -7q-32 -2 -84 -3q-32 0 -48 -1q-2 22 -2 81zM536 1202q-3 -31 -3 -44l3 -170l-2 -148q3 -72 3 -126l-1 -95l2 -159l-2 -98q0 -137 51 -186q74 -70 204 -70
q99 0 146 19q98 38 155.5 101t87.5 178.5t30 238.5q0 202 -64.5 330t-176.5 192.5t-257 64.5q-102 0 -176 -28z" />
    <glyph glyph-name="E" unicode="E" 
d="M41 1301q57 -3 99 -9q79 -11 183 -11q36 0 185 6q223 9 403 9l181 2q61 0 180 -15q18 -20 18 -54v-206l2 -41q0 -6 -1 -18l-41 -2q-8 0 -34 2q-9 20 -24 59l-40 71q-23 45 -64 92q-25 7 -64 8q-10 1 -61 5q-93 8 -200 8q-122 0 -218 -4q-3 -25 -3 -197l2 -168v-126
q25 -3 43 -3q179 0 255 7t94 19.5t32 43.5q9 22 35 147l13 1l58 -1q4 -89 4 -135q0 -105 -1.5 -135t-1.5 -47q0 -27 3 -86.5t3 -88.5v-22h-71q-4 16 -15 66q-20 93 -36 116q-12 18 -40 27q-20 7 -148 7q-151 0 -227 -8q-1 -26 -1 -34q0 -119 4 -198l-2 -216q0 -38 27 -52
q41 -21 251 -21q139 0 236 21q67 15 118 67q68 67 113 188q31 3 51 3q11 0 33 -1q-3 -25 -5 -42l-6 -30l-37 -189l-18 -114q-65 -3 -103 -3q-56 0 -299 10q-171 7 -412 7q-120 0 -295 -10h-42l-121 -4v69q19 5 76 11q104 12 144 32q11 29 11 73q0 17 -1 58l1 31l-3 377
l1 113l-5 160l1 113l-9 124q0 5 -2 20q-10 11 -30 14q-11 2 -30 6q-57 12 -110 14q-19 1 -44 4z" />
    <glyph glyph-name="F" unicode="F" horiz-adv-x="1259" 
d="M60 0l2 72q22 5 73 15t102 23l19 12q10 40 10 82v6l-4 231l1 97l-4 143l2 170l-12 335q-15 14 -97 28q-20 4 -58 16l-24 6v70l132 -5q120 -12 353 -12q117 0 244 6l19 1l49 -1l20 1h42l179 6q12 0 31.5 2t36.5 3q6 -30 8 -60l15 -188q0 -30 -6 -46q-36 -5 -53 -5
q-20 0 -32 9q-6 6 -23 45q-42 101 -71.5 119.5t-164.5 18.5l-138 -4q-88 -1 -139 -10q-11 -2 -32 -10q-13 -23 -13 -59l3 -119l-3 -136q0 -104 7 -128q9 -6 15 -7l71 -1h120q40 -1 123 9q57 7 70 16q24 16 34.5 40.5t15.5 119.5q5 0 27 1q14 1 19 1q11 0 44 -3l-6 -160
q-1 -51 -4 -88l2 -22q1 -10 1 -148q0 -9 -1 -30q-19 -4 -30 -4q-8 0 -39 6q-9 19 -20 55q-23 79 -50 92q-48 24 -302 24q-37 0 -86 -7q-7 -42 -7 -97l5 -300q1 -83 18 -102q11 -12 75 -24l20 -2q45 -3 79 -13l27 -6q4 -26 4 -40q0 -15 -3 -38l-19 1l-31 -1l-142 7
q-24 1 -224 1q-55 0 -105 -6q-79 -9 -86 -9q-65 0 -89 1z" />
    <glyph glyph-name="G" unicode="G" horiz-adv-x="1493" 
d="M1294 1217q7 -29 16 -114.5t9 -124.5q0 -15 -7 -37q-43 1 -73 8q-76 117 -107 147q-58 56 -149 95q-67 29 -154 29q-167 0 -294 -150t-127 -446q0 -139 49.5 -270t148.5 -205.5t233 -74.5q65 0 138 17q37 8 60 32q16 16 21 48q8 58 8 165q0 104 -3 143q-7 15 -13.5 19.5
t-40.5 14.5l-89 24q-29 7 -36 17q-2 13 -2 19q0 14 7 39q18 6 25 6q109 0 189 -8q28 -2 61 -2l158 2l67 2q12 1 67 -2q1 -26 1 -44q0 -11 -7 -25q-17 -10 -58 -25t-46 -20q-8 -8 -11 -25t-3 -119q0 -118 -1 -141q-4 -74 -4 -84q0 -37 -10 -46q-28 -28 -173.5 -63.5
t-338.5 -35.5q-135 0 -234.5 21.5t-169.5 63.5q-94 56 -161 136t-100 173q-46 132 -46 263q0 147 68 298q50 109 140.5 196.5t226.5 139.5t296 52q20 0 65 -5q122 0 228 -30.5t176 -72.5z" />
    <glyph glyph-name="H" unicode="H" horiz-adv-x="1771" 
d="M64 10q0 30 6 71l125 22q23 5 55 16l13 250q-4 135 -4 202l1 24q3 41 3 206l-2 29l2 84l-1 87v43q0 58 -9 136q-1 7 -8 24q-8 3 -17.5 4t-19.5 3q-39 7 -83 10l-15 4q-27 3 -41 8q-3 29 -3 37q0 12 6 33q20 4 56 4t50 1q122 -13 181 -14q27 0 54.5 -1.5t48.5 -1.5
q33 0 161 10q21 5 46 5q37 0 62 -4q1 -21 1 -30q0 -16 -4 -39l-176 -28q-22 -10 -22 -29l3 -37l1 -16l-1 -44l-2 -34v-8q1 -11 1 -19l-1 -127q1 -18 1 -27q0 -5 -2 -32q-1 -16 -1 -33q0 -15 3 -71q28 -5 47 -6l148 -3h72l180 -1l175 5q34 0 72 7q2 34 3 167l2 45l-6 170
l-7 70q-3 7 -14 13q-35 20 -140 45q-19 4 -36 10q2 35 8 57q22 1 27 1l97 -1q93 -12 189 -12q22 0 35 1l130 4q18 1 35 2q36 8 74 8q29 0 70 -3q-1 -39 -5 -71q-92 -19 -120.5 -27.5t-57.5 -23.5l-6 -20v-17l1 -26l-1 -13q-2 -21 -2 -32v-25q1 -45 1 -50v-127l1 -96l-2 -127
q-1 -44 3 -180v-142l2 -118q0 -33 -2 -80q21 -6 39 -10q94 -20 142 -41l3 -70q-40 -1 -47 -1q-48 0 -110 6q-82 9 -264 9q-82 0 -212 -13q-14 0 -34 6q1 46 5 65l77 18l81 13q12 3 31 9q11 81 12 269l1 85q-6 53 -6 127q-37 3 -80 4l-464 5l-9 1l-7 1q-7 0 -16 -1
q-26 -1 -44 -1h-28q-19 0 -43 -7l-4 -75v-13q2 -27 2 -35v-310q0 -26 3 -53l10 -6l147 -23q11 -4 17 -5q13 -3 22 -9q3 -23 3 -31q0 -13 -4 -36q-36 -1 -61 -1q-22 0 -41 1q-9 0 -17 1l-141 6q-50 5 -140 5l-21 -1q-42 -2 -49 -3q-62 -8 -194 -8z" />
    <glyph glyph-name="I" unicode="I" horiz-adv-x="811" 
d="M82 6v72q20 6 66 17q65 16 97 33q18 31 18 86l-1 118l2 228l-1 54q7 198 7 204l-2 133l3 54l-5 114l-1 43q-1 10 -7 32q-41 19 -133 24q-22 1 -35 3l-3 88l286 -12q53 -2 66 -2q59 0 189 8q73 5 92 6q1 -19 1 -32q0 -17 -2 -44q-40 -14 -91.5 -26.5t-84.5 -25.5
q-6 -26 -6 -75q0 -43 3 -70q-3 -169 -3 -260l1 -264l-3 -134l2 -200l-1 -38q0 -8 4 -23q61 -13 111 -18q9 -1 61 -8q4 -30 4 -50q0 -11 -1 -34q-13 0 -20 -1q-32 -2 -37 -2q-7 0 -26 3q-14 2 -133 14l-177 2q-53 0 -154 -10q-66 -6 -86 -7z" />
    <glyph glyph-name="J" unicode="J" horiz-adv-x="768" 
d="M102 -255q40 -70 71 -89q17 -7 27 -7q23 0 39 24q23 34 23 112v59q0 54 4 103q2 28 2 47q0 9 -2 68l1 75l-3 375q0 30 -1 48q-3 40 -3 77l1 217l-5 184l-5 66q0 74 -1 93q-22 5 -135 16h-24l-26 3q-6 1 -19 3l-5 86q98 0 168 -6.5t187 -6.5q101 0 221 12q25 3 39 3
q17 0 50 -4q2 -23 2 -35q0 -13 -3 -40q-74 -10 -97 -10q-53 -1 -78 -9q-1 -24 -1 -29q0 -97 2.5 -118t2.5 -116v-83l4 -129l-2 -101l3 -102l-1 -105l2 -77q0 -222 -19 -344.5t-60 -200.5q-58 -111 -105 -156q-78 -73 -153 -101.5t-149 -28.5q-70 0 -121.5 49t-51.5 114
q0 53 36.5 88t86.5 35q48 0 98 -59z" />
    <glyph glyph-name="K" unicode="K" horiz-adv-x="1387" 
d="M54 68q102 52 179 74q20 12 26 32.5t6 156.5q0 19 -3 72v24l1 212l-1 150l2 44v40q0 15 3 45l-5 44l1 11q2 17 2 40q0 106 -15 157q-37 27 -120 48q-47 12 -72 27l7 62q17 2 35 2q81 0 151 -9t194 -9l102 5q75 1 116 6q30 3 42 3q13 0 29 -1q3 -10 3 -22q0 -30 -3 -44
q-63 -23 -121 -33t-66 -18q-13 -12 -13 -36v-78q0 -16 2 -54q2 -59 2 -82q0 -15 -2 -67v-76l-2 -72q0 -5 1 -14q72 62 192 187q56 59 89 90q13 13 141 148q41 56 44 65l-8 7q-62 11 -93 13q-21 1 -68 14q-2 16 -2 59l1 13h44q32 0 84.5 -4.5t80.5 -4.5l241 4q57 6 126 11
l-1 -79q-17 -4 -66 -14q-120 -38 -162 -59t-84 -54.5t-155 -138.5q-153 -142 -183 -175q19 -22 46 -51l33 -34q9 -10 22 -25l212 -245l176 -219q30 -38 41 -51l16 -18q17 -22 24 -26q9 -6 41 -15q17 -4 85 -35q2 -18 2 -28q0 -12 -4 -37l-110 2q-19 3 -61 5l-98 5l-21 -1
l-138 1q-20 0 -111 -7q-48 -4 -64 -4q-8 0 -24 1q-5 16 -5 26q0 12 4 36q44 15 89 25q34 6 45 17t11 24q0 9 -3 15q-9 23 -31 51q-8 9 -142 162l-254 285q-4 -36 -4 -81q0 -63 4 -107q1 -9 3 -131l-2 -91l4 -99q28 -25 100 -44q42 -11 76 -32q3 -20 3 -30q0 -8 -2 -25
q-47 -2 -73 -2q-28 0 -47 1l-142 7q-29 2 -57 2q-29 0 -73 -3l-177 1q-11 0 -95 -3z" />
    <glyph glyph-name="L" unicode="L" horiz-adv-x="1301" 
d="M46 89q31 9 87.5 17.5t66.5 8.5q39 1 52 13q6 24 6 40l-2 128l6 130v83l1 98l-2 104l4 223l1 101v14q-7 105 -13.5 115.5t-57.5 26.5q-5 2 -38 15q-25 10 -45 14q-35 9 -49 21q-2 26 -2 40q0 8 1 24q9 5 19 5q24 0 174 -8l143 1l106 -2q69 0 177 9q32 3 37 3q15 0 21 -8
q8 -11 8 -40q0 -23 -11 -35q-6 -7 -44 -12l-124 -29q-5 -2 -17 -8q-4 -7 -6 -12l-1 -28l-3 -63v-18l1 -11q0 -5 -3 -55q-1 -13 -1 -26q0 -16 2 -54q3 -60 3 -105q0 -52 -3 -119q-1 -25 -1 -65l-4 -474q0 -30 10 -39l95 -4l59 1l63 -2q161 0 253 37q69 28 90 56
q34 30 55.5 65t48.5 116h32q24 0 54 -4v-28q0 -72 -18 -252q-7 -72 -14 -88q-23 -4 -29 -4h-37l-52 -1q-9 0 -119 8q-20 1 -191 7t-335 6l-204 -6q-118 -3 -221 -11h-15q-6 0 -19 1q-2 11 -2 19q0 42 7 61z" />
    <glyph glyph-name="M" unicode="M" horiz-adv-x="1877" 
d="M41 7l3 68q125 16 159 51q22 24 34 125l13 356l15 362q2 33 2 40q0 141 -16.5 163t-128.5 43q-28 6 -44 10q-2 25 -2 42v31q37 3 87 3l293 -10q10 -1 28 -2l46 -2q17 -20 34 -53q37 -73 98 -214l11 -27l156 -339q5 -12 16 -35q15 -36 31 -68.5t33.5 -71.5t33.5 -69
q14 24 27 53q40 92 78 169q66 136 179 416q18 45 59.5 135.5t45.5 95.5q9 8 36 8q10 0 31 1q52 3 125 5q105 1 168.5 6.5t71.5 5.5q10 0 24 -2q1 -14 1 -22l-2 -30q0 -9 -1 -27q-94 -14 -153 -42q-41 -20 -41 -50v-15l17 -306q3 -42 16 -417q3 -84 13 -213q2 -16 2 -25
q1 -24 10.5 -31t179.5 -58q1 -16 1 -24q0 -21 -1 -42q-27 0 -136 11.5t-204 11.5q-145 0 -282 -12q-18 -2 -35 -3l2 69q41 16 109 27q48 8 61 27t13 106q0 33 -1 58q-5 105 -6 292l-17 353q-3 75 -7 104l-249 -572q-9 -20 -27 -58q-23 -49 -31 -67q-77 -185 -107 -283
q-8 -25 -24 -65l-77 1l-54 153q-24 60 -82 182q-34 71 -53 115q-9 18 -13 27l-12 25q-1 6 -3 10l-149 321l-91 195l-8 -473l-7 -307q0 -76 28.5 -108.5t122.5 -55.5l48 -12v-73q-58 1 -124.5 8.5t-176.5 7.5q-23 0 -197 -9z" />
    <glyph glyph-name="N" unicode="N" horiz-adv-x="1728" 
d="M11 1222l-4 70h85l29 1q60 3 83 3q12 0 70 -2q13 -1 22 -1t63 2t61 2q11 0 31 -1q154 -140 251 -241t708 -707v25l-4 116q-3 102 -8 161.5t-6 142t-7 149.5q-12 131 -12 151q-1 65 -14 79q-21 22 -96 33q-55 9 -82 23l1 59l26 3l197 6l220 6q22 1 42 1l1 -65
q-23 -12 -47 -18q-64 -15 -74 -21q-51 -29 -55 -35q-9 -12 -9 -37q0 -6 2 -42q1 -18 1 -84q1 -145 8 -229q2 -27 3 -61l11 -351q1 -37 1 -52v-123l3 -52l-3 -54q4 -41 4 -49v-53l-115 -4l-119 123l-243 241l-170 170l-125 128q-122 120 -222 211l-163 147l9 -372
q1 -34 1 -70l-1 -71l6 -131q3 -82 11 -178q2 -26 5 -36.5t12 -30.5q39 -14 170 -21q9 -2 26 -7l4 -81l-39 -1q-32 0 -202 15q-159 -2 -212 -6t-58 -4q-12 0 -33 4q-2 23 -2 40q0 11 1 36q28 5 46 5q6 0 39 -2q84 0 99.5 12.5t17.5 67.5q7 159 7 194v55l2 325l-3 203
q-1 116 -15 161q-6 23 -23 40q-35 36 -78 54q-26 11 -135 28z" />
    <glyph glyph-name="O" unicode="O" horiz-adv-x="1621" 
d="M90 670q0 124 48 249q35 90 98 165t158 133.5t194 84t221 25.5q208 0 361 -78t241 -211q114 -173 114 -363q0 -283 -192.5 -485t-535.5 -202q-85 0 -159 11q-56 8 -98 22q-76 25 -85 29q-109 62 -175 127t-112 147q-25 46 -57 166q-21 77 -21 180zM771 1228
q-87 0 -154 -40.5t-101 -89.5q-57 -83 -81 -181.5t-24 -239.5q0 -86 7 -123q2 -12 6 -41q9 -74 21 -108q43 -127 61 -157q30 -51 89 -101q30 -26 87 -47.5t114 -21.5q108 0 200.5 50.5t148.5 171.5t56 315q0 80 -11 217l-5 19q-3 8 -10 41q-37 164 -141.5 250t-262.5 86z
" />
    <glyph glyph-name="P" unicode="P" horiz-adv-x="1259" 
d="M49 1234l-1 76l239 -15l107 1h39q61 0 191 7q74 5 93 5q126 0 190 -14q98 -20 155.5 -64t99 -125.5t41.5 -151.5q0 -174 -109.5 -282.5t-276.5 -108.5q-58 0 -110.5 14t-98.5 42q-5 29 -5 80q24 -2 43.5 -3t34.5 -1q85 0 143 47q77 61 77 198q0 98 -33.5 160.5
t-79.5 84.5q-64 30 -144 30q-75 0 -107 -22q-8 -13 -12 -25l7 -471l-2 -40l3 -42q1 -14 1 -41v-82l1 -131l-2 -156q0 -33 6 -89l199 -25q4 -24 4 -38q0 -15 -5 -42q-25 -4 -38 -4q-31 0 -117 7.5t-196 7.5q-124 0 -236 -16q-19 -3 -60 -5q-4 29 -4 43q0 9 2 28l61 20
q63 19 109 46q9 29 9 53q0 10 -1 23q-1 31 -1 87l-3 281l-11 317q-7 226 -11 244q-7 29 -24 45.5t-57 23.5q-83 14 -110 23z" />
    <glyph glyph-name="Q" unicode="Q" horiz-adv-x="1621" 
d="M1067 21q47 -30 70 -49q144 -116 257 -173q47 -24 141 -41q2 -40 2 -63q0 -20 -2 -41q-25 -4 -54 -4q-141 0 -240 21q-70 15 -189.5 68t-316.5 176q-94 59 -166 90q-155 66 -257 154t-162 212.5t-60 272.5q0 186 89 349.5t287 265.5q134 69 340 69q163 0 273 -39.5
t191 -105.5t136 -146.5t86.5 -176.5t31.5 -203q0 -123 -41 -232t-105.5 -188.5t-152.5 -140.5q-53 -35 -158 -75zM816 73q73 0 166.5 46.5t158 174t64.5 352.5q0 170 -35.5 278t-79.5 166t-112 96q-89 49 -183 49q-86 0 -140 -27q-87 -45 -134 -109q-66 -91 -86.5 -209.5
t-20.5 -224.5q0 -118 23.5 -240t70 -195t125 -115t183.5 -42z" />
    <glyph glyph-name="R" unicode="R" horiz-adv-x="1429" 
d="M84 68q26 14 77 20.5t92 21.5q5 20 6 29q2 14 2 96l-1 223l4 120l-2 93l2 54q3 109 3 204q0 208 -5 266l-59 12q-81 5 -108 10l-2 60l4 11q50 8 92 8q23 0 93 1q72 -6 78 -6l53 3l125 6q117 12 247 12q205 0 326 -104.5t121 -239.5q0 -101 -65.5 -183.5t-201.5 -124.5
q12 -21 32 -49q42 -60 68 -102l160 -259q60 -103 78.5 -120.5t76.5 -38.5q45 -17 69 -34q6 -17 6 -30q0 -9 -1 -23h-27l-20 -1l-52 7h-41q-32 5 -79 5l-100 1q-11 0 -70 -7q-27 -3 -43 -5l-34 66q-42 75 -59 112q-44 97 -151 309q-50 98 -70 111q-30 21 -103 21
q-20 0 -68 -2q-3 -29 -3 -69l4 -222l-5 -188q28 -17 73 -26q78 -16 134 -38q0 -49 -4 -74q-19 1 -24 1l-41 -2q-215 19 -255 19q-26 0 -37 -1l-138 -9q-63 -7 -115 -7h-43q-2 25 -2 32q0 11 3 31zM534 715q48 -2 70 -2q170 0 241 61t71 163q0 63 -17.5 118.5t-43.5 82.5
q-37 39 -97 59q-44 15 -141 15q-46 0 -79 -5l-1 -19l1 -135l-2 -82l1 -109q-2 -46 -3 -119v-28z" />
    <glyph glyph-name="S" unicode="S" horiz-adv-x="1045" 
d="M845 1272q10 -34 18 -103q12 -103 12 -160q0 -18 -4 -39l-10 -3l-72 5l-12 2q-44 132 -88 179q-76 80 -179 80q-98 0 -155.5 -51.5t-57.5 -127.5q0 -64 57 -123q56 -59 238 -113q61 -18 147.5 -58t131.5 -87q60 -62 82.5 -119.5t22.5 -143.5q0 -94 -35 -185
q-19 -48 -61 -91q-30 -30 -93 -70.5t-130.5 -58.5t-173.5 -18q-70 0 -167 20l-120 35q-50 14 -63 25q-5 4 -9 19v11q0 11 -5 137q-2 65 -2 92v38l92 2q48 -111 62 -134q31 -51 68.5 -82.5t89.5 -50t113 -18.5q54 0 119 23t104.5 75.5t39.5 112.5q0 74 -69 137
q-42 39 -226 104t-255 116t-112 136.5t-41 164.5q0 159 114 270t336 111q48 0 142 -17q57 -10 151 -42z" />
    <glyph glyph-name="T" unicode="T" horiz-adv-x="1408" 
d="M107 1357h62q7 -11 10 -16q28 -48 43 -63q13 -4 137 -4q77 0 137 1l20 3l121 1l226 -2h309l59 9q13 9 28 48q4 9 11 25l44 1q10 0 30 -1q1 -69 1 -208l1 -89l-1 -51q0 -26 -4 -45q-41 -13 -72 -16q-26 39 -56.5 113t-38.5 82q-12 13 -28 17q-24 5 -212 5q-28 0 -70 -4
q-6 -39 -6 -64l1 -134v-294l4 -317l-1 -130q0 -69 12 -104q16 -7 59 -13q8 -1 74 -16q30 -7 53 -16q5 -36 5 -44q0 -9 -3 -26q-22 -1 -36 -1q-103 0 -175 7.5t-261 7.5q-30 0 -176 -12q-57 -4 -74 -4q-1 15 -2 23l-1 23v8q22 29 83 43q104 25 144 45q10 19 12 50
q7 120 7 382l-5 378q0 156 -6 189q-2 9 -7 13.5t-14 5.5q-31 4 -202 4q-94 0 -126 -18q-43 -25 -129 -136q-25 -32 -37 -32q-46 24 -59 39q31 65 86 260q16 57 23 77z" />
    <glyph glyph-name="U" unicode="U" horiz-adv-x="1557" 
d="M39 1217l-3 79q18 1 37 1q50 0 105 -3q132 -7 155 -7q80 0 156.5 3.5t136 4.5t80.5 2l-1 -12l2 -59v-8q-56 -8 -116 -8q-56 0 -74 -22q-12 -14 -12 -119q0 -32 1 -52l1 -36l-2 -94l6 -80l-4 -173l13 -251q5 -109 48 -181q32 -53 90 -83q84 -42 165 -42q96 0 179 25
q49 14 92.5 45.5t60.5 57.5q36 55 50 103q19 66 19 205q0 242 -26 545l-4 53q-3 59 -22 79q-32 31 -72 31l-94 -2l-13 3l2 76h79l191 -8q96 0 183 9l17 -2q6 -33 6 -46q0 -11 -4 -27q-37 -11 -78 -13q-67 -9 -74 -15q-14 -12 -14 -37q0 -18 3 -52q3 -25 3 -87q0 -35 0.5 -55
t1.5 -41q3 -72 5 -146l10 -203q0 -204 -14 -273t-38 -109q-37 -60 -105 -110.5t-170 -80t-238 -29.5q-155 0 -266 41.5t-167.5 109t-77.5 175.5q-15 74 -15 212l1 477q0 169 -16 191q-22 31 -137 35q-25 0 -42 3z" />
    <glyph glyph-name="V" unicode="V" horiz-adv-x="1365" 
d="M-23 1225v86q52 -1 63 -2q123 -14 323 -14q30 0 122 6q66 5 99 10h73q2 -73 2 -82q-100 -13 -117 -17q-44 -12 -65 -32q-11 -11 -11 -26q0 -11 2 -22l33 -87q35 -102 116 -277l114 -258q33 -75 60 -142l58 142l119 330l28 70q5 15 13 42q26 89 43.5 135t17.5 75
q0 19 -19 33q-29 22 -95 28q-14 4 -37 6.5t-41 6.5q-6 20 -6 30q0 13 4 46q18 0 103 -8t166 -8q83 0 142 7.5t96 8.5v-32q0 -12 -1 -36q-129 -47 -151 -64q-14 -10 -27 -33q-38 -67 -116 -271l-128 -331q-18 -48 -39.5 -101.5t-45.5 -117.5q-5 -15 -47 -120l-10 -18
q-44 -141 -66 -195q-40 -2 -50 -2q-19 0 -53 2q-11 30 -22 61t-85 217l-189 424l-113 273q-87 186 -95 199q-17 25 -38 36t-87 17z" />
    <glyph glyph-name="W" unicode="W" horiz-adv-x="1835" 
d="M3 1228l-5 62q12 7 19 7q83 -6 166 -9q34 -1 44 -1q36 0 84 3l130 6q7 -4 9 -11l-8 -46q-19 -12 -37 -21q-40 -22 -40 -36q0 -13 10 -33q6 -12 16 -41q17 -49 96 -238l259 -604q51 95 159 320l-147 352q-41 99 -71 163q-10 21 -17 40q-6 10 -16 29.5t-31 32t-100 31.5
l4 60q32 0 88 -3q81 -6 104 -6l140 2l173 10q5 -1 14 -1l1 -34v-12q0 -6 -4 -16q-17 -5 -54 -9q-26 -2 -36.5 -11t-10.5 -21q0 -30 21 -73q9 -19 24 -58q50 -128 77 -187l70 145q48 100 63 147q3 10 3 17v6q-12 13 -22 18q-25 11 -85 26q-2 19 -2 29q0 11 3 33q33 0 187 -5
q91 -3 116 -3q21 0 37 0.5t34 0.5l2 -8l-3 -45l-2 -5q-108 -31 -129 -45t-40 -46q-50 -88 -185 -368l4 -9l64 -148l109 -257q17 -38 24 -56l126 330l176 449l28 84q2 8 2 16l-3 17q-34 11 -55.5 16.5t-37.5 15.5q-3 33 -3 41t7 21l16 2l150 -6l99 6l21 -3q3 -18 3 -32
q0 -18 -7 -29q-5 -7 -20 -12q-41 -20 -56 -38q-11 -12 -31 -67q-87 -234 -179.5 -451t-275.5 -691l-101 -1q-10 36 -22 61q-29 65 -34 82l-111 256q-27 64 -44 95q-3 5 -8 14q-2 -5 -105.5 -200.5t-151.5 -305.5l-102 -1q-36 110 -141 338l-323 756q-51 115 -73 137
q-8 8 -30 17q-8 3 -23 9z" />
    <glyph glyph-name="X" unicode="X" horiz-adv-x="1408" 
d="M12 1301q36 1 58 1q24 0 39 -1l54 -4l25 1q5 0 36 -5q56 -9 161 -9q130 0 246 16q16 -1 35 -3q-2 -33 -2 -66q-15 -7 -21 -9l-99 -17q-12 -3 -33 -11q1 -18 4 -26q73 -125 137 -208l97 -139l11 -16l57 70l124 181q45 67 57 100q4 10 4 19l-3 16q-20 11 -32 14q-7 1 -38 2
q-52 1 -93 8q-3 20 -3 30q0 5 2 24q0 7 1 23q11 1 20 5q90 -6 372 -6q36 0 64 3t34 3q10 0 30 -3q5 -20 5 -36q0 -10 -1 -32l-154 -33q-19 -7 -42 -27.5t-124 -150.5l-145 -188q-25 -34 -41.5 -54.5t-29.5 -36.5l15 -21q55 -79 112 -159l199 -294q79 -117 117 -144
q27 -19 137 -40q3 -20 3 -26q0 -5 -5 -37l3 -9l-71 -2q-23 0 -90 5l-123 8l-13 2q-21 1 -29 1q-63 0 -149 -7t-126 -7q-26 0 -85 2v26q0 18 2 37q77 20 161 33q11 7 25 14l1 11q0 9 -3 18q-6 19 -28 55q-44 70 -119 169l-119 159q-23 -27 -161 -222q-44 -50 -74 -108
q-20 -37 -20 -47l1 -8l13 -18q37 -17 92 -34.5t71 -23.5l6 -46v-5l-2 -11q-29 -4 -39 -4q-16 0 -96 8q-27 3 -97 4l-47 1l-221 -10q-7 0 -47 1l-4 45q0 9 3 26q17 2 43 5q78 7 120 28q17 9 63 61q71 78 128 153q33 44 52 66q53 73 159 209l-59 89q-64 79 -99 131l-59 86
q-34 56 -45 70q-48 62 -114 166q-25 38 -64 56t-127 23v15q0 11 -1 16q-4 19 -4 25z" />
    <glyph glyph-name="Y" unicode="Y" horiz-adv-x="1344" 
d="M-35 1294q27 8 125 8l10 -2q25 -4 35 -4l10 1q15 -2 82 -7q124 -9 197 -9q80 0 157 11q11 2 16 2l8 -1q5 -13 5 -20l-1 -52q-23 -9 -55 -14l-45 -8q-25 -5 -67 -11l-6 -4l-2 -13q33 -71 140 -221q28 -48 56 -90q8 -11 57 -93q5 -9 11 -18q9 -14 18 -27q17 -25 22 -33
q20 -32 34 -49l104 146q51 66 133 192l4 5l85 151q20 29 20 43q0 5 -3 17q-15 10 -25 12q-4 2 -42 4q-21 4 -40 7t-31 6q-2 13 -6 74l205 -11q9 -1 25 -4h48l17 1q32 5 83 8q15 1 29 3l-1 -75l-13 -4q-84 -14 -115 -37q-45 -34 -121 -164l-130 -195q-117 -159 -151 -217
q-9 -14 -15 -35v-31l-1 -87v-24q-3 -26 -3 -54l4 -256q4 -8 11 -11q14 -4 64 -10q96 -10 107 -17q8 -5 8 -20q0 -9 -2 -24q0 -9 -1 -28l-115 2l-107 9l-74 5l-111 -4h-83q-14 1 -45 -4q-50 -8 -75 -8l-69 1q-1 21 -1 32t1 33l184 38q12 4 23 10q1 46 1 57q0 153 -2 208.5
t-2 64.5v23q0 63 -66 145q-28 35 -35 46l-196 298l-92 148q-5 8 -62 82q-18 16 -35 22q-10 4 -91 21q-5 9 -5 16q0 6 1 15.5t2 28.5z" />
    <glyph glyph-name="Z" unicode="Z" horiz-adv-x="1365" 
d="M48 10q-3 36 -3 80q65 93 278 370l61 78q17 19 48 63q46 66 120.5 158.5t190.5 253.5q49 67 79 106q43 54 60 80h-25l-87 1q-112 0 -270.5 -14.5t-212.5 -34.5q-41 -15 -70 -42q-57 -52 -79 -86q-8 -12 -15 -23q-39 -5 -44 -5q-9 0 -25 4q6 39 88 349l60 4q32 -71 43 -79
q21 -15 75 -15q10 0 18 1h7q80 6 386 20q195 9 303 9l75 -2l128 1q2 -22 3 -41q-4 -13 -70 -101q-46 -61 -73 -100l-46 -66l-3 -4l-279 -366l-215 -287q-90 -118 -152 -207q62 -11 156 -11h68l43 -2q121 0 196 12t126.5 39t94 69t114.5 151q33 3 46 3h25l-18 -214v-9
q0 -20 -14 -149l-401 12q-51 1 -80 1h-116l-113 1h-21l-274 -8q-37 -3 -64 -3q-24 0 -53 1q-40 2 -69 2z" />
    <glyph glyph-name="bracketleft" unicode="[" horiz-adv-x="747" 
d="M251 1291q56 3 410 3h36v-63q-5 -11 -11 -12q-179 -41 -199 -57q-13 -11 -13 -55v-9q3 -73 4 -308l4 -161q0 -24 -7 -189l3 -226l-1 -74l3 -148l-3 -91v-125l-1 -30q0 -10 2 -46q1 -13 2 -38q30 -13 137 -32q53 -10 73 -15q4 -34 4 -48q0 -13 -3 -29l-436 2q-2 34 -2 41
l1 100l-1 169l3 110l-3 106v51l1 742v98q0 40 -1 66q-1 42 -1 47l3 83q0 5 -3 62q-1 26 -1 76z" />
    <glyph glyph-name="backslash" unicode="\" horiz-adv-x="1131" 
d="M120 1426h166l726 -1703h-167z" />
    <glyph glyph-name="bracketright" unicode="]" horiz-adv-x="747" 
d="M265 1172q-46 19 -151 37q-40 6 -60 12q-3 24 -3 43q0 13 1 32q55 1 96 1q283 0 341 -3q3 -34 3 -39l-2 -300l-2 -73q-1 -16 3 -200v-28l-4 -226q0 -28 2 -104l-2 -366l1 -48l-2 -68l2 -87l-2 -80q-1 -6 2 -66q1 -15 1 -28q0 -18 -4 -39l-442 -1q-1 28 -1 51q0 15 5.5 20
t35.5 11q138 27 167 47q12 8 13 27l-1 156l1 194l-2 95l3 65v168l2 125q0 35 -1 68l-1 48l1 97l-2 203q0 43 3 117q1 40 1 56q0 13 -2 83z" />
    <glyph glyph-name="asciicircum" unicode="^" horiz-adv-x="1195" 
d="M150 666l411 718h82l404 -718h-159l-295 512l-290 -512h-153z" />
    <glyph glyph-name="underscore" unicode="_" horiz-adv-x="1024" 
d="M-12 -154h1048v-102h-1048v102z" />
    <glyph glyph-name="grave" unicode="`" horiz-adv-x="683" 
d="M121 1280h273q10 -27 21 -60q14 -47 26 -83q46 -135 56 -178l-79 3z" />
    <glyph glyph-name="a" unicode="a" horiz-adv-x="981" 
d="M925 194l23 -15q9 -7 11 -17l1 -5q-24 -89 -63 -122.5t-97 -33.5q-59 0 -101.5 32.5t-77.5 114.5q-43 -76 -121 -114.5t-191 -38.5q-104 0 -153 43.5t-49 114.5q0 33 14.5 67t47 67.5t104.5 73.5q11 6 76 34l249 100q3 38 3 77q0 135 -33 184q-20 30 -70 30t-92 -19
t-61 -49q-14 -22 -24 -83q-7 -44 -13 -51q-15 -19 -54.5 -34.5t-53.5 -22.5q-54 -26 -86 -26q-14 12 -14 34q0 57 24 98q36 58 108.5 112.5t135.5 76.5q86 28 210 28q80 0 137.5 -29.5t80 -87.5t22.5 -209l-3 -165l2 -121v-31q0 -42 11.5 -57.5t29.5 -15.5q11 0 19 6l30 47z
M597 426q-57 -19 -128.5 -63.5t-99.5 -89.5q-20 -33 -20 -81q0 -43 26 -71t60 -28q56 0 95 32q53 43 62 68.5t9 144.5q0 44 -4 88z" />
    <glyph glyph-name="b" unicode="b" horiz-adv-x="1131" 
d="M42 1210l85 32q32 12 167 83h44q17 0 30 -2q1 -29 1 -40l-1 -41l5 -376l-1 -144q29 32 77 67q10 7 55 28.5t72 27.5q48 11 85 11q99 0 161.5 -25t118 -78.5t93.5 -149.5q24 -61 24 -149q0 -57 -19.5 -128.5t-63.5 -139.5q-32 -49 -90.5 -96t-134.5 -75q-50 -19 -171 -19
q-111 0 -249 82q-36 22 -52 30q-20 -29 -44.5 -70t-33.5 -54l-50 -1q0 24 2.5 49t2.5 47l-1 74l3 26q2 16 2 56v731q0 110 -7 143q-2 10 -7.5 14.5t-102.5 40.5v46zM375 663l-1 -156q0 -259 12.5 -310t66.5 -88.5t114 -37.5q44 0 88 18t67 40q35 33 52 70q27 58 34 106
q9 66 9 105q0 82 -33.5 162.5t-94 120t-131.5 39.5q-44 0 -104 -25t-79 -44z" />
    <glyph glyph-name="c" unicode="c" horiz-adv-x="960" 
d="M856 267q16 -9 24 -12q23 -10 37 -25q-27 -100 -131 -173t-263 -73q-100 0 -198 42t-156 111q-45 53 -67.5 130t-22.5 131q0 65 28 147.5t94 155.5t166.5 116t226.5 43q173 0 241 -54t68 -108q0 -53 -27.5 -83.5t-75.5 -30.5q-41 0 -75.5 27t-57.5 91q-18 46 -46 67
q-28 20 -67 20q-94 0 -168 -80.5t-74 -219.5q0 -167 90.5 -265.5t205.5 -98.5q57 0 97 13q25 9 68 39q11 8 41.5 43t41.5 47z" />
    <glyph glyph-name="d" unicode="d" horiz-adv-x="1131" 
d="M264 773q49 34 94.5 49t128.5 23h56q109 0 209 -75l2 24l-1 67l4 107q0 169 -26 214q-15 27 -52.5 29t-60.5 13v48q19 6 49 6.5t117 20.5l34 7l99 23q30 7 37 7q5 0 16 -2q6 -21 6 -31l-1 -15v-18q0 -28 3 -149v-54l1 -29l-1 -50l3 -104l-2 -61q-2 -40 -2 -126
q0 -14 1 -25v-37q-1 -16 -1 -24q0 -15 3 -43v-55l-1 -21q-2 -29 -2 -80q0 -52 2 -94q1 -17 1 -31v-75q0 -36 2 -86q18 -11 88 -16q22 -1 39 -5q5 -15 5 -22q0 -9 -7 -27q-41 -10 -86 -15q-137 -17 -195 -48q-28 -16 -39 -16t-25 2q1 18 1 23q0 68 -3 87q-15 -8 -37 -21
q-67 -40 -122 -55.5t-126 -15.5q-126 0 -201 48q-111 70 -153.5 168t-42.5 215q0 202 186 345zM572 111q21 -2 36 -2q33 0 70.5 14t79.5 41q1 33 1 41q0 317 -9 382q-12 87 -66 134t-131 47q-44 0 -83.5 -16t-64.5 -46q-37 -44 -56 -100q-26 -78 -26 -146q0 -163 69 -249.5
t180 -99.5z" />
    <glyph glyph-name="e" unicode="e" horiz-adv-x="960" 
d="M86 536q26 85 46 113q56 82 119.5 128t114.5 61q66 19 107 19q94 0 152 -14.5t97 -41.5q56 -39 90 -79t55.5 -94t23.5 -131l-111 2q-46 0 -202 9q-58 4 -80 4q-7 0 -108 -1h-86q-2 -14 -2 -24q0 -53 13 -111.5t39 -103t64.5 -76.5t79.5 -46l58 -19q77 0 103 5
q48 10 84.5 25.5t88.5 52.5q36 -26 60 -47q-88 -97 -182.5 -140.5t-211.5 -43.5q-79 0 -129 14q-67 18 -121 55t-93 92t-58 113q-25 76 -25 122q0 87 14 157zM667 579q-1 56 -22 107t-65 79.5t-89 28.5q-67 0 -121 -59t-61 -160l228 -1q22 0 62 3q29 3 41 3q9 0 27 -1z" />
    <glyph glyph-name="f" unicode="f" horiz-adv-x="619" 
d="M55 5l-1 57q16 8 71.5 23.5t61.5 22.5q11 11 11 31v22q4 93 4 104q0 9 -1 25l-1 12l1 13v9l-6 172l-1 192l-2 19q-18 0 -53 2h-63q-6 1 -17 4q-1 27 -1 43q0 28 14 45q30 0 118 7q3 119 38.5 223.5t89.5 167.5l26 29q66 56 121.5 78.5t131.5 22.5q74 0 122.5 -24
t67 -61.5t18.5 -69.5q0 -40 -33 -73.5t-73 -33.5q-30 0 -59 20q-20 15 -48.5 62.5t-44.5 60.5q-16 12 -42 12q-31 0 -54 -24t-32 -69t-9 -180l-1 -110l1 -29l19 -1l119 3q9 0 28 -3q13 -12 13 -20l-1 -19v-27q0 -6 -3 -23q-9 -5 -21 -5h-9l-76 -1q-19 0 -29 1h-9
q-10 0 -30 -4l-1 -49q0 -7 1 -22q2 -57 2 -78l-1 -147l2 -107l-1 -86q-3 -91 17 -110q29 -29 121 -39q17 -1 31 -7q4 -24 4 -31q0 -11 -4 -31h-72q-9 0 -117 7l-54 4q-78 0 -121 -4q-23 -3 -163 -6z" />
    <glyph glyph-name="g" unicode="g" horiz-adv-x="1109" 
d="M289 -128q-135 34 -180 79.5t-45 101.5q0 45 24 69t219 135q-99 59 -136 114q-48 72 -48 142q0 63 26 134q56 102 153.5 152.5t251.5 50.5q62 0 107 -8q21 -4 70 -22l38 -14q51 -32 89 -66q86 17 139 35q37 11 64 11q20 0 32 -17t12 -80q0 -55 -15 -76.5t-31 -21.5
q-6 0 -35 14q-68 31 -109 33q24 -69 24 -131q0 -73 -42.5 -139.5t-116.5 -105.5q-103 -55 -206 -55q-66 0 -90 3q-35 4 -98 18q-85 -47 -119 -80q-17 -16 -17 -38q0 -20 17.5 -36t58.5 -22q8 -1 22 -4q53 -4 141 -4q11 0 71 3q17 1 29 1q239 0 335 -76q95 -76 95 -186
q0 -59 -33.5 -115.5t-90.5 -92t-164.5 -63.5t-230.5 -28q-133 0 -238.5 26t-165.5 85q-46 44 -46 94q0 49 38.5 87.5t200.5 92.5zM539 274q67 0 114.5 57.5t47.5 178.5q0 160 -42.5 215t-119.5 55q-10 0 -53 -5q-48 -9 -87.5 -68t-39.5 -158q0 -27 7 -107q3 -34 15 -59
q17 -39 37 -60.5t53.5 -35t67.5 -13.5zM596 -445q148 17 230 80q52 41 52 81q0 22 -11 43t-39.5 41.5t-64.5 28.5q-51 10 -135 10l-123 2q-162 0 -217.5 -40t-55.5 -106q0 -35 31 -69.5t104 -54.5t157 -20q24 0 72 4z" />
    <glyph glyph-name="h" unicode="h" horiz-adv-x="1131" 
d="M38 69q16 4 89 12q32 4 40 14q10 15 10 71v71l3 75v82l1 20l-1 50l2 17l4 363v28q0 186 -10 230q-6 26 -28.5 41t-105.5 28v21q0 15 2 37l84 18q25 7 48 12q56 12 141 50q15 9 28 15l54 -4l-2 -598q91 72 166 102t156 30q77 0 133.5 -27.5t87.5 -68t44 -98.5
q9 -39 9 -150v-64l1 -141l-5 -204q4 -9 9 -12q12 -5 59 -14q27 -5 42 -9q8 -15 8 -24l-1 -8q-2 -11 -2 -33l-23 -1q-15 0 -59 4q-84 8 -141 8q-37 0 -99 -4q-44 -2 -112 -2q-11 0 -20 3v24l-2 13q0 8 5 22q23 11 53.5 14.5t57.5 7.5q4 19 5 24l5 146v245q0 109 -12 147.5
t-50 63t-92 24.5q-63 0 -122.5 -29.5t-101.5 -69.5v-175q0 -144 -3 -216q-2 -43 -2 -54q0 -69 9 -95q4 -12 22 -22q37 -3 61.5 -3.5t39.5 -4.5q2 -25 2 -35q0 -14 -4 -34l-111 5q-63 5 -113 5l-140 -7l-98 1q-10 14 -21 50v13z" />
    <glyph glyph-name="i" unicode="i" horiz-adv-x="576" 
d="M172 1199q0 54 35 88.5t90 34.5q59 0 98 -36.5t39 -82.5q0 -34 -15.5 -68t-49 -54.5t-68.5 -20.5q-48 0 -88.5 41t-40.5 98zM32 6l-2 65l113 15q25 7 34.5 20.5t9.5 60.5v11q0 12 1.5 43.5t1.5 55.5q0 19 -3 73l1 50l-1 47l2 163q0 31 -6 64q-11 15 -40 26t-101 16v56
q103 6 181 43q53 24 115 85h67q4 -124 4 -322l-7 -408q0 -42 4 -76q31 -11 101 -22q27 -4 43 -10l-1 -55q-27 -1 -40 -1q-15 0 -46 2q-102 5 -273 5q-49 0 -95 -3.5t-63 -3.5z" />
    <glyph glyph-name="j" unicode="j" horiz-adv-x="533" 
d="M152 1195q0 56 37.5 92t98.5 36q46 0 83.5 -32t37.5 -94q0 -56 -36.5 -93.5t-91.5 -37.5q-60 0 -94.5 35.5t-34.5 93.5zM45 711l-1 54q102 13 141.5 30.5t159.5 107.5l24 -1h11q6 0 14 -1v-18l2 -67l-1 -57q0 -106 3 -160l1 -29l-1 -58q0 -113 2.5 -148.5t2.5 -67.5
l-1 -368q0 -73 -33.5 -142.5t-111 -144t-144.5 -111.5l-54 48q9 13 32 43q71 90 86.5 140t15.5 229l-5 165l-1 71v68l-5 373q-6 13 -15 16q-38 14 -122 28z" />
    <glyph glyph-name="k" unicode="k" horiz-adv-x="1088" 
d="M32 63q18 9 36 12t26 5q58 6 67 10q7 21 9 66l6 423v57l1 43v287q0 102 -7 147q-1 11 -7 33q-20 17 -39 23.5t-80 13.5q-1 13 -1 20q0 11 2 32q39 13 220 61q50 14 89 31l40 -2l2 -444q0 -5 -3 -64q-1 -21 -1 -83l-2 -150v-143q50 30 207 134q54 36 121 90q28 22 41 36
q-16 7 -31 11q-38 9 -91 30q-1 14 -1 21q0 10 3 31l74 1q9 0 51.5 -2.5t85.5 -2.5q35 0 98.5 4t78.5 4q16 0 48 -2q1 -11 1 -16q0 -10 -4 -28l-79 -25q-65 -19 -99 -38q-83 -47 -280 -181q24 -25 50 -50l26 -24l74 -74l163 -164l94 -94q21 -15 83 -43q1 -28 1 -33
q0 -8 -1 -24q-11 0 -65 5q-31 4 -54 4q-208 0 -355 -5q0 15 -2 23l-1 15q0 7 5 22q25 9 67 13q17 1 37 4q-15 27 -37 50l-259 276l-54 -29v-209q0 -9 1 -33l1 -37q20 -14 31 -18q17 -6 64 -11q13 -1 24 -4v-25l1 -18q0 -5 -2 -16l-7 -3q-92 3 -146 7q-29 2 -46 2
q-9 0 -44 -1h-57l-86 -8l-26 1l-59 -3q-4 17 -4 31q0 11 1 28z" />
    <glyph glyph-name="l" unicode="l" horiz-adv-x="533" 
d="M7 50q22 15 58 19q69 8 79 21q20 26 20 106v282l-1 67v202l-3 231v40q0 82 -13 121q-35 21 -75 21q-24 0 -45 5q-3 25 -3 37q0 8 2 18q79 9 164 40.5t130 64.5l28 1q9 0 26 -1q5 -346 5 -474q0 -38 -1 -61v-6l1 -19v-443l1 -146v-24q0 -43 14 -61q12 -13 51 -16
q21 -2 83 -10q5 -21 5 -34q0 -10 -2 -28l-79 4q-66 5 -166 5l-37 1q-57 0 -165 -9h-73z" />
    <glyph glyph-name="m" unicode="m" horiz-adv-x="1728" 
d="M47 72q8 4 22 5q59 4 94 21q7 3 8.5 13t5.5 182v58l1 103l-1 107v24q0 47 -21.5 69.5t-112.5 48.5v41q19 5 45 11q92 19 152 54q46 27 91 81h55v-16l3 -80l-1 -37l2 -18q95 75 158.5 99t145.5 24q79 0 152.5 -34t122.5 -114q71 69 119 97q33 19 90.5 33.5t108.5 14.5
q139 0 220 -84q81 -85 81 -230v-159q0 -49 -3 -169v-77q0 -20 12 -39q39 -17 67 -22q20 -3 38 -14q2 -18 5 -30l-1 -20q-28 -5 -40 -5q-8 0 -48.5 4.5t-102.5 4.5q-151 0 -240 -10q-7 25 -7 40l1 14q13 7 86 35q13 13 15 23q5 25 5 107l-5 282q-1 71 -11 117.5t-29.5 73
t-52.5 43.5t-69 17q-56 0 -114 -31.5t-103 -95.5l-1 -29l2 -128l-2 -105v-100l-1 -89q0 -66 13 -78q20 -19 98 -27l31 -11q8 -23 8 -36q0 -7 -4 -24l-29 1h-40l-21 1q-71 7 -147 8l-107 2q-39 0 -135 -9l-18 3l-1 59q30 9 108 15q5 1 13 4q11 13 13 22q5 20 5 81l-1 203
l2 54q0 156 -11 193q-14 48 -58.5 78.5t-106.5 30.5q-81 0 -141 -38.5t-69 -68.5q-1 -12 -1 -18l1 -10v-10q0 -9 -5 -28l3 -287l1 -150q0 -8 2 -26l5 -15q28 -9 48 -13q37 -8 56 -18q3 -17 3 -24q0 -13 -8 -37q-16 -1 -23 -1q-11 0 -100 9l-109 1q-78 0 -189 -11l-29 1
q-2 16 -4 37q0 9 5 26z" />
    <glyph glyph-name="n" unicode="n" horiz-adv-x="1131" 
d="M41 57q26 12 48 16q55 9 64 15q15 9 20 22q6 20 6 88v87l1 71l-3 105v63q0 63 -10 103q-4 15 -25 30q-28 20 -95 39l-1 48q13 4 23.5 5.5t80.5 19.5q55 20 71 28q5 3 16 9q12 10 27 20q30 21 72 73l53 4l-2 -113q-1 -17 -1 -27q0 -8 1 -46q83 72 151 100q89 37 169 37
q94 0 165 -46.5t93 -107.5t22 -246l-4 -326q0 -23 8 -38q10 -8 55 -15l49 -9q9 -13 9 -32q0 -12 -1 -33l-196 14l-58 -2h-46l-132 -10h-34q-1 13 -1 20q0 18 2 39q14 3 70 10q15 2 33 7q20 8 23 16q8 17 8 65q0 84 -2 129l1 116q1 211 -26 263q-38 75 -114 75
q-56 0 -116 -28.5t-124 -86.5l-2 -17l2 -63l-1 -67l4 -160l-2 -25q0 -163 13 -184t99 -46q3 -17 3 -25q0 -12 -7 -37q-31 -1 -52 -1t-66 6l-107 2q-80 0 -231 -7q-4 10 -4 21q0 8 1 32z" />
    <glyph glyph-name="o" unicode="o" horiz-adv-x="1067" 
d="M866 735q64 -62 95.5 -142.5t31.5 -151.5q0 -134 -41 -216q-62 -124 -167 -183t-244 -59q-156 0 -264.5 70t-155 159t-46.5 221q0 67 22 134.5t60.5 117.5t84.5 84q67 48 134.5 68.5t163.5 20.5q209 0 326 -123zM319 389q9 -124 13 -143q13 -67 41 -115q19 -31 63 -55
t105 -24q73 0 123 46.5t72 145.5q14 65 14 213q0 182 -60 257.5t-158 75.5q-77 0 -127.5 -43t-70.5 -127q-13 -54 -15 -231z" />
    <glyph glyph-name="p" unicode="p" horiz-adv-x="1131" 
d="M-3 -502v45q18 11 26 15l77 28q48 19 54 30q16 30 14 106l-7 398l-10 495q-3 54 -23 77t-106 48l-1 52q98 19 165 47q49 20 133 76l51 1l1 -28l-1 -108q0 -6 1 -30q87 53 143 70q82 24 181 24q102 0 181 -52q6 -4 17 -11q50 -36 73 -69q50 -71 72 -140q17 -52 17 -130
q0 -104 -27 -176t-93 -145t-141.5 -104t-158.5 -31q-82 0 -117 10q-67 19 -133 56q-3 -16 -3 -22l3 -27q1 -11 1 -27q0 -7 -2 -79l3 -182q0 -6 -1 -40v-11q0 -37 5 -54q4 -10 17 -22q10 -4 19 -9q31 -6 54.5 -12t49.5 -10q9 -11 9 -29q0 -11 -1 -32h-18q-58 0 -81 2l-151 13
h-37l-35 1l-35 -3l-54 -3q-30 -1 -66 -5t-52 -4zM376 213q4 -12 5 -18q11 -46 28 -65q31 -36 71 -48q60 -17 105 -17q52 0 101.5 22t79.5 59q4 5 12 14q7 16 11 24q40 78 40 166q0 162 -96 273q-67 79 -190 79q-73 0 -166 -38q-3 -39 -3 -219l3 -193q0 -7 -1 -39z" />
    <glyph glyph-name="q" unicode="q" horiz-adv-x="1131" 
d="M879 740q7 28 14 168l85 1l-1 -19l2 -86l-1 -59l2 -117v-112l-2 -69v-98q-2 -52 -2 -82q0 -32 1 -64q1 -44 1 -86v-33l-3 -256l-3 -189q0 -24 21 -42q15 -12 72 -28q37 -11 50 -19q2 -13 2 -24q0 -10 -2 -35q-58 1 -120 6q-105 8 -177 8q-94 0 -184 -11q-19 -3 -28 -3
q-7 0 -21 1l4 60q16 2 41 7.5t45 8.5q58 10 72 30.5t14 125.5l-1 121l3 140q0 33 -2 103q-14 -8 -31 -20q-116 -81 -251 -81q-71 0 -116 15q-74 25 -141 80.5t-105 142t-38 183.5q0 75 29.5 147t80.5 129t122 95q51 28 149 54q43 12 113 12q63 0 153 -30q59 -19 153 -75z
M584 111q22 1 35 1q11 0 27 -1q56 3 116 42v20q-1 37 -1 65v72q0 242 -14 310.5t-62.5 104.5t-125.5 36q-31 0 -89 -19q-39 -13 -81 -55q-30 -30 -51 -93.5t-21 -152.5q0 -136 73.5 -223.5t193.5 -106.5z" />
    <glyph glyph-name="r" unicode="r" horiz-adv-x="704" 
d="M39 55q13 11 34 16q51 11 97 40q9 24 9 162q0 253 -11 342q-2 16 -16 28q-25 13 -68 23q-20 5 -24 22l-3 37q74 10 134 50.5t90 82.5q16 23 28 35l70 3q5 -23 5 -38q0 -11 -1 -27q-1 -35 -1 -58q0 -11 1 -83q41 70 60 94q9 11 53 49q34 25 77 25q53 0 92 -36t39 -83
t-29.5 -84.5t-78.5 -37.5q-43 0 -90 36q-28 22 -45 22l-7 -1q-21 -7 -38 -38q-28 -50 -28 -104l2 -27q4 -74 6 -347q3 -25 19 -50q18 -14 36.5 -20t64.5 -10t56 -12.5t10 -27.5q0 -11 -6 -29h-94l-191 10q-72 0 -131 -6h-17q-7 0 -104 -5q-3 16 -3 24t3 23z" />
    <glyph glyph-name="s" unicode="s" horiz-adv-x="853" 
d="M90 286q30 6 44 6q7 0 21 -1l9 -10q54 -95 71 -115q35 -41 69 -66q23 -16 72 -33q33 -12 70 -12q63 0 108 40.5t45 87.5q0 32 -17 54.5t-68 44.5q-25 11 -125.5 36t-121.5 33q-47 18 -83.5 50t-55.5 72q-26 57 -26 98q0 76 22 124.5t62 85.5q29 28 87.5 51t125.5 23
q95 0 167 -13t122 -39q6 -23 17 -106t11 -98q0 -7 -3 -15q-26 -8 -43 -8q-10 0 -29 2q-9 14 -24 42q-48 89 -98.5 125.5t-116.5 36.5q-69 0 -116 -40q-34 -29 -34 -79q0 -33 36 -67q35 -35 122 -53q131 -29 193 -58q90 -42 126.5 -99t36.5 -132q0 -116 -87.5 -193.5
t-255.5 -77.5q-22 0 -115 10q-42 5 -99 20q-14 4 -73 29q-11 6 -15.5 14.5t-13.5 83.5q-16 122 -17 146z" />
    <glyph glyph-name="t" unicode="t" horiz-adv-x="640" 
d="M59 764q118 50 170.5 98t112.5 156h56q9 -26 9 -55q0 -52 -1 -81l-3 -59q0 -5 1 -23l23 -1q5 0 94 4q7 0 75 2q6 -27 6 -48q0 -23 -7 -54q-33 -4 -50 -4q-8 0 -32 2h-52l-18 1l-48 -2l-2 -382q-1 -111 4.5 -138.5t23.5 -52.5q23 -11 51 -11q27 0 40 5t44 29q6 5 19 14
q24 -19 39 -38l4 -12q-35 -55 -98.5 -86.5t-135.5 -31.5q-93 0 -151 59t-58 183l4 176v285l-31 1l-72 -1l-13 3q-6 9 -6 17q0 6 2 45z" />
    <glyph glyph-name="u" unicode="u" horiz-adv-x="1131" 
d="M47 816q11 4 18 6h298l22 -2l1 -67l-2 -98l1 -51l-1 -151v-103q0 -101 11 -159q15 -44 48.5 -66.5t81.5 -22.5q45 0 73 9t64.5 34t46.5 36q29 32 40 59l7 249q2 39 2 64q0 26 -1.5 65.5t-1.5 44.5l1 37l-2 22q-24 15 -67 19l-67 5q-6 3 -11 7q-4 20 -4 30q0 12 3 34
q33 5 57 5l154 -2q62 0 152 2l2 -75l-3 -96l2 -120l-1 -172l-2 -77l1 -52q-4 -52 -4 -59q0 -25 9 -37t17 -12l92 3l12 -2q3 -35 3 -40q0 -7 -3 -22q-53 -2 -76 -7q-107 -24 -234 -71l-40 2l-1 163q-12 -10 -35 -31q-88 -78 -151 -105.5t-132 -27.5q-82 0 -142 34t-88 84
q-21 39 -28 112q-2 19 -2 196l1 32q5 98 5 145q0 80 -3 107q-1 13 -10 30q-14 6 -33 9q-64 11 -80 21q-5 3 -5 13q0 6 1.5 16t3.5 33z" />
    <glyph glyph-name="v" unicode="v" horiz-adv-x="939" 
d="M-9 821l23 1l208 -5l62 -1l132 5h23q6 -19 6 -29q0 -12 -4 -37q-19 -3 -44 -6q-49 -7 -61 -16q-9 -6 -9 -13q0 -17 13 -42q6 -10 28 -65q9 -24 33 -72q75 -155 107 -241q19 -51 31 -75q70 161 151 410q21 65 24 105q-59 9 -110 9h-12l-16 2q-2 18 -2 34q0 24 8 36l35 3
l87 -1h49q45 -4 94 -4l80 4q10 0 28 -1q1 -18 1 -29t-1 -28q-102 -24 -141 -45q-7 -14 -9 -19l-4 -9q-40 -120 -127 -317l-108 -261q-21 -50 -31 -69q-17 -34 -29 -59h-81q-39 67 -81 163l-136 304q-50 121 -114 255q-8 17 -13 21q-81 22 -93 34q-2 12 -2 27q0 19 5 31z" />
    <glyph glyph-name="w" unicode="w" 
d="M-11 818l18 1h15q8 0 69.5 -6t113.5 -6q40 0 112 6t88 6q13 0 37 -1q2 -19 2 -31q0 -10 -4 -23q-15 -5 -35 -8q-44 -8 -61 -18q-5 -3 -8 -14q8 -30 17 -53l98 -224q48 -111 84 -173q20 -45 27 -60q94 166 142 315l-45 95q-28 62 -58 113q-18 5 -39 10q-37 9 -68 19v55
q74 -1 101 -4q45 -4 134 -4q44 0 108 2.5t78 2.5h49l-3 -57q-11 -1 -50 -5t-69 -13q50 -124 66 -153l12 -22l107 -234l37 -80l39 86q48 105 57 128q29 75 34 86q47 99 47 147q0 13 -21 27q-6 4 -74 25q-48 6 -65 12l5 52q15 2 25 2q8 0 90.5 -6.5t96.5 -6.5q38 0 116 8
q34 3 56 3v-29q0 -8 -1 -31q-98 -29 -123 -47q-6 -4 -13 -19l-152 -344q-39 -82 -132 -312q-13 -31 -20 -48h-75l-171 381l-18 39q-8 18 -19 37l-9 -16l-120 -248q-27 -58 -50.5 -101t-41.5 -89l-35 -1l-54 1l-156 332l-169 364q-16 29 -30 40q-24 18 -54.5 23.5t-38.5 12.5
q-1 19 -1 29q0 14 2 27z" />
    <glyph glyph-name="x" unicode="x" horiz-adv-x="1024" 
d="M19 52q50 17 85 36q23 13 39.5 27t76.5 72l183 181l13 15q-6 5 -119 117l-13 19q-44 45 -68 72l-20 18q-69 79 -96 102q-8 7 -51 28q-7 4 -22 12q-6 22 -6 32q0 24 5 32q5 4 13 5q16 -2 23 -2l29 1l15 -2l52 -3q76 0 191 7h109q2 -15 2 -25q0 -13 -8 -34q-43 -14 -61 -29
l-4 -10q0 -8 12 -20l161 -173l141 169q17 25 17 36v7q-23 15 -87 25q-4 21 -4 38v16h18q18 0 63 -5q68 -1 115 -4q15 0 41 4q37 5 45 5l18 -1h43v-15q0 -17 -6 -36q-16 -9 -44 -17q-67 -19 -92 -35q-9 -6 -63 -61q-106 -110 -157 -172l180 -207q106 -130 136 -160
q24 -23 65 -50q6 -13 6 -31v-29q-22 0 -39 1q-130 8 -187 8q-12 0 -44 -3h-32q-73 -8 -119 -8l-13 1q-2 19 -2 28q0 7 1 20q26 16 53 28q15 8 33 20q-3 22 -10 33q-11 17 -45 51q-11 9 -71 82q-24 28 -55 58q-120 -111 -150 -152q-19 -27 -19 -48q0 -17 11.5 -31t39.5 -24
q19 -6 32 -12l13 -5q2 -10 2 -15q0 -11 -7 -31q-15 0 -43 4q-44 5 -98 5q-76 0 -151 -6q-50 -3 -75 -4q-1 18 -1 27v18z" />
    <glyph glyph-name="y" unicode="y" horiz-adv-x="960" 
d="M-15 812q35 6 58 6q12 0 27 -1q91 -6 148 -6h52l142 8q8 -6 14 -13q-3 -44 -5 -56q-15 -3 -23 -4q-23 -3 -34 -5.5t-24 -4.5q-15 -4 -17 -14q6 -24 12 -40l48 -98q57 -140 117 -258l56 -115q6 12 77 197q85 219 92 247q4 15 4 26q0 10 -6 33q-22 16 -36 20.5t-65 10.5
l-32 8l-3 14q-1 10 -1 15q0 8 3 26q30 2 43 2l81 -5l54 -2q34 0 118 10q52 6 78 7q2 -25 2 -38q0 -6 -1 -18q-18 -9 -40 -14q-36 -9 -63 -17q-15 -12 -20 -20q-17 -38 -69 -166l-72 -193l-167 -398l-115 -264q-38 -76 -89 -131q-19 -21 -44 -32q-41 -16 -93 -16q-5 0 -55 7
q-41 10 -71 43q-21 24 -21 51q0 55 47 102q42 26 62 26q45 0 105 -47q28 -23 45 -23t27 19q87 169 112 240l-185 407q-104 245 -159 343q-28 50 -39.5 59t-35.5 16q-13 3 -30 12q-5 23 -9 44z" />
    <glyph glyph-name="z" unicode="z" horiz-adv-x="960" 
d="M579 740q-52 2 -131 2q-138 0 -183 -23q-67 -34 -108 -108l-29 -39l-67 2q1 17 10 42q22 55 68 214q15 54 29 87h21q13 0 39 -1q5 -20 6 -44q0 -32 10 -53l12 -5l51 -3l559 11q5 -24 5 -37q0 -5 -1 -19q-140 -170 -167 -207q-142 -196 -310 -409l-20 -23l-34 -40l35 -2
q65 0 229 21q64 8 83 21q24 16 100 141q14 24 23 37l64 -1l-10 -84q-4 -36 -6 -57t-7.5 -52t-9.5 -71q-1 -17 -3 -32l-418 2l-321 -1l-37 1v57q21 29 35 47l188 232l157 206q77 100 138 188z" />
    <glyph glyph-name="braceleft" unicode="{" horiz-adv-x="811" 
d="M720 1387v-45q-100 -19 -147.5 -70.5t-47.5 -117.5q0 -67 24 -166.5t24 -173.5q0 -68 -40.5 -138.5t-116.5 -120.5q-53 -35 -169 -66q124 -39 180 -77q74 -51 111 -120t37 -131q0 -60 -24.5 -160t-24.5 -174q0 -71 45.5 -122.5t148.5 -71.5v-47h-35q-177 0 -293 121
q-85 89 -85 196q0 69 31 189q23 89 23 159q0 79 -50 134.5t-146 71.5v61q96 16 146 74t50 141q0 68 -22 153q-31 119 -31 181q0 65 39 132t98 109t129 61q54 15 146 18z" />
    <glyph glyph-name="bar" unicode="|" horiz-adv-x="1109" 
d="M475 1320h159v-1830h-159v1830z" />
    <glyph glyph-name="braceright" unicode="}" horiz-adv-x="811" 
d="M91 -414v46q99 19 147 70.5t48 117.5t-24 165.5t-24 173.5q0 69 40 139.5t117 120.5q53 34 169 66q-124 39 -180 77q-75 51 -112 120t-37 131q0 60 24.5 160t24.5 173q0 72 -45 123t-148 72v46l35 1q177 0 293 -121q85 -89 85 -197q0 -68 -31 -188q-23 -89 -23 -159
q0 -79 49.5 -135t146.5 -71v-61q-97 -16 -146.5 -74t-49.5 -141q0 -68 22 -153q30 -119 30 -181q0 -66 -38.5 -132.5t-97.5 -108.5t-129 -61q-54 -15 -146 -19z" />
    <glyph glyph-name="asciitilde" unicode="~" horiz-adv-x="1365" 
d="M1170 812h58q-6 -158 -82.5 -241t-187.5 -83q-53 0 -112 17t-263 103q-146 61 -210 61q-70 0 -116 -42.5t-61 -136.5h-58q8 165 82 244t178 79q54 0 105 -14q100 -28 263 -98.5t227 -70.5q71 0 119 46.5t58 135.5z" />
    <glyph glyph-name="nbspace" unicode="&#xa0;" horiz-adv-x="512" 
 />
    <glyph glyph-name="exclamdown" unicode="&#xa1;" horiz-adv-x="533" 
d="M120 713q0 58 31 91q51 55 112 55q59 0 102 -44.5t43 -108.5q0 -53 -45 -96t-102 -43q-59 0 -100 41t-41 105zM227 448q38 3 78 3l71 -501q24 -167 24 -286q0 -81 -34.5 -116.5t-111.5 -35.5q-54 0 -91.5 40t-37.5 113q0 68 19 218q52 408 83 565z" />
    <glyph glyph-name="cent" unicode="&#xa2;" horiz-adv-x="960" 
d="M605 857l120 340l67 1q-4 -14 -110 -320q-4 -11 -8 -25q16 -5 38 -8q78 -12 121.5 -58.5t43.5 -94.5q0 -49 -28 -78t-72 -29q-49 0 -88 40q-23 24 -49 88q-2 7 -8 20l-200 -557q75 -52 158 -52q78 0 129.5 30.5t109.5 110.5q36 -10 64 -36q-28 -98 -131.5 -170
t-251.5 -72q-70 0 -139 16l-124 -352l-67 -2l131 372q-107 59 -142 94q-57 57 -84.5 134t-27.5 154q0 85 41.5 179.5t124.5 162t192 95.5q59 16 190 17zM343 269q12 -19 37 -48l197 559q-24 10 -50 10q-93 0 -166.5 -80.5t-73.5 -225.5q0 -128 56 -215z" />
    <glyph glyph-name="sterling" unicode="&#xa3;" horiz-adv-x="1387" 
d="M334 -147q3 22 7.5 67t8.5 74q16 98 23 125q3 13 5 27l-12 1h-66l-160 2l-42 -3l30 116q2 5 7 14q66 10 113 14l147 4l71 330q42 171 112 322t158 243q63 65 137 95q107 42 180 42q80 0 138 -16q38 -11 72.5 -41.5t41.5 -44.5q17 -34 17 -63q0 -42 -33 -71
q-45 -41 -89 -41q-25 0 -49 12q-15 7 -40 34q-59 62 -70 76q-37 45 -81 45q-27 0 -44 -11q-28 -17 -50 -59q-12 -22 -48 -145l-48 -197q-8 -60 -10.5 -72t-11.5 -47q-24 -97 -34 -151q-57 -209 -57 -227q0 -5 1 -12q24 -3 101 -4l59 -2l29 1q61 0 111 -12q0 -23 -8 -51
q-4 -13 -8 -31q-7 -28 -13 -46q-46 -3 -72 -3l-148 -1q-9 0 -37 -5l-75 -1l-74 -152q-9 -19 -19 -37q-18 -32 -31 -62q62 14 100 14q53 0 99.5 -17t96.5 -59q76 -64 102 -96q63 -51 94 -66q18 -9 41 -9q38 0 58.5 19.5t20.5 56.5q0 34 -23 75q-42 76 -42 120q0 49 37.5 88.5
t89.5 39.5q57 0 102 -46t45 -118q0 -135 -124.5 -248.5t-303.5 -113.5q-199 0 -401 192q-28 26 -48 38q-57 -134 -91 -175q-45 -54 -109 -54q-59 0 -90 30t-31 83q0 43 50.5 101.5t157.5 96.5q16 6 30 12z" />
    <glyph glyph-name="currency" unicode="&#xa4;" horiz-adv-x="1408" 
d="M939 1053l130 131l121 -124l-129 -130q79 -124 79 -261q0 -133 -79 -257l129 -128l-121 -123l-130 128q-62 -40 -127.5 -60t-135.5 -20q-66 0 -130.5 20t-126.5 60l-128 -128l-124 123l130 128q-80 123 -80 260q0 133 80 259l-130 129l121 124l131 -131q64 40 129 60
t131 20q67 0 132 -20t128 -60zM679 959q-120 0 -204.5 -84t-84.5 -204t84.5 -204.5t204.5 -84.5t204 84.5t84 204.5t-84 204t-204 84z" />
    <glyph glyph-name="yen" unicode="&#xa5;" horiz-adv-x="1344" 
d="M828 388q254 0 391 -2v-94l-230 -5l-160 1l3 -173q4 -8 11 -11q14 -4 64 -10q96 -10 107 -17q8 -5 8 -20q0 -9 -2 -24q0 -9 -1 -28l-115 2l-107 9l-74 5l-111 -4h-83q-14 1 -45 -4q-50 -8 -75 -8l-69 1q-1 21 -1 32t1 33l184 38q12 4 23 10q1 51 1 78q0 28 -1 93l-406 2
v94q53 -3 59 -3l346 5l-2 62v25q0 35 -17 67q-260 0 -386 -2v94l62 3h63l187 13l-10 13l-196 298l-92 148q-5 8 -62 82q-18 16 -35 22q-10 4 -91 21q-5 9 -5 16q0 6 1 15.5t2 28.5q27 8 125 8l10 -2q25 -4 35 -4l10 1q15 -2 82 -7q124 -9 197 -9q80 0 157 11q11 2 16 2l8 -1
q5 -13 5 -20l-1 -52q-23 -9 -55 -14l-45 -8q-25 -5 -67 -11l-6 -4l-2 -13q33 -71 140 -221q28 -48 56 -90q8 -11 57 -93q6 -9 11 -18q9 -14 18 -27q17 -25 22 -33q19 -31 35 -48l115 160q41 54 125 182l85 151q20 29 20 43q0 5 -3 17q-15 10 -25 12q-4 2 -42 4q-21 4 -40 7
t-31 6q-2 13 -6 74l205 -11q9 -1 25 -4h48l17 1q32 5 83 8q15 1 29 3l-1 -75l-13 -4q-84 -14 -115 -37q-45 -34 -121 -164q-12 -16 -92 -139q-9 -14 -164 -235l206 -3l106 1q16 0 35 -4v-94q-147 0 -387 5v-13l-1 -81v-26q-2 -20 -3 -37z" />
    <glyph glyph-name="brokenbar" unicode="&#xa6;" horiz-adv-x="1109" 
d="M475 1320h159v-726h-159v726zM475 216h159v-726h-159v726z" />
    <glyph glyph-name="section" unicode="&#xa7;" horiz-adv-x="1024" 
d="M555 -390q35 0 67.5 35.5t32.5 91.5q0 33 -22.5 89.5t-49.5 89.5l-250 337q-130 170 -165.5 238t-59.5 157t-24 181q0 37 5 66q2 10 34 129q10 29 45 88q21 36 67 81.5t96.5 73t126.5 46.5q55 13 124 13q177 0 260 -58q59 -41 59 -103q0 -58 -36.5 -97t-78.5 -39
q-40 0 -81 19t-114.5 83.5t-88.5 72.5q-26 14 -47 14q-32 0 -59.5 -29t-27.5 -68t12 -75q15 -47 58.5 -119t72.5 -105.5t219 -283.5l89 -134q41 -60 67 -123q38 -95 50.5 -158.5t12.5 -134.5q0 -45 -24 -116q-35 -102 -55 -133q-54 -85 -127 -140.5t-131 -70.5
q-94 -23 -149 -23q-188 0 -286 67q-59 41 -59 111q0 50 38 88.5t85 38.5q97 0 210 -127q15 -14 25 -26q46 -47 79 -47zM711 -337q51 32 91 122t40 203q0 62 -12 105t-50.5 121t-93.5 156l-122 172q-125 160 -155 209q-51 84 -62 108q-42 85 -59 135q13 136 14 148
q-58 -44 -87 -113t-29 -164q0 -97 27 -166q49 -126 128 -235q154 -211 173 -234q120 -148 165 -230q28 -52 43 -110t15 -120q0 -43 -16 -79q-6 -15 -10 -28z" />
    <glyph glyph-name="dieresis" unicode="&#xa8;" horiz-adv-x="683" 
d="M407 1119q0 57 35.5 93.5t87.5 36.5t88 -36.5t36 -87.5q0 -52 -36 -88t-88 -36q-50 0 -86.5 36t-36.5 82zM198 1249q47 0 82.5 -37t35.5 -88t-36 -87.5t-88 -36.5t-87.5 36t-35.5 88q0 51 36 88t84 37h9z" />
    <glyph glyph-name="copyright" unicode="&#xa9;" horiz-adv-x="1536" 
d="M768 1387q179 0 349 -91.5t265.5 -262t95.5 -355.5q0 -184 -94 -353t-263 -262.5t-353 -93.5t-352.5 93.5t-262.5 262.5t-94 353q0 185 95.5 355.5t265.5 262t348 91.5zM768 1298q-156 0 -304.5 -80t-232 -229.5t-83.5 -310.5t82 -308.5t230 -229.5t308 -82
q161 0 308.5 82t229.5 229.5t82 308.5t-83 310.5t-231.5 229.5t-305.5 80zM1103 1106v-264h-38q-20 101 -87.5 158.5t-158.5 57.5q-110 0 -184 -87.5t-74 -276.5q0 -202 72.5 -288t180.5 -86q148 0 261 138v-70q-121 -127 -318 -127q-188 0 -304.5 113.5t-116.5 293.5
q0 191 125 315t315 124q86 0 197 -40q32 -12 46 -12q18 0 30.5 12t15.5 39h38z" />
    <glyph glyph-name="ordfeminine" unicode="&#xaa;" horiz-adv-x="619" 
d="M582 937l15 -4q7 -6 17 -11q5 -4 7 -15q-17 -55 -43.5 -77t-70.5 -22q-76 0 -117 73q-35 -38 -83 -57t-110 -19q-77 0 -111.5 28t-34.5 71q0 57 59 97.5t256 108.5q2 24 2 54q0 66 -18 90q-12 18 -40 18q-40 0 -69 -21q-19 -14 -25 -45q-8 -42 -16 -52t-44 -24
q-67 -26 -87 -28l-13 5q-9 10 -9 23q0 44 34 82q55 61 139 91q56 20 151 20q50 0 95 -23q35 -17 49.5 -51t14.5 -128l-1 -96q0 -20 0.5 -37t0.5 -31q0 -5 -1 -11v-6q0 -22 6 -33l8 -6q5 0 15.5 16t23.5 20zM366 1054q-86 -38 -111 -65t-25 -62q0 -23 13 -37t31 -14
q27 0 53.5 16.5t34.5 38.5q6 14 6 79q0 28 -2 44z" />
    <glyph glyph-name="guillemotleft" unicode="&#xab;" horiz-adv-x="939" 
d="M5 418l179 187q138 147 201 208q71 -2 110 -4q-29 -64 -127 -223l-97 -166q54 -80 147 -248l67 -122q4 -8 11 -23l-21 -2l-33 1l-50 -1q-231 225 -387 393zM424 417q13 16 235 259q70 77 120 136h20q26 0 78 -2q-9 -24 -18 -41l-157 -325q-5 -15 -8 -25l86 -167
q17 -33 27 -55q23 -53 38 -82q21 -42 37 -88q-44 -1 -54 -1q-17 0 -45 1l-146 163z" />
    <glyph glyph-name="logicalnot" unicode="&#xac;" horiz-adv-x="1365" 
d="M135 990h1096v-644h-157v487h-939v157z" />
    <glyph glyph-name="sfthyphen" unicode="&#xad;" horiz-adv-x="683" 
d="M76 514h315l160 2q33 0 61 -4q3 -47 6 -70l1 -17l-4 -52q-1 -12 -1 -30v-18l-542 -1q-1 29 -1 44q0 25 2 56q1 16 1 23l-1 50z" />
    <glyph glyph-name="registered" unicode="&#xae;" horiz-adv-x="1536" 
d="M768 1387q179 0 349 -91.5t265.5 -262t95.5 -355.5q0 -184 -94 -353t-263 -262.5t-353 -93.5t-352.5 93.5t-262.5 262.5t-94 353q0 185 95.5 355.5t265.5 262t348 91.5zM768 1298q-156 0 -304.5 -80t-232 -229.5t-83.5 -310.5t82 -308.5t230 -229.5t308 -82
q161 0 308.5 82t229.5 229.5t82 308.5t-83 310.5t-231.5 229.5t-305.5 80zM389 1090h362q183 0 254 -44q101 -63 101 -175q0 -71 -44.5 -126.5t-134.5 -80.5l137 -250q30 -54 62 -81q15 -13 43 -18v-34h-242l-205 368h-46v-198q0 -85 22.5 -109t97.5 -27v-34h-423v34
q62 0 80 21q25 29 25 115v472q0 82 -17.5 104.5t-71.5 28.5v34zM676 700q34 -5 56 -5q66 0 112.5 49t46.5 131q0 84 -43.5 127.5t-133.5 43.5h-38v-346z" />
    <glyph glyph-name="overscore" unicode="&#xaf;" horiz-adv-x="1024" 
d="M-12 1501h1048v-103h-1048v103z" />
    <glyph glyph-name="degree" unicode="&#xb0;" horiz-adv-x="811" 
d="M405 1384q144 0 245 -101t101 -245q0 -143 -101.5 -244.5t-244.5 -101.5t-244.5 101.5t-101.5 244.5q0 144 101 245t245 101zM405 1254q-90 0 -152.5 -63t-62.5 -152t63 -152t152 -63t152 63t63 152t-63 152t-152 63z" />
    <glyph glyph-name="plusminus" unicode="&#xb1;" horiz-adv-x="1365" 
d="M134 916h468v470h158v-470h471v-157h-471v-469h-158v469h-468v157zM134 108h1097v-157h-1097v157z" />
    <glyph glyph-name="twosuperior" unicode="&#xb2;" horiz-adv-x="640" 
d="M563 636h-51l-83 1l-44 -1l-62 2q-10 0 -43 -1q-19 -1 -26 -1l-61 1l-95 -1h-50v42q85 94 131 134q25 21 58 57l92 99q29 36 44.5 76t15.5 67q0 63 -31 94.5t-85 31.5q-52 0 -86.5 -33t-41.5 -100h-66q-3 26 -3 43q0 62 67 117.5t183 55.5q112 0 173.5 -55t61.5 -130
q0 -57 -44 -115t-306 -268l35 -1l116 2l61 -1q46 -1 63 10q11 7 24 41q3 8 11 25q9 2 53 3q6 -1 15 -6v-14q0 -25 -26 -175z" />
    <glyph glyph-name="threesuperior" unicode="&#xb3;" horiz-adv-x="640" 
d="M232 941l-40 42q112 70 147 111q22 26 22 57q0 29 -23 51.5t-54 22.5q-67 0 -127 -80l-55 26q39 72 78 100q69 49 156 49q93 0 137.5 -37t44.5 -87q0 -37 -24 -71.5t-93 -79.5q85 -12 131 -61.5t46 -112.5q0 -104 -85 -177.5t-242 -73.5q-116 0 -173 36q-36 23 -36 50
q0 21 19.5 38t53.5 17q53 0 100 -56q27 -33 67 -33q27 0 57.5 18t48.5 59.5t18 94.5q0 57 -31 90.5t-68 33.5q-29 0 -75 -27z" />
    <glyph glyph-name="acute" unicode="&#xb4;" horiz-adv-x="683" 
d="M235 959q31 110 102 321l274 -3l-301 -319q-37 -1 -44 -1q-14 0 -31 2z" />
    <glyph glyph-name="mu1" unicode="&#xb5;" horiz-adv-x="939" 
d="M110 822h215v-518q0 -135 15 -167q23 -49 73 -49q44 0 84 28t76 83v623h215v-575q0 -110 16 -137q12 -21 29 -21q15 0 28 18q22 30 31 97h36q-5 -113 -60.5 -170.5t-136.5 -57.5q-59 0 -99 35t-56 115q-70 -80 -132.5 -115t-130.5 -35q-38 0 -63.5 11.5t-66.5 49.5v-26
q0 -64 26 -172q19 -82 19 -117q0 -47 -26.5 -75.5t-66.5 -28.5q-36 0 -59.5 25.5t-23.5 70.5q0 41 22.5 131.5t27.5 129.5q9 69 9 156l-1 64v627z" />
    <glyph glyph-name="paragraph" unicode="&#xb6;" horiz-adv-x="1109" 
d="M639 1280v-1722h-100v871q-186 8 -301.5 62t-176 164.5t-60.5 247.5q0 158 82 269t192 147.5t394 36.5h440v-44h-44q-64 0 -95 -21.5t-43 -57.5q-7 -23 -7 -124v-1551h-99v1722h-182z" />
    <glyph glyph-name="middot" unicode="&#xb7;" horiz-adv-x="683" 
d="M704 808q63 0 106.5 -39.5t43.5 -91.5q0 -67 -27 -99q-48 -58 -116 -58q-64 0 -105 41.5t-41 103.5q0 41 20 75q15 25 60 55q18 13 59 13z" />
    <glyph glyph-name="cedilla" unicode="&#xb8;" horiz-adv-x="683" 
d="M464 16h108q-16 -19 -45.5 -48.5t-29.5 -35.5q0 -7 11 -19q58 -61 73 -91.5t15 -72.5q0 -103 -94 -160t-207 -57q-106 0 -171 40q-34 21 -34 48q0 26 32.5 57t62.5 31q13 0 30 -8t73.5 -46.5t93.5 -38.5q35 0 54.5 17.5t19.5 42.5q0 31 -28 61t-116 59q-20 7 -29 16
q-6 6 -6 12q0 25 61 68q46 33 126 125z" />
    <glyph glyph-name="onesuperior" unicode="&#xb9;" horiz-adv-x="640" 
d="M307 1321q42 1 48 1l66 -1q4 -26 4 -38l-2 -32v-37l-2 -68l1 -51l-4 -345q0 -40 4 -44q7 -9 37 -12q15 -1 67 -10q3 -16 3 -25q0 -7 -2 -20q-65 0 -113 2q-34 1 -41 1q-113 -3 -123 -3l-27 1l-14 -1l-27 1l-39 -2q-1 16 -1 24q0 7 1 21q52 12 66 14q34 4 42.5 11.5
t8.5 27.5v31l2 32l-1 99q0 13 1 29l1 13l-2 56l2 25q-2 32 -2 38q0 8 2 42v93q-61 -38 -142 -69q-7 10 -11 14q-14 18 -21 35q81 37 123 65q58 41 95 82z" />
    <glyph glyph-name="ordmasculine" unicode="&#xba;" horiz-adv-x="683" 
d="M648 1075q0 -123 -80.5 -200t-220.5 -77t-239 88q-72 63 -72 183q0 107 83.5 182.5t225.5 75.5q139 0 221 -76t82 -176zM216 1044q8 -86 16 -111q13 -42 41 -62t75 -20q66 0 93 58.5t27 175.5q0 102 -40 152q-30 37 -89 37q-45 0 -73.5 -25t-40.5 -74q-7 -31 -9 -131z
" />
    <glyph glyph-name="guillemotright" unicode="&#xbb;" horiz-adv-x="939" 
d="M645 416q-45 66 -164 281q-52 93 -61 115l13 1q45 0 96 -2q5 -6 188 -190q129 -130 193 -205l-239 -249q-24 -25 -142 -142l-109 3q35 69 47 90l108 179zM35 812q39 1 48 1q22 0 51 -2l119 -134l238 -258q-32 -39 -228 -249q-62 -66 -129 -144l-97 3l185 388
q-153 288 -187 395z" />
    <glyph glyph-name="onequarter" unicode="&#xbc;" horiz-adv-x="1707" 
d="M313 1321q42 1 48 1l66 -1q4 -26 4 -38l-2 -32v-37l-2 -68l1 -51l-4 -345q0 -40 4 -44q7 -9 37 -12q15 -1 67 -10q3 -16 3 -25q0 -7 -2 -20q-65 0 -113 2q-34 1 -41 1q-113 -3 -123 -3l-27 1l-14 -1l-27 1l-39 -2q-1 16 -1 24q0 7 1 21q52 12 66 14q34 4 42.5 11.5
t8.5 27.5v31l2 32l-1 99q0 13 1 29l1 13l-2 56l2 25q-2 32 -2 38q0 8 2 42v93q-61 -38 -142 -69q-7 10 -11 14q-14 18 -21 35q81 37 123 65q58 41 95 82zM373 -26q218 320 887 1362l13 3l90 -4l11 1l-889 -1362q-19 -1 -29 0l-60 3zM1647 264v-99q-32 -1 -52 -1h-42v-92
q0 -6 -2 -33q-1 -16 -1 -47h-41l-64 1q-12 0 -43 -4l1 110q0 32 -2 65h-106l-141 2q-13 0 -39 -2q-1 25 -1 37l1 49q18 30 96.5 137.5t136 174.5t101.5 127l27 1q19 1 28 1q15 0 52 -2q2 -14 2 -19l-2 -32q-1 -9 -1 -18q0 -8 1 -16l1 -20l-2 -73v-166l-1 -82l54 -1
q14 0 39 2zM1403 264l3 32l-2 40l1 37l-1 38l2 119q-31 -34 -114 -146q-7 -9 -16 -23q-14 -20 -29 -40q-22 -28 -38 -55l143 -1q18 -1 30 -1h21z" />
    <glyph glyph-name="onehalf" unicode="&#xbd;" horiz-adv-x="1707" 
d="M314 1321q42 1 48 1l66 -1q4 -26 4 -38l-2 -32v-37l-2 -68l1 -51l-4 -345q0 -40 4 -44q7 -9 37 -12q15 -1 67 -10q3 -16 3 -25q0 -7 -2 -20q-65 0 -113 2q-34 1 -41 1q-113 -3 -123 -3l-27 1l-14 -1l-27 1l-39 -2q-1 16 -1 24q0 7 1 21q52 12 66 14q34 4 42.5 11.5
t8.5 27.5v31l2 32l-1 99q0 13 1 29l1 13l-2 56l2 25q-2 32 -2 38q0 8 2 42v93q-61 -38 -142 -69q-7 10 -11 14q-14 18 -21 35q81 37 123 65q58 41 95 82zM374 -26q218 320 887 1362l13 3l90 -4l11 1l-889 -1362q-19 -1 -29 0l-60 3zM1624 -2h-51l-83 1l-44 -1l-62 2
q-10 0 -43 -1q-19 -1 -26 -1l-61 1l-95 -1h-50v42q85 94 131 134q25 21 58 57l92 99q29 36 44.5 76t15.5 67q0 63 -31 94.5t-85 31.5q-52 0 -86.5 -33t-41.5 -100h-66q-3 26 -3 43q0 62 67 117.5t183 55.5q112 0 173.5 -55t61.5 -130q0 -57 -44 -115t-306 -268l35 -1l116 2
l61 -1q46 -1 63 10q11 7 24 41q3 8 11 25q9 2 53 3q6 -1 15 -6v-14q0 -25 -26 -175z" />
    <glyph glyph-name="threequarters" unicode="&#xbe;" horiz-adv-x="1707" 
d="M238 941l-40 42q112 70 147 111q22 26 22 57q0 29 -23 51.5t-54 22.5q-67 0 -127 -80l-55 26q39 72 78 100q69 49 156 49q93 0 137.5 -37t44.5 -87q0 -37 -24 -71.5t-93 -79.5q85 -12 131 -61.5t46 -112.5q0 -104 -85 -177.5t-242 -73.5q-116 0 -173 36q-36 23 -36 50
q0 21 19.5 38t53.5 17q53 0 100 -56q27 -33 67 -33q27 0 57.5 18t48.5 59.5t18 94.5q0 57 -31 90.5t-68 33.5q-29 0 -75 -27zM373 -26q218 320 887 1362l13 3l90 -4l11 1l-889 -1362q-19 -1 -29 0l-60 3zM1648 264v-99q-32 -1 -52 -1h-42v-92q0 -6 -2 -33q-1 -16 -1 -47h-41
l-64 1q-12 0 -43 -4l1 110q0 32 -2 65h-106l-141 2q-13 0 -39 -2q-1 25 -1 37l1 49q18 30 96.5 137.5t136 174.5t101.5 127l27 1q19 1 28 1q15 0 52 -2q2 -14 2 -19l-2 -32q-1 -9 -1 -18q0 -8 1 -16l1 -20l-2 -73v-166l-1 -82l54 -1q14 0 39 2zM1404 264l3 32l-2 40l1 37
l-1 38l2 119q-31 -34 -114 -146q-7 -9 -16 -23q-14 -20 -29 -40q-22 -28 -38 -55l143 -1q18 -1 30 -1h21z" />
    <glyph glyph-name="questiondown" unicode="&#xbf;" horiz-adv-x="853" 
d="M426 716q0 64 41.5 105.5t101.5 41.5q61 0 104 -42.5t43 -102.5t-42.5 -101t-107.5 -41q-61 0 -100.5 41t-39.5 99zM531 451q33 2 63 2h29l8 -3q4 -24 9 -102q8 -112 21 -186q4 -20 4 -45q0 -23 -16 -30q-28 -12 -66 -12l-124 1q-72 0 -133 -14t-94.5 -56t-33.5 -110
q0 -72 61.5 -133t134.5 -61q26 0 46 4q10 2 69.5 23t70.5 23q24 5 55 5q61 0 91 -28.5t30 -81.5q0 -63 -42 -100t-138 -37q-174 0 -315 109q-173 134 -173 366q0 83 27 150t70 108t100 64q38 15 132 33q59 11 65 14q21 10 29 22q10 16 16 57q1 6 4 18z" />
    <glyph glyph-name="Agrave" unicode="&#xc0;" horiz-adv-x="1344" 
d="M-26 7l2 68q19 6 67 15q77 15 93.5 27t40.5 58l202 529l237 622q33 -1 63 -1h45l9 -18l174 -412q59 -131 106 -254.5t81 -201.5q20 -47 55 -141q18 -51 55 -128q20 -42 30 -49q18 -15 58.5 -20t87.5 -23q5 -33 5 -49q0 -7 -1 -22q-74 0 -163 7t-160 7q-79 0 -114 -2
l-170 -9l-49 -2q0 35 3 67l111 24q50 13 58 20q10 10 10 23t-5 27l-40 98l-79 196l-382 1q-21 -48 -87 -235q-19 -53 -19 -72q0 -26 14 -37q23 -19 88 -27q9 -2 71 -11q1 -36 1 -50q0 -11 -2 -23q-62 0 -296 17l-41 -7q-74 -12 -141 -12h-18zM444 569q234 -3 276 -3l25 1
q-30 89 -78 207.5t-78 180.5zM452 1716h273q10 -27 21 -60q14 -47 26 -83q46 -135 56 -178l-79 3z" />
    <glyph glyph-name="Aacute" unicode="&#xc1;" horiz-adv-x="1344" 
d="M-26 7l2 68q19 6 67 15q77 15 93.5 27t40.5 58l202 529l237 622q33 -1 63 -1h45l9 -18l174 -412q59 -131 106 -254.5t81 -201.5q20 -47 55 -141q18 -51 55 -128q20 -42 30 -49q18 -15 58.5 -20t87.5 -23q5 -33 5 -49q0 -7 -1 -22q-74 0 -163 7t-160 7q-79 0 -114 -2
l-170 -9l-49 -2q0 35 3 67l111 24q50 13 58 20q10 10 10 23t-5 27l-40 98l-79 196l-382 1q-21 -48 -87 -235q-19 -53 -19 -72q0 -26 14 -37q23 -19 88 -27q9 -2 71 -11q1 -36 1 -50q0 -11 -2 -23q-62 0 -296 17l-41 -7q-74 -12 -141 -12h-18zM444 569q234 -3 276 -3l25 1
q-30 89 -78 207.5t-78 180.5zM566 1395q31 110 102 321l274 -3l-301 -319q-37 -1 -44 -1q-14 0 -31 2z" />
    <glyph glyph-name="Acircumflex" unicode="&#xc2;" horiz-adv-x="1344" 
d="M-26 7l2 68q19 6 67 15q77 15 93.5 27t40.5 58l202 529l237 622q33 -1 63 -1h45l9 -18l174 -412q59 -131 106 -254.5t81 -201.5q20 -47 55 -141q18 -51 55 -128q20 -42 30 -49q18 -15 58.5 -20t87.5 -23q5 -33 5 -49q0 -7 -1 -22q-74 0 -163 7t-160 7q-79 0 -114 -2
l-170 -9l-49 -2q0 35 3 67l111 24q50 13 58 20q10 10 10 23t-5 27l-40 98l-79 196l-382 1q-21 -48 -87 -235q-19 -53 -19 -72q0 -26 14 -37q23 -19 88 -27q9 -2 71 -11q1 -36 1 -50q0 -11 -2 -23q-62 0 -296 17l-41 -7q-74 -12 -141 -12h-18zM444 569q234 -3 276 -3l25 1
q-30 89 -78 207.5t-78 180.5zM397 1384l193 349q20 1 38 1l176 -1q44 -78 105 -194l83 -159l-78 -1l-218 192q-29 -21 -84.5 -72t-135.5 -118z" />
    <glyph glyph-name="Atilde" unicode="&#xc3;" horiz-adv-x="1344" 
d="M-26 7l2 68q19 6 67 15q77 15 93.5 27t40.5 58l202 529l237 622q33 -1 63 -1h45l9 -18l174 -412q59 -131 106 -254.5t81 -201.5q20 -47 55 -141q18 -51 55 -128q20 -42 30 -49q18 -15 58.5 -20t87.5 -23q5 -33 5 -49q0 -7 -1 -22q-74 0 -163 7t-160 7q-79 0 -114 -2
l-170 -9l-49 -2q0 35 3 67l111 24q50 13 58 20q10 10 10 23t-5 27l-40 98l-79 196l-382 1q-21 -48 -87 -235q-19 -53 -19 -72q0 -26 14 -37q23 -19 88 -27q9 -2 71 -11q1 -36 1 -50q0 -11 -2 -23q-62 0 -296 17l-41 -7q-74 -12 -141 -12h-18zM444 569q234 -3 276 -3l25 1
q-30 89 -78 207.5t-78 180.5zM958 1696h30q10 0 28 -1q-1 -128 -62 -195.5t-147 -67.5q-40 0 -80 10q-27 7 -102.5 38t-85.5 33q-19 5 -40 5q-35 0 -54.5 -17t-32.5 -67l-59 -1q1 8 1 37q2 95 64 159.5t140 64.5q39 0 75 -9t105.5 -38t88.5 -34q27 -6 50 -6q30 0 49 17
t32 72z" />
    <glyph glyph-name="Adieresis" unicode="&#xc4;" horiz-adv-x="1344" 
d="M-26 7l2 68q19 6 67 15q77 15 93.5 27t40.5 58l202 529l237 622q33 -1 63 -1h45l9 -18l174 -412q59 -131 106 -254.5t81 -201.5q20 -47 55 -141q18 -51 55 -128q20 -42 30 -49q18 -15 58.5 -20t87.5 -23q5 -33 5 -49q0 -7 -1 -22q-74 0 -163 7t-160 7q-79 0 -114 -2
l-170 -9l-49 -2q0 35 3 67l111 24q50 13 58 20q10 10 10 23t-5 27l-40 98l-79 196l-382 1q-21 -48 -87 -235q-19 -53 -19 -72q0 -26 14 -37q23 -19 88 -27q9 -2 71 -11q1 -36 1 -50q0 -11 -2 -23q-62 0 -296 17l-41 -7q-74 -12 -141 -12h-18zM444 569q234 -3 276 -3l25 1
q-30 89 -78 207.5t-78 180.5zM698 1555q0 57 35.5 93.5t87.5 36.5t88 -36.5t36 -87.5q0 -52 -36 -88t-88 -36q-50 0 -86.5 36t-36.5 82zM489 1685q47 0 82.5 -37t35.5 -88t-36 -87.5t-88 -36.5t-87.5 36t-35.5 88q0 51 36 88t84 37h9z" />
    <glyph glyph-name="Aring" unicode="&#xc5;" horiz-adv-x="1344" 
d="M-26 7l2 68q19 6 67 15q77 15 93.5 27t40.5 58l202 529l237 622q33 -1 63 -1h45l9 -18l174 -412q59 -131 106 -254.5t81 -201.5q20 -47 55 -141q18 -51 55 -128q20 -42 30 -49q18 -15 58.5 -20t87.5 -23q5 -33 5 -49q0 -7 -1 -22q-74 0 -163 7t-160 7q-79 0 -114 -2
l-170 -9l-49 -2q0 35 3 67l111 24q50 13 58 20q10 10 10 23t-5 27l-40 98l-79 196l-382 1q-21 -48 -87 -235q-19 -53 -19 -72q0 -26 14 -37q23 -19 88 -27q9 -2 71 -11q1 -36 1 -50q0 -11 -2 -23q-62 0 -296 17l-41 -7q-74 -12 -141 -12h-18zM444 569q234 -3 276 -3l25 1
q-30 89 -78 207.5t-78 180.5zM506 1477q0 69 48 118t117 49q70 0 118.5 -48.5t48.5 -117.5t-48.5 -118t-118.5 -49q-67 0 -116 49.5t-49 116.5zM671 1388q38 0 64.5 26.5t26.5 63.5t-26.5 63.5t-62.5 26.5q-38 0 -64.5 -26t-26.5 -64q0 -37 26 -63.5t63 -26.5z" />
    <glyph glyph-name="AE" unicode="&#xc6;" horiz-adv-x="1877" 
d="M-92 53q16 9 53 23q82 33 101 58q24 34 203 394l225 445l90 185q14 35 14 42l-3 11q-11 8 -23 8l-101 -2q-21 0 -57 8q-1 17 -1 26q0 13 3 41q32 3 68 3q53 0 154 -5q78 -4 107 -4q20 0 38 1l83 2l376 4l243 5q108 0 152 -2l19 -180q15 -111 17 -138h-82q-55 125 -71 150
q-23 35 -43.5 47t-85.5 17q-123 11 -259 11q-65 0 -110 -12q-3 -27 -3 -144q0 -228 4 -338l251 5q91 2 129 17q17 7 27 23q14 20 29 96q11 52 15 69l42 1q12 0 31 -2l-2 -395l-1 -77l1 -8q-12 2 -18 2q-5 0 -18 -1q-9 -1 -17 -1q-9 0 -25 2q-18 127 -48.5 155t-220.5 28
q-104 0 -175 -2l4 -514q41 -14 61 -16q48 -6 126 -6q148 0 244.5 48t164.5 149q27 39 43 54q41 -2 52 -9q9 -5 9 -15q0 -12 -9 -52l-52 -262l-524 9q-119 2 -220 2q-98 0 -383 -11q-3 20 -3 35q0 13 2 35l180 23q20 4 25 13q9 17 9 149q0 168 -6 363l-25 1q-253 0 -316 -11
q-39 -79 -132 -289l-59 -132q-10 -27 -14 -34q-10 -19 -10 -24q0 -14 15.5 -25.5t108.5 -30.5q15 -3 49 -14l-5 -62q-134 14 -242 14q-72 0 -128 -6.5t-76 -7.5v58zM446 699q51 -4 67 -4q198 0 230 6q2 57 2 117q0 202 -7 395h-27l-186 -354q-67 -128 -79 -160z" />
    <glyph glyph-name="Ccedilla" unicode="&#xc7;" horiz-adv-x="1387" 
d="M1229 1280q13 -30 53 -171q18 -64 19 -136h-91q-96 136 -198 195.5t-228 59.5q-155 0 -250 -121q-129 -164 -129 -457q0 -170 22 -242q36 -117 91 -191q42 -56 110 -89q88 -45 188 -45q110 0 212.5 68.5t196.5 204.5q37 7 97 8q-4 -38 -13 -79q-3 -16 -23 -127l-9 -30
l-14 -47q-61 -47 -171.5 -70.5t-271.5 -23.5q-123 0 -232.5 23t-187.5 73q-114 72 -179 156t-96.5 183t-31.5 222q0 298 196.5 492t501.5 194q124 0 233.5 -12.5t204.5 -37.5zM816 16h108q-16 -19 -45.5 -48.5t-29.5 -35.5q0 -7 11 -19q58 -61 73 -91.5t15 -72.5
q0 -103 -94 -160t-207 -57q-106 0 -171 40q-34 21 -34 48q0 26 32.5 57t62.5 31q13 0 30 -8t73.5 -46.5t93.5 -38.5q35 0 54.5 17.5t19.5 42.5q0 31 -28 61t-116 59q-20 7 -29 16q-6 6 -6 12q0 25 61 68q46 33 126 125z" />
    <glyph glyph-name="Egrave" unicode="&#xc8;" 
d="M41 1301q57 -3 99 -9q79 -11 183 -11q36 0 185 6q223 9 403 9l181 2q61 0 180 -15q18 -20 18 -54v-206l2 -41q0 -6 -1 -18l-41 -2q-8 0 -34 2q-9 20 -24 59l-40 71q-23 45 -64 92q-25 7 -64 8q-10 1 -61 5q-93 8 -200 8q-122 0 -218 -4q-3 -25 -3 -197l2 -168v-126
q25 -3 43 -3q179 0 255 7t94 19.5t32 43.5q9 22 35 147l13 1l58 -1q4 -89 4 -135q0 -105 -1.5 -135t-1.5 -47q0 -27 3 -86.5t3 -88.5v-22h-71q-4 16 -15 66q-20 93 -36 116q-12 18 -40 27q-20 7 -148 7q-151 0 -227 -8q-1 -26 -1 -34q0 -119 4 -198l-2 -216q0 -38 27 -52
q41 -21 251 -21q139 0 236 21q67 15 118 67q68 67 113 188q31 3 51 3q11 0 33 -1q-3 -25 -5 -42l-6 -30l-37 -189l-18 -114q-65 -3 -103 -3q-56 0 -299 10q-171 7 -412 7q-120 0 -295 -10h-42l-121 -4v69q19 5 76 11q104 12 144 32q11 29 11 73q0 17 -1 58l1 31l-3 377
l1 113l-5 160l1 113l-9 124q0 5 -2 20q-10 11 -30 14q-11 2 -30 6q-57 12 -110 14q-19 1 -44 4zM505 1716h273q10 -27 21 -60q14 -47 26 -83q46 -135 56 -178l-79 3z" />
    <glyph glyph-name="Eacute" unicode="&#xc9;" 
d="M41 1301q57 -3 99 -9q79 -11 183 -11q36 0 185 6q223 9 403 9l181 2q61 0 180 -15q18 -20 18 -54v-206l2 -41q0 -6 -1 -18l-41 -2q-8 0 -34 2q-9 20 -24 59l-40 71q-23 45 -64 92q-25 7 -64 8q-10 1 -61 5q-93 8 -200 8q-122 0 -218 -4q-3 -25 -3 -197l2 -168v-126
q25 -3 43 -3q179 0 255 7t94 19.5t32 43.5q9 22 35 147l13 1l58 -1q4 -89 4 -135q0 -105 -1.5 -135t-1.5 -47q0 -27 3 -86.5t3 -88.5v-22h-71q-4 16 -15 66q-20 93 -36 116q-12 18 -40 27q-20 7 -148 7q-151 0 -227 -8q-1 -26 -1 -34q0 -119 4 -198l-2 -216q0 -38 27 -52
q41 -21 251 -21q139 0 236 21q67 15 118 67q68 67 113 188q31 3 51 3q11 0 33 -1q-3 -25 -5 -42l-6 -30l-37 -189l-18 -114q-65 -3 -103 -3q-56 0 -299 10q-171 7 -412 7q-120 0 -295 -10h-42l-121 -4v69q19 5 76 11q104 12 144 32q11 29 11 73q0 17 -1 58l1 31l-3 377
l1 113l-5 160l1 113l-9 124q0 5 -2 20q-10 11 -30 14q-11 2 -30 6q-57 12 -110 14q-19 1 -44 4zM619 1395q31 110 102 321l274 -3l-301 -319q-37 -1 -44 -1q-14 0 -31 2z" />
    <glyph glyph-name="Ecircumflex" unicode="&#xca;" 
d="M41 1301q57 -3 99 -9q79 -11 183 -11q36 0 185 6q223 9 403 9l181 2q61 0 180 -15q18 -20 18 -54v-206l2 -41q0 -6 -1 -18l-41 -2q-8 0 -34 2q-9 20 -24 59l-40 71q-23 45 -64 92q-25 7 -64 8q-10 1 -61 5q-93 8 -200 8q-122 0 -218 -4q-3 -25 -3 -197l2 -168v-126
q25 -3 43 -3q179 0 255 7t94 19.5t32 43.5q9 22 35 147l13 1l58 -1q4 -89 4 -135q0 -105 -1.5 -135t-1.5 -47q0 -27 3 -86.5t3 -88.5v-22h-71q-4 16 -15 66q-20 93 -36 116q-12 18 -40 27q-20 7 -148 7q-151 0 -227 -8q-1 -26 -1 -34q0 -119 4 -198l-2 -216q0 -38 27 -52
q41 -21 251 -21q139 0 236 21q67 15 118 67q68 67 113 188q31 3 51 3q11 0 33 -1q-3 -25 -5 -42l-6 -30l-37 -189l-18 -114q-65 -3 -103 -3q-56 0 -299 10q-171 7 -412 7q-120 0 -295 -10h-42l-121 -4v69q19 5 76 11q104 12 144 32q11 29 11 73q0 17 -1 58l1 31l-3 377
l1 113l-5 160l1 113l-9 124q0 5 -2 20q-10 11 -30 14q-11 2 -30 6q-57 12 -110 14q-19 1 -44 4zM450 1384l193 349q20 1 38 1l176 -1q44 -78 105 -194l83 -159l-78 -1l-218 192q-29 -21 -84.5 -72t-135.5 -118z" />
    <glyph glyph-name="Edieresis" unicode="&#xcb;" 
d="M41 1301q57 -3 99 -9q79 -11 183 -11q36 0 185 6q223 9 403 9l181 2q61 0 180 -15q18 -20 18 -54v-206l2 -41q0 -6 -1 -18l-41 -2q-8 0 -34 2q-9 20 -24 59l-40 71q-23 45 -64 92q-25 7 -64 8q-10 1 -61 5q-93 8 -200 8q-122 0 -218 -4q-3 -25 -3 -197l2 -168v-126
q25 -3 43 -3q179 0 255 7t94 19.5t32 43.5q9 22 35 147l13 1l58 -1q4 -89 4 -135q0 -105 -1.5 -135t-1.5 -47q0 -27 3 -86.5t3 -88.5v-22h-71q-4 16 -15 66q-20 93 -36 116q-12 18 -40 27q-20 7 -148 7q-151 0 -227 -8q-1 -26 -1 -34q0 -119 4 -198l-2 -216q0 -38 27 -52
q41 -21 251 -21q139 0 236 21q67 15 118 67q68 67 113 188q31 3 51 3q11 0 33 -1q-3 -25 -5 -42l-6 -30l-37 -189l-18 -114q-65 -3 -103 -3q-56 0 -299 10q-171 7 -412 7q-120 0 -295 -10h-42l-121 -4v69q19 5 76 11q104 12 144 32q11 29 11 73q0 17 -1 58l1 31l-3 377
l1 113l-5 160l1 113l-9 124q0 5 -2 20q-10 11 -30 14q-11 2 -30 6q-57 12 -110 14q-19 1 -44 4zM791 1555q0 57 35.5 93.5t87.5 36.5t88 -36.5t36 -87.5q0 -52 -36 -88t-88 -36q-50 0 -86.5 36t-36.5 82zM582 1685q47 0 82.5 -37t35.5 -88t-36 -87.5t-88 -36.5t-87.5 36
t-35.5 88q0 51 36 88t84 37h9z" />
    <glyph glyph-name="Igrave" unicode="&#xcc;" horiz-adv-x="811" 
d="M82 6v72q20 6 66 17q65 16 97 33q18 31 18 86l-1 118l2 228l-1 54q7 198 7 204l-2 133l3 54l-5 114l-1 43q-1 10 -7 32q-41 19 -133 24q-22 1 -35 3l-3 88l286 -12q53 -2 66 -2q59 0 189 8q73 5 92 6q1 -19 1 -32q0 -17 -2 -44q-40 -14 -91.5 -26.5t-84.5 -25.5
q-6 -26 -6 -75q0 -43 3 -70q-3 -169 -3 -260l1 -264l-3 -134l2 -200l-1 -38q0 -8 4 -23q61 -13 111 -18q9 -1 61 -8q4 -30 4 -50q0 -11 -1 -34q-13 0 -20 -1q-32 -2 -37 -2q-7 0 -26 3q-14 2 -133 14l-177 2q-53 0 -154 -10q-66 -6 -86 -7zM185 1716h273q10 -27 21 -60
q14 -47 26 -83q46 -135 56 -178l-79 3z" />
    <glyph glyph-name="Iacute" unicode="&#xcd;" horiz-adv-x="811" 
d="M82 6v72q20 6 66 17q65 16 97 33q18 31 18 86l-1 118l2 228l-1 54q7 198 7 204l-2 133l3 54l-5 114l-1 43q-1 10 -7 32q-41 19 -133 24q-22 1 -35 3l-3 88l286 -12q53 -2 66 -2q59 0 189 8q73 5 92 6q1 -19 1 -32q0 -17 -2 -44q-40 -14 -91.5 -26.5t-84.5 -25.5
q-6 -26 -6 -75q0 -43 3 -70q-3 -169 -3 -260l1 -264l-3 -134l2 -200l-1 -38q0 -8 4 -23q61 -13 111 -18q9 -1 61 -8q4 -30 4 -50q0 -11 -1 -34q-13 0 -20 -1q-32 -2 -37 -2q-7 0 -26 3q-14 2 -133 14l-177 2q-53 0 -154 -10q-66 -6 -86 -7zM299 1395q31 110 102 321l274 -3
l-301 -319q-37 -1 -44 -1q-14 0 -31 2z" />
    <glyph glyph-name="Icircumflex" unicode="&#xce;" horiz-adv-x="811" 
d="M82 6v72q20 6 66 17q65 16 97 33q18 31 18 86l-1 118l2 228l-1 54q7 198 7 204l-2 133l3 54l-5 114l-1 43q-1 10 -7 32q-41 19 -133 24q-22 1 -35 3l-3 88l286 -12q53 -2 66 -2q59 0 189 8q73 5 92 6q1 -19 1 -32q0 -17 -2 -44q-40 -14 -91.5 -26.5t-84.5 -25.5
q-6 -26 -6 -75q0 -43 3 -70q-3 -169 -3 -260l1 -264l-3 -134l2 -200l-1 -38q0 -8 4 -23q61 -13 111 -18q9 -1 61 -8q4 -30 4 -50q0 -11 -1 -34q-13 0 -20 -1q-32 -2 -37 -2q-7 0 -26 3q-14 2 -133 14l-177 2q-53 0 -154 -10q-66 -6 -86 -7zM130 1384l193 349q20 1 38 1
l176 -1q44 -78 105 -194l83 -159l-78 -1l-218 192q-29 -21 -84.5 -72t-135.5 -118z" />
    <glyph glyph-name="Idieresis" unicode="&#xcf;" horiz-adv-x="811" 
d="M82 6v72q20 6 66 17q65 16 97 33q18 31 18 86l-1 118l2 228l-1 54q7 198 7 204l-2 133l3 54l-5 114l-1 43q-1 10 -7 32q-41 19 -133 24q-22 1 -35 3l-3 88l286 -12q53 -2 66 -2q59 0 189 8q73 5 92 6q1 -19 1 -32q0 -17 -2 -44q-40 -14 -91.5 -26.5t-84.5 -25.5
q-6 -26 -6 -75q0 -43 3 -70q-3 -169 -3 -260l1 -264l-3 -134l2 -200l-1 -38q0 -8 4 -23q61 -13 111 -18q9 -1 61 -8q4 -30 4 -50q0 -11 -1 -34q-13 0 -20 -1q-32 -2 -37 -2q-7 0 -26 3q-14 2 -133 14l-177 2q-53 0 -154 -10q-66 -6 -86 -7zM471 1555q0 57 35.5 93.5
t87.5 36.5t88 -36.5t36 -87.5q0 -52 -36 -88t-88 -36q-50 0 -86.5 36t-36.5 82zM262 1685q47 0 82.5 -37t35.5 -88t-36 -87.5t-88 -36.5t-87.5 36t-35.5 88q0 51 36 88t84 37h9z" />
    <glyph glyph-name="Eth" unicode="&#xd0;" horiz-adv-x="1600" 
d="M264 600h-204v91h205v61l-3 166v90l-1 89l1 40q0 26 -14 40q-7 7 -39 7q-26 0 -60 -6q-44 -2 -79 -8q-6 -1 -19 -3l-1 88q59 19 169 37q182 30 448 30q222 0 325 -25q156 -39 254 -116q131 -103 196.5 -238.5t65.5 -295.5q0 -202 -88 -346.5t-253 -231.5
q-116 -62 -315 -62l-205 9l-60 3l-81 -2l-24 2l-84 -2l-111 1q-6 0 -102 -7q-32 -2 -84 -3q-32 0 -48 -1q-2 22 -2 81q15 4 62 12q91 16 121 42q19 18 25 74t6 305zM536 600l2 -123q-2 -99 -2 -114q0 -138 51 -187q74 -70 204 -70q99 0 146 19q98 38 155.5 101t87.5 178.5
t30 238.5q0 201 -64.5 329.5t-176.5 193t-257 64.5q-102 0 -176 -28q-3 -31 -3 -44l3 -170l-2 -148q3 -72 3 -149h378v-91h-379z" />
    <glyph glyph-name="Ntilde" unicode="&#xd1;" horiz-adv-x="1728" 
d="M11 1222l-4 70h85l29 1q60 3 83 3q12 0 70 -2q13 -1 22 -1t63 2t61 2q11 0 31 -1q154 -140 251 -241t708 -707v25l-4 116q-3 102 -8 161.5t-6 142t-7 149.5q-12 131 -12 151q-1 65 -14 79q-21 22 -96 33q-55 9 -82 23l1 59l26 3l197 6l220 6q22 1 42 1l1 -65
q-23 -12 -47 -18q-64 -15 -74 -21q-51 -29 -55 -35q-9 -12 -9 -37q0 -6 2 -42q1 -18 1 -84q1 -145 8 -229q2 -27 3 -61l11 -351q1 -37 1 -52v-123l3 -52l-3 -54q4 -41 4 -49v-53l-115 -4l-119 123l-243 241l-170 170l-125 128q-122 120 -222 211l-163 147l9 -372
q1 -34 1 -70l-1 -71l6 -131q3 -82 11 -178q2 -26 5 -36.5t12 -30.5q39 -14 170 -21q9 -2 26 -7l4 -81l-39 -1q-32 0 -202 15q-159 -2 -212 -6t-58 -4q-12 0 -33 4q-2 23 -2 40q0 11 1 36q28 5 46 5q6 0 39 -2q84 0 99.5 12.5t17.5 67.5q7 159 7 194v55l2 325l-3 203
q-1 116 -15 161q-6 23 -23 40q-35 36 -78 54q-26 11 -135 28zM1150 1696h30q10 0 28 -1q-1 -128 -62 -195.5t-147 -67.5q-40 0 -80 10q-27 7 -102.5 38t-85.5 33q-19 5 -40 5q-35 0 -54.5 -17t-32.5 -67l-59 -1q1 8 1 37q2 95 64 159.5t140 64.5q39 0 75 -9t105.5 -38
t88.5 -34q27 -6 50 -6q30 0 49 17t32 72z" />
    <glyph glyph-name="Ograve" unicode="&#xd2;" horiz-adv-x="1621" 
d="M90 670q0 124 48 249q35 90 98 165t158 133.5t194 84t221 25.5q208 0 361 -78t241 -211q114 -173 114 -363q0 -283 -192.5 -485t-535.5 -202q-85 0 -159 11q-56 8 -98 22q-76 25 -85 29q-109 62 -175 127t-112 147q-25 46 -57 166q-21 77 -21 180zM771 1228
q-87 0 -154 -40.5t-101 -89.5q-57 -83 -81 -181.5t-24 -239.5q0 -86 7 -123q2 -12 6 -41q9 -74 21 -108q43 -127 61 -157q30 -51 89 -101q30 -26 87 -47.5t114 -21.5q108 0 200.5 50.5t148.5 171.5t56 315q0 80 -11 217l-5 19q-3 8 -10 41q-37 164 -141.5 250t-262.5 86z
M590 1716h273q10 -27 21 -60q14 -47 26 -83q46 -135 56 -178l-79 3z" />
    <glyph glyph-name="Oacute" unicode="&#xd3;" horiz-adv-x="1621" 
d="M90 670q0 124 48 249q35 90 98 165t158 133.5t194 84t221 25.5q208 0 361 -78t241 -211q114 -173 114 -363q0 -283 -192.5 -485t-535.5 -202q-85 0 -159 11q-56 8 -98 22q-76 25 -85 29q-109 62 -175 127t-112 147q-25 46 -57 166q-21 77 -21 180zM771 1228
q-87 0 -154 -40.5t-101 -89.5q-57 -83 -81 -181.5t-24 -239.5q0 -86 7 -123q2 -12 6 -41q9 -74 21 -108q43 -127 61 -157q30 -51 89 -101q30 -26 87 -47.5t114 -21.5q108 0 200.5 50.5t148.5 171.5t56 315q0 80 -11 217l-5 19q-3 8 -10 41q-37 164 -141.5 250t-262.5 86z
M704 1395q31 110 102 321l274 -3l-301 -319q-37 -1 -44 -1q-14 0 -31 2z" />
    <glyph glyph-name="Ocircumflex" unicode="&#xd4;" horiz-adv-x="1621" 
d="M90 670q0 124 48 249q35 90 98 165t158 133.5t194 84t221 25.5q208 0 361 -78t241 -211q114 -173 114 -363q0 -283 -192.5 -485t-535.5 -202q-85 0 -159 11q-56 8 -98 22q-76 25 -85 29q-109 62 -175 127t-112 147q-25 46 -57 166q-21 77 -21 180zM771 1228
q-87 0 -154 -40.5t-101 -89.5q-57 -83 -81 -181.5t-24 -239.5q0 -86 7 -123q2 -12 6 -41q9 -74 21 -108q43 -127 61 -157q30 -51 89 -101q30 -26 87 -47.5t114 -21.5q108 0 200.5 50.5t148.5 171.5t56 315q0 80 -11 217l-5 19q-3 8 -10 41q-37 164 -141.5 250t-262.5 86z
M535 1384l193 349q20 1 38 1l176 -1q44 -78 105 -194l83 -159l-78 -1l-218 192q-29 -21 -84.5 -72t-135.5 -118z" />
    <glyph glyph-name="Otilde" unicode="&#xd5;" horiz-adv-x="1621" 
d="M90 670q0 124 48 249q35 90 98 165t158 133.5t194 84t221 25.5q208 0 361 -78t241 -211q114 -173 114 -363q0 -283 -192.5 -485t-535.5 -202q-85 0 -159 11q-56 8 -98 22q-76 25 -85 29q-109 62 -175 127t-112 147q-25 46 -57 166q-21 77 -21 180zM771 1228
q-87 0 -154 -40.5t-101 -89.5q-57 -83 -81 -181.5t-24 -239.5q0 -86 7 -123q2 -12 6 -41q9 -74 21 -108q43 -127 61 -157q30 -51 89 -101q30 -26 87 -47.5t114 -21.5q108 0 200.5 50.5t148.5 171.5t56 315q0 80 -11 217l-5 19q-3 8 -10 41q-37 164 -141.5 250t-262.5 86z
M1096 1696h30q10 0 28 -1q-1 -128 -62 -195.5t-147 -67.5q-40 0 -80 10q-27 7 -102.5 38t-85.5 33q-19 5 -40 5q-35 0 -54.5 -17t-32.5 -67l-59 -1q1 8 1 37q2 95 64 159.5t140 64.5q39 0 75 -9t105.5 -38t88.5 -34q27 -6 50 -6q30 0 49 17t32 72z" />
    <glyph glyph-name="Odieresis" unicode="&#xd6;" horiz-adv-x="1621" 
d="M90 670q0 124 48 249q35 90 98 165t158 133.5t194 84t221 25.5q208 0 361 -78t241 -211q114 -173 114 -363q0 -283 -192.5 -485t-535.5 -202q-85 0 -159 11q-56 8 -98 22q-76 25 -85 29q-109 62 -175 127t-112 147q-25 46 -57 166q-21 77 -21 180zM771 1228
q-87 0 -154 -40.5t-101 -89.5q-57 -83 -81 -181.5t-24 -239.5q0 -86 7 -123q2 -12 6 -41q9 -74 21 -108q43 -127 61 -157q30 -51 89 -101q30 -26 87 -47.5t114 -21.5q108 0 200.5 50.5t148.5 171.5t56 315q0 80 -11 217l-5 19q-3 8 -10 41q-37 164 -141.5 250t-262.5 86z
M876 1555q0 57 35.5 93.5t87.5 36.5t88 -36.5t36 -87.5q0 -52 -36 -88t-88 -36q-50 0 -86.5 36t-36.5 82zM667 1685q47 0 82.5 -37t35.5 -88t-36 -87.5t-88 -36.5t-87.5 36t-35.5 88q0 51 36 88t84 37h9z" />
    <glyph glyph-name="multiply" unicode="&#xd7;" horiz-adv-x="1365" 
d="M176 1047l110 111l398 -399l398 399l111 -111l-397 -399l393 -393l-111 -111l-393 394l-396 -394l-111 111l395 393z" />
    <glyph glyph-name="Oslash" unicode="&#xd8;" horiz-adv-x="1621" 
d="M1226 1220q45 51 63 73t33 39q20 -9 59 -35q7 -5 22 -14q-14 -21 -35 -45l-63 -74q99 -88 159 -212t60 -270q0 -153 -38 -252t-108.5 -188t-166 -146t-211.5 -82.5t-189 -25.5q-84 0 -171 13q-56 8 -83 15q-58 16 -94 32q-24 10 -74 43q-18 -20 -43 -50t-50 -56
q-16 10 -83 52l97 113q-87 85 -118.5 134t-43.5 82q-26 73 -48 162q-10 39 -10 150q0 15 1 28v38q0 64 57 204q34 85 110.5 164t165 127.5t180 70.5t210.5 22q118 0 225 -29.5t187 -82.5zM469 340q35 36 88 100l448 525q81 95 92 110q-47 70 -129 113.5t-185 43.5
q-85 0 -146 -30q-80 -41 -119 -99q-61 -91 -81 -171q-28 -111 -28 -296q0 -37 7 -77q4 -18 6 -39q14 -102 47 -180zM794 79l15 -1q46 0 116 20q49 14 103 53t83 85q46 73 69 169t23 232q0 146 -20 228q-9 35 -12 52q-8 37 -27 58l-380 -446q-227 -264 -249 -292
q65 -85 128.5 -120.5t150.5 -37.5z" />
    <glyph glyph-name="Ugrave" unicode="&#xd9;" horiz-adv-x="1557" 
d="M39 1217l-3 79q18 1 37 1q50 0 105 -3q132 -7 155 -7q80 0 156.5 3.5t136 4.5t80.5 2l-1 -12l2 -59v-8q-56 -8 -116 -8q-56 0 -74 -22q-12 -14 -12 -119q0 -32 1 -52l1 -36l-2 -94l6 -80l-4 -173l13 -251q5 -109 48 -181q32 -53 90 -83q84 -42 165 -42q96 0 179 25
q49 14 92.5 45.5t60.5 57.5q36 55 50 103q19 66 19 205q0 242 -26 545l-4 53q-3 59 -22 79q-32 31 -72 31l-94 -2l-13 3l2 76h79l191 -8q96 0 183 9l17 -2q6 -33 6 -46q0 -11 -4 -27q-37 -11 -78 -13q-67 -9 -74 -15q-14 -12 -14 -37q0 -18 3 -52q3 -25 3 -87q0 -35 0.5 -55
t1.5 -41q3 -72 5 -146l10 -203q0 -204 -14 -273t-38 -109q-37 -60 -105 -110.5t-170 -80t-238 -29.5q-155 0 -266 41.5t-167.5 109t-77.5 175.5q-15 74 -15 212l1 477q0 169 -16 191q-22 31 -137 35q-25 0 -42 3zM558 1716h273q10 -27 21 -60q14 -47 26 -83q46 -135 56 -178
l-79 3z" />
    <glyph glyph-name="Uacute" unicode="&#xda;" horiz-adv-x="1557" 
d="M39 1217l-3 79q18 1 37 1q50 0 105 -3q132 -7 155 -7q80 0 156.5 3.5t136 4.5t80.5 2l-1 -12l2 -59v-8q-56 -8 -116 -8q-56 0 -74 -22q-12 -14 -12 -119q0 -32 1 -52l1 -36l-2 -94l6 -80l-4 -173l13 -251q5 -109 48 -181q32 -53 90 -83q84 -42 165 -42q96 0 179 25
q49 14 92.5 45.5t60.5 57.5q36 55 50 103q19 66 19 205q0 242 -26 545l-4 53q-3 59 -22 79q-32 31 -72 31l-94 -2l-13 3l2 76h79l191 -8q96 0 183 9l17 -2q6 -33 6 -46q0 -11 -4 -27q-37 -11 -78 -13q-67 -9 -74 -15q-14 -12 -14 -37q0 -18 3 -52q3 -25 3 -87q0 -35 0.5 -55
t1.5 -41q3 -72 5 -146l10 -203q0 -204 -14 -273t-38 -109q-37 -60 -105 -110.5t-170 -80t-238 -29.5q-155 0 -266 41.5t-167.5 109t-77.5 175.5q-15 74 -15 212l1 477q0 169 -16 191q-22 31 -137 35q-25 0 -42 3zM672 1395q31 110 102 321l274 -3l-301 -319q-37 -1 -44 -1
q-14 0 -31 2z" />
    <glyph glyph-name="Ucircumflex" unicode="&#xdb;" horiz-adv-x="1557" 
d="M39 1217l-3 79q18 1 37 1q50 0 105 -3q132 -7 155 -7q80 0 156.5 3.5t136 4.5t80.5 2l-1 -12l2 -59v-8q-56 -8 -116 -8q-56 0 -74 -22q-12 -14 -12 -119q0 -32 1 -52l1 -36l-2 -94l6 -80l-4 -173l13 -251q5 -109 48 -181q32 -53 90 -83q84 -42 165 -42q96 0 179 25
q49 14 92.5 45.5t60.5 57.5q36 55 50 103q19 66 19 205q0 242 -26 545l-4 53q-3 59 -22 79q-32 31 -72 31l-94 -2l-13 3l2 76h79l191 -8q96 0 183 9l17 -2q6 -33 6 -46q0 -11 -4 -27q-37 -11 -78 -13q-67 -9 -74 -15q-14 -12 -14 -37q0 -18 3 -52q3 -25 3 -87q0 -35 0.5 -55
t1.5 -41q3 -72 5 -146l10 -203q0 -204 -14 -273t-38 -109q-37 -60 -105 -110.5t-170 -80t-238 -29.5q-155 0 -266 41.5t-167.5 109t-77.5 175.5q-15 74 -15 212l1 477q0 169 -16 191q-22 31 -137 35q-25 0 -42 3zM503 1384l193 349q20 1 38 1l176 -1q44 -78 105 -194
l83 -159l-78 -1l-218 192q-29 -21 -84.5 -72t-135.5 -118z" />
    <glyph glyph-name="Udieresis" unicode="&#xdc;" horiz-adv-x="1557" 
d="M39 1217l-3 79q18 1 37 1q50 0 105 -3q132 -7 155 -7q80 0 156.5 3.5t136 4.5t80.5 2l-1 -12l2 -59v-8q-56 -8 -116 -8q-56 0 -74 -22q-12 -14 -12 -119q0 -32 1 -52l1 -36l-2 -94l6 -80l-4 -173l13 -251q5 -109 48 -181q32 -53 90 -83q84 -42 165 -42q96 0 179 25
q49 14 92.5 45.5t60.5 57.5q36 55 50 103q19 66 19 205q0 242 -26 545l-4 53q-3 59 -22 79q-32 31 -72 31l-94 -2l-13 3l2 76h79l191 -8q96 0 183 9l17 -2q6 -33 6 -46q0 -11 -4 -27q-37 -11 -78 -13q-67 -9 -74 -15q-14 -12 -14 -37q0 -18 3 -52q3 -25 3 -87q0 -35 0.5 -55
t1.5 -41q3 -72 5 -146l10 -203q0 -204 -14 -273t-38 -109q-37 -60 -105 -110.5t-170 -80t-238 -29.5q-155 0 -266 41.5t-167.5 109t-77.5 175.5q-15 74 -15 212l1 477q0 169 -16 191q-22 31 -137 35q-25 0 -42 3zM844 1555q0 57 35.5 93.5t87.5 36.5t88 -36.5t36 -87.5
q0 -52 -36 -88t-88 -36q-50 0 -86.5 36t-36.5 82zM635 1685q47 0 82.5 -37t35.5 -88t-36 -87.5t-88 -36.5t-87.5 36t-35.5 88q0 51 36 88t84 37h9z" />
    <glyph glyph-name="Yacute" unicode="&#xdd;" horiz-adv-x="1344" 
d="M-35 1294q27 8 125 8l10 -2q25 -4 35 -4l10 1q15 -2 82 -7q124 -9 197 -9q80 0 157 11q11 2 16 2l8 -1q5 -13 5 -20l-1 -52q-23 -9 -55 -14l-45 -8q-25 -5 -67 -11l-6 -4l-2 -13q33 -71 140 -221q28 -48 56 -90q8 -11 57 -93q5 -9 11 -18q9 -14 18 -27q17 -25 22 -33
q20 -32 34 -49l104 146q51 66 133 192l4 5l85 151q20 29 20 43q0 5 -3 17q-15 10 -25 12q-4 2 -42 4q-21 4 -40 7t-31 6q-2 13 -6 74l205 -11q9 -1 25 -4h48l17 1q32 5 83 8q15 1 29 3l-1 -75l-13 -4q-84 -14 -115 -37q-45 -34 -121 -164l-130 -195q-117 -159 -151 -217
q-9 -14 -15 -35v-31l-1 -87v-24q-3 -26 -3 -54l4 -256q4 -8 11 -11q14 -4 64 -10q96 -10 107 -17q8 -5 8 -20q0 -9 -2 -24q0 -9 -1 -28l-115 2l-107 9l-74 5l-111 -4h-83q-14 1 -45 -4q-50 -8 -75 -8l-69 1q-1 21 -1 32t1 33l184 38q12 4 23 10q1 46 1 57q0 153 -2 208.5
t-2 64.5v23q0 63 -66 145q-28 35 -35 46l-196 298l-92 148q-5 8 -62 82q-18 16 -35 22q-10 4 -91 21q-5 9 -5 16q0 6 1 15.5t2 28.5zM566 1395q31 110 102 321l274 -3l-301 -319q-37 -1 -44 -1q-14 0 -31 2z" />
    <glyph glyph-name="Thorn" unicode="&#xde;" horiz-adv-x="1259" 
d="M528 1000l163 8q15 1 72 1q242 0 342.5 -117t100.5 -238q0 -175 -111 -283.5t-282 -108.5q-114 0 -278 68l-1 -17l-1 -109q0 -30 6 -89l199 -25q4 -24 4 -38q0 -15 -5 -42q-25 -4 -38 -4q-31 0 -117 7.5t-196 7.5q-124 0 -236 -16q-19 -3 -60 -5q-4 29 -4 43q0 9 2 28
l61 20q63 19 109 46q9 29 9 53q0 10 -1 23q-1 31 -1 87l-3 281l-11 317q-7 226 -11 244q-7 29 -24 45.5t-57 23.5q-83 14 -110 23l-1 76l241 -15q155 0 179 2q113 7 256 13l-1 -76q-26 -9 -109 -23q-45 -8 -63 -29.5t-24 -79.5zM528 868l4 -173q-2 -33 -2 -38l3 -43
q1 -15 1 -45v-159q94 -15 144 -15q106 0 165.5 63t59.5 182q0 97 -32.5 159.5t-77.5 84.5q-65 31 -146 31q-38 0 -64.5 -5.5t-42.5 -16.5q-8 -12 -12 -25z" />
    <glyph glyph-name="germandbls" unicode="&#xdf;" horiz-adv-x="1109" 
d="M36 51q32 15 73 29q20 7 36 21q8 17 8 25q3 29 3 100l-2 178v143l-1 92v197q0 286 125 394q56 40 71 47q41 21 96.5 35.5t128.5 14.5q87 0 163 -22.5t125 -52.5q26 -17 65 -57q17 -18 24 -34q23 -56 23 -103q0 -80 -38.5 -136t-127.5 -107l-12 -8q-90 -42 -105 -51
l-1 -10q0 -10 5 -15q11 -10 50 -23q22 -7 92.5 -47.5t116 -91.5t72.5 -115.5t27 -125.5q0 -84 -46.5 -168t-130.5 -131q-60 -33 -150 -33q-118 0 -170.5 44.5t-52.5 101.5q0 37 27 64t62 27t57.5 -22t29.5 -74q4 -37 9 -49t19 -27q14 -3 24 -3q24 0 39 28q29 55 29 231
q0 81 -15 149t-38 103q-31 47 -96.5 89.5t-65.5 78.5q0 7 2 16q13 18 51 44.5t50 43.5q33 44 47 85.5t14 96.5q0 118 -55.5 180.5t-138.5 62.5q-24 0 -46 -5q-12 -3 -61 -24q-45 -36 -62.5 -85.5t-17.5 -197.5v-25l6 -362v-51q0 -57 -1 -114l-1 -28l3 -69l-1 -172
q0 -24 9 -32.5t72 -38.5q6 -19 6 -35q0 -6 -1 -16q-34 -3 -45 -3q-9 0 -99 4h-49q-99 0 -152.5 -7.5t-76.5 -7.5z" />
    <glyph glyph-name="agrave" unicode="&#xe0;" horiz-adv-x="981" 
d="M925 194l23 -15q9 -7 11 -17l1 -5q-24 -89 -63 -122.5t-97 -33.5q-59 0 -101.5 32.5t-77.5 114.5q-43 -76 -121 -114.5t-191 -38.5q-104 0 -153 43.5t-49 114.5q0 33 14.5 67t47 67.5t104.5 73.5q11 6 76 34l249 100q3 38 3 77q0 135 -33 184q-20 30 -70 30t-92 -19
t-61 -49q-14 -22 -24 -83q-7 -44 -13 -51q-15 -19 -54.5 -34.5t-53.5 -22.5q-54 -26 -86 -26q-14 12 -14 34q0 57 24 98q36 58 108.5 112.5t135.5 76.5q86 28 210 28q80 0 137.5 -29.5t80 -87.5t22.5 -209l-3 -165l2 -121v-31q0 -42 11.5 -57.5t29.5 -15.5q11 0 19 6l30 47z
M597 426q-57 -19 -128.5 -63.5t-99.5 -89.5q-20 -33 -20 -81q0 -43 26 -71t60 -28q56 0 95 32q53 43 62 68.5t9 144.5q0 44 -4 88zM210 1280h273q10 -27 21 -60q14 -47 26 -83q46 -135 56 -178l-79 3z" />
    <glyph glyph-name="aacute" unicode="&#xe1;" horiz-adv-x="981" 
d="M925 194l23 -15q9 -7 11 -17l1 -5q-24 -89 -63 -122.5t-97 -33.5q-59 0 -101.5 32.5t-77.5 114.5q-43 -76 -121 -114.5t-191 -38.5q-104 0 -153 43.5t-49 114.5q0 33 14.5 67t47 67.5t104.5 73.5q11 6 76 34l249 100q3 38 3 77q0 135 -33 184q-20 30 -70 30t-92 -19
t-61 -49q-14 -22 -24 -83q-7 -44 -13 -51q-15 -19 -54.5 -34.5t-53.5 -22.5q-54 -26 -86 -26q-14 12 -14 34q0 57 24 98q36 58 108.5 112.5t135.5 76.5q86 28 210 28q80 0 137.5 -29.5t80 -87.5t22.5 -209l-3 -165l2 -121v-31q0 -42 11.5 -57.5t29.5 -15.5q11 0 19 6l30 47z
M597 426q-57 -19 -128.5 -63.5t-99.5 -89.5q-20 -33 -20 -81q0 -43 26 -71t60 -28q56 0 95 32q53 43 62 68.5t9 144.5q0 44 -4 88zM384 959q31 110 102 321l274 -3l-301 -319q-37 -1 -44 -1q-14 0 -31 2z" />
    <glyph glyph-name="acircumflex" unicode="&#xe2;" horiz-adv-x="981" 
d="M925 194l23 -15q9 -7 11 -17l1 -5q-24 -89 -63 -122.5t-97 -33.5q-59 0 -101.5 32.5t-77.5 114.5q-43 -76 -121 -114.5t-191 -38.5q-104 0 -153 43.5t-49 114.5q0 33 14.5 67t47 67.5t104.5 73.5q11 6 76 34l249 100q3 38 3 77q0 135 -33 184q-20 30 -70 30t-92 -19
t-61 -49q-14 -22 -24 -83q-7 -44 -13 -51q-15 -19 -54.5 -34.5t-53.5 -22.5q-54 -26 -86 -26q-14 12 -14 34q0 57 24 98q36 58 108.5 112.5t135.5 76.5q86 28 210 28q80 0 137.5 -29.5t80 -87.5t22.5 -209l-3 -165l2 -121v-31q0 -42 11.5 -57.5t29.5 -15.5q11 0 19 6l30 47z
M597 426q-57 -19 -128.5 -63.5t-99.5 -89.5q-20 -33 -20 -81q0 -43 26 -71t60 -28q56 0 95 32q53 43 62 68.5t9 144.5q0 44 -4 88zM245 948l193 349q20 1 38 1l176 -1q44 -78 105 -194l83 -159l-78 -1l-218 192q-29 -21 -84.5 -72t-135.5 -118z" />
    <glyph glyph-name="atilde" unicode="&#xe3;" horiz-adv-x="981" 
d="M925 194l23 -15q9 -7 11 -17l1 -5q-24 -89 -63 -122.5t-97 -33.5q-59 0 -101.5 32.5t-77.5 114.5q-43 -76 -121 -114.5t-191 -38.5q-104 0 -153 43.5t-49 114.5q0 33 14.5 67t47 67.5t104.5 73.5q11 6 76 34l249 100q3 38 3 77q0 135 -33 184q-20 30 -70 30t-92 -19
t-61 -49q-14 -22 -24 -83q-7 -44 -13 -51q-15 -19 -54.5 -34.5t-53.5 -22.5q-54 -26 -86 -26q-14 12 -14 34q0 57 24 98q36 58 108.5 112.5t135.5 76.5q86 28 210 28q80 0 137.5 -29.5t80 -87.5t22.5 -209l-3 -165l2 -121v-31q0 -42 11.5 -57.5t29.5 -15.5q11 0 19 6l30 47z
M597 426q-57 -19 -128.5 -63.5t-99.5 -89.5q-20 -33 -20 -81q0 -43 26 -71t60 -28q56 0 95 32q53 43 62 68.5t9 144.5q0 44 -4 88zM776 1260h30q10 0 28 -1q-1 -128 -62 -195.5t-147 -67.5q-40 0 -80 10q-27 7 -102.5 38t-85.5 33q-19 5 -40 5q-35 0 -54.5 -17t-32.5 -67
l-59 -1q1 8 1 37q2 95 64 159.5t140 64.5q39 0 75 -9t105.5 -38t88.5 -34q27 -6 50 -6q30 0 49 17t32 72z" />
    <glyph glyph-name="adieresis" unicode="&#xe4;" horiz-adv-x="981" 
d="M925 194l23 -15q9 -7 11 -17l1 -5q-24 -89 -63 -122.5t-97 -33.5q-59 0 -101.5 32.5t-77.5 114.5q-43 -76 -121 -114.5t-191 -38.5q-104 0 -153 43.5t-49 114.5q0 33 14.5 67t47 67.5t104.5 73.5q11 6 76 34l249 100q3 38 3 77q0 135 -33 184q-20 30 -70 30t-92 -19
t-61 -49q-14 -22 -24 -83q-7 -44 -13 -51q-15 -19 -54.5 -34.5t-53.5 -22.5q-54 -26 -86 -26q-14 12 -14 34q0 57 24 98q36 58 108.5 112.5t135.5 76.5q86 28 210 28q80 0 137.5 -29.5t80 -87.5t22.5 -209l-3 -165l2 -121v-31q0 -42 11.5 -57.5t29.5 -15.5q11 0 19 6l30 47z
M597 426q-57 -19 -128.5 -63.5t-99.5 -89.5q-20 -33 -20 -81q0 -43 26 -71t60 -28q56 0 95 32q53 43 62 68.5t9 144.5q0 44 -4 88zM556 1119q0 57 35.5 93.5t87.5 36.5t88 -36.5t36 -87.5q0 -52 -36 -88t-88 -36q-50 0 -86.5 36t-36.5 82zM347 1249q47 0 82.5 -37t35.5 -88
t-36 -87.5t-88 -36.5t-87.5 36t-35.5 88q0 51 36 88t84 37h9z" />
    <glyph glyph-name="aring" unicode="&#xe5;" horiz-adv-x="981" 
d="M925 194l23 -15q9 -7 11 -17l1 -5q-24 -89 -63 -122.5t-97 -33.5q-59 0 -101.5 32.5t-77.5 114.5q-43 -76 -121 -114.5t-191 -38.5q-104 0 -153 43.5t-49 114.5q0 33 14.5 67t47 67.5t104.5 73.5q11 6 76 34l249 100q3 38 3 77q0 135 -33 184q-20 30 -70 30t-92 -19
t-61 -49q-14 -22 -24 -83q-7 -44 -13 -51q-15 -19 -54.5 -34.5t-53.5 -22.5q-54 -26 -86 -26q-14 12 -14 34q0 57 24 98q36 58 108.5 112.5t135.5 76.5q86 28 210 28q80 0 137.5 -29.5t80 -87.5t22.5 -209l-3 -165l2 -121v-31q0 -42 11.5 -57.5t29.5 -15.5q11 0 19 6l30 47z
M597 426q-57 -19 -128.5 -63.5t-99.5 -89.5q-20 -33 -20 -81q0 -43 26 -71t60 -28q56 0 95 32q53 43 62 68.5t9 144.5q0 44 -4 88zM374 1123q0 69 48 118t117 49q70 0 118.5 -48.5t48.5 -117.5t-48.5 -118t-118.5 -49q-67 0 -116 49.5t-49 116.5zM539 1034q38 0 64.5 26.5
t26.5 63.5t-26.5 63.5t-62.5 26.5q-38 0 -64.5 -26t-26.5 -64q0 -37 26 -63.5t63 -26.5z" />
    <glyph glyph-name="ae" unicode="&#xe6;" horiz-adv-x="1429" 
d="M748 760q19 14 36 26q113 68 213 68q76 0 146 -26.5t118.5 -77t73.5 -112.5t25 -116q0 -10 -3 -28q-6 -8 -14 -8q-10 0 -29.5 3.5t-61.5 4.5l-187 5q-219 0 -267 -7q-1 -31 -1 -47q0 -159 76 -239.5t193 -80.5q121 0 235 76q42 -18 57 -37q-37 -53 -101 -98t-141 -68
q-50 -15 -129 -15q-97 0 -188 38t-150 114l-28 36q-16 -35 -30 -49l-18 -20q-26 -28 -75 -60.5t-94.5 -45.5t-115.5 -13q-54 0 -116 32q-72 57 -72 148q0 34 22 70.5t79 74.5q43 29 180 94q68 31 198 106q2 56 2 73q0 112 -35.5 156t-91.5 44q-38 0 -72.5 -18.5t-51.5 -46.5
q-9 -15 -19.5 -69t-14 -59t-31.5 -22q-45 -27 -92 -47.5t-57 -20.5q-13 0 -29 16l-3 18q0 31 24 82.5t93 117t141 92t161 26.5q68 0 129.5 -22.5t115.5 -67.5zM800 564q42 -2 53 -2q101 0 134 1l156 7v15q0 80 -56 141t-116 61q-62 0 -117 -47t-55 -151q0 -8 1 -25zM582 427
q-43 -20 -144 -80q-67 -41 -91 -75q-16 -23 -16 -58q0 -56 28.5 -86t72.5 -30q39 0 71 20t50 52t23 85q8 81 8 125q0 15 -2 47z" />
    <glyph glyph-name="ccedilla" unicode="&#xe7;" horiz-adv-x="960" 
d="M856 267q16 -9 24 -12q23 -10 37 -25q-27 -100 -131 -173t-263 -73q-100 0 -198 42t-156 111q-45 53 -67.5 130t-22.5 131q0 65 28 147.5t94 155.5t166.5 116t226.5 43q173 0 241 -54t68 -108q0 -53 -27.5 -83.5t-75.5 -30.5q-41 0 -75.5 27t-57.5 91q-18 46 -46 67
q-28 20 -67 20q-94 0 -168 -80.5t-74 -219.5q0 -167 90.5 -265.5t205.5 -98.5q57 0 97 13q25 9 68 39q11 8 41.5 43t41.5 47zM593 16h108q-16 -19 -45.5 -48.5t-29.5 -35.5q0 -7 11 -19q58 -61 73 -91.5t15 -72.5q0 -103 -94 -160t-207 -57q-106 0 -171 40q-34 21 -34 48
q0 26 32.5 57t62.5 31q13 0 30 -8t73.5 -46.5t93.5 -38.5q35 0 54.5 17.5t19.5 42.5q0 31 -28 61t-116 59q-20 7 -29 16q-6 6 -6 12q0 25 61 68q46 33 126 125z" />
    <glyph glyph-name="egrave" unicode="&#xe8;" horiz-adv-x="960" 
d="M86 536q26 85 46 113q56 82 119.5 128t114.5 61q66 19 107 19q94 0 152 -14.5t97 -41.5q56 -39 90 -79t55.5 -94t23.5 -131l-111 2q-46 0 -202 9q-58 4 -80 4q-7 0 -108 -1h-86q-2 -14 -2 -24q0 -53 13 -111.5t39 -103t64.5 -76.5t79.5 -46l58 -19q77 0 103 5
q48 10 84.5 25.5t88.5 52.5q36 -26 60 -47q-88 -97 -182.5 -140.5t-211.5 -43.5q-79 0 -129 14q-67 18 -121 55t-93 92t-58 113q-25 76 -25 122q0 87 14 157zM667 579q-1 56 -22 107t-65 79.5t-89 28.5q-67 0 -121 -59t-61 -160l228 -1q22 0 62 3q29 3 41 3q9 0 27 -1z
M260 1280h273q10 -27 21 -60q14 -47 26 -83q46 -135 56 -178l-79 3z" />
    <glyph glyph-name="eacute" unicode="&#xe9;" horiz-adv-x="960" 
d="M86 536q26 85 46 113q56 82 119.5 128t114.5 61q66 19 107 19q94 0 152 -14.5t97 -41.5q56 -39 90 -79t55.5 -94t23.5 -131l-111 2q-46 0 -202 9q-58 4 -80 4q-7 0 -108 -1h-86q-2 -14 -2 -24q0 -53 13 -111.5t39 -103t64.5 -76.5t79.5 -46l58 -19q77 0 103 5
q48 10 84.5 25.5t88.5 52.5q36 -26 60 -47q-88 -97 -182.5 -140.5t-211.5 -43.5q-79 0 -129 14q-67 18 -121 55t-93 92t-58 113q-25 76 -25 122q0 87 14 157zM667 579q-1 56 -22 107t-65 79.5t-89 28.5q-67 0 -121 -59t-61 -160l228 -1q22 0 62 3q29 3 41 3q9 0 27 -1z
M374 959q31 110 102 321l274 -3l-301 -319q-37 -1 -44 -1q-14 0 -31 2z" />
    <glyph glyph-name="ecircumflex" unicode="&#xea;" horiz-adv-x="960" 
d="M86 536q26 85 46 113q56 82 119.5 128t114.5 61q66 19 107 19q94 0 152 -14.5t97 -41.5q56 -39 90 -79t55.5 -94t23.5 -131l-111 2q-46 0 -202 9q-58 4 -80 4q-7 0 -108 -1h-86q-2 -14 -2 -24q0 -53 13 -111.5t39 -103t64.5 -76.5t79.5 -46l58 -19q77 0 103 5
q48 10 84.5 25.5t88.5 52.5q36 -26 60 -47q-88 -97 -182.5 -140.5t-211.5 -43.5q-79 0 -129 14q-67 18 -121 55t-93 92t-58 113q-25 76 -25 122q0 87 14 157zM667 579q-1 56 -22 107t-65 79.5t-89 28.5q-67 0 -121 -59t-61 -160l228 -1q22 0 62 3q29 3 41 3q9 0 27 -1z
M205 948l193 349q20 1 38 1l176 -1q44 -78 105 -194l83 -159l-78 -1l-218 192q-29 -21 -84.5 -72t-135.5 -118z" />
    <glyph glyph-name="edieresis" unicode="&#xeb;" horiz-adv-x="960" 
d="M86 536q26 85 46 113q56 82 119.5 128t114.5 61q66 19 107 19q94 0 152 -14.5t97 -41.5q56 -39 90 -79t55.5 -94t23.5 -131l-111 2q-46 0 -202 9q-58 4 -80 4q-7 0 -108 -1h-86q-2 -14 -2 -24q0 -53 13 -111.5t39 -103t64.5 -76.5t79.5 -46l58 -19q77 0 103 5
q48 10 84.5 25.5t88.5 52.5q36 -26 60 -47q-88 -97 -182.5 -140.5t-211.5 -43.5q-79 0 -129 14q-67 18 -121 55t-93 92t-58 113q-25 76 -25 122q0 87 14 157zM667 579q-1 56 -22 107t-65 79.5t-89 28.5q-67 0 -121 -59t-61 -160l228 -1q22 0 62 3q29 3 41 3q9 0 27 -1z
M546 1119q0 57 35.5 93.5t87.5 36.5t88 -36.5t36 -87.5q0 -52 -36 -88t-88 -36q-50 0 -86.5 36t-36.5 82zM337 1249q47 0 82.5 -37t35.5 -88t-36 -87.5t-88 -36.5t-87.5 36t-35.5 88q0 51 36 88t84 37h9z" />
    <glyph glyph-name="igrave" unicode="&#xec;" horiz-adv-x="576" 
d="M33 71q16 3 57 7q59 6 74 15t21 31t6 134l-4 104l2 169q0 37 -2 78q-1 18 -1 26q0 39 -11 49q-20 19 -76 26l-56 8v51q91 13 109 19q54 15 99 42t88 72l62 -1q5 -46 5 -58l-1 -85q0 -21 4 -103l-7 -397v-142q0 -11 4 -22q37 -9 140 -29q4 -20 4 -30q0 -9 -3 -27h-61
l-186 6q-163 0 -190 -2q-57 -6 -63 -6l-13 1q-1 26 -1 40v24zM67 1280h273q10 -27 21 -60q14 -47 26 -83q46 -135 56 -178l-79 3z" />
    <glyph glyph-name="iacute" unicode="&#xed;" horiz-adv-x="576" 
d="M33 71q16 3 57 7q59 6 74 15t21 31t6 134l-4 104l2 169q0 37 -2 78q-1 18 -1 26q0 39 -11 49q-20 19 -76 26l-56 8v51q91 13 109 19q54 15 99 42t88 72l62 -1q5 -46 5 -58l-1 -85q0 -21 4 -103l-7 -397v-142q0 -11 4 -22q37 -9 140 -29q4 -20 4 -30q0 -9 -3 -27h-61
l-186 6q-163 0 -190 -2q-57 -6 -63 -6l-13 1q-1 26 -1 40v24zM181 959q31 110 102 321l274 -3l-301 -319q-37 -1 -44 -1q-14 0 -31 2z" />
    <glyph glyph-name="icircumflex" unicode="&#xee;" horiz-adv-x="576" 
d="M33 71q16 3 57 7q59 6 74 15t21 31t6 134l-4 104l2 169q0 37 -2 78q-1 18 -1 26q0 39 -11 49q-20 19 -76 26l-56 8v51q91 13 109 19q54 15 99 42t88 72l62 -1q5 -46 5 -58l-1 -85q0 -21 4 -103l-7 -397v-142q0 -11 4 -22q37 -9 140 -29q4 -20 4 -30q0 -9 -3 -27h-61
l-186 6q-163 0 -190 -2q-57 -6 -63 -6l-13 1q-1 26 -1 40v24zM12 948l193 349q20 1 38 1l176 -1q44 -78 105 -194l83 -159l-78 -1l-218 192q-29 -21 -84.5 -72t-135.5 -118z" />
    <glyph glyph-name="idieresis" unicode="&#xef;" horiz-adv-x="576" 
d="M33 71q16 3 57 7q59 6 74 15t21 31t6 134l-4 104l2 169q0 37 -2 78q-1 18 -1 26q0 39 -11 49q-20 19 -76 26l-56 8v51q91 13 109 19q54 15 99 42t88 72l62 -1q5 -46 5 -58l-1 -85q0 -21 4 -103l-7 -397v-142q0 -11 4 -22q37 -9 140 -29q4 -20 4 -30q0 -9 -3 -27h-61
l-186 6q-163 0 -190 -2q-57 -6 -63 -6l-13 1q-1 26 -1 40v24zM353 1119q0 57 35.5 93.5t87.5 36.5t88 -36.5t36 -87.5q0 -52 -36 -88t-88 -36q-50 0 -86.5 36t-36.5 82zM144 1249q47 0 82.5 -37t35.5 -88t-36 -87.5t-88 -36.5t-87.5 36t-35.5 88q0 51 36 88t84 37h9z" />
    <glyph glyph-name="eth" unicode="&#xf0;" horiz-adv-x="1067" 
d="M766 1329l35 -57l-153 -97q340 -259 340 -707q0 -157 -51.5 -261t-152.5 -164t-256 -60q-128 0 -218 46q-125 64 -183 161t-58 232q0 122 57 224t162.5 157.5t225.5 55.5q93 0 172 -46q-58 166 -169 280l-220 -133l-33 55l205 129q-39 35 -154 117l29 65
q134 -41 242 -106zM313 432q0 -234 57.5 -308t160.5 -74q94 0 153.5 78.5t59.5 285.5q0 223 -57.5 299t-162.5 76q-101 0 -156 -71t-55 -286z" />
    <glyph glyph-name="ntilde" unicode="&#xf1;" horiz-adv-x="1131" 
d="M41 57q26 12 48 16q55 9 64 15q15 9 20 22q6 20 6 88v87l1 71l-3 105v63q0 63 -10 103q-4 15 -25 30q-28 20 -95 39l-1 48q13 4 23.5 5.5t80.5 19.5q55 20 71 28q5 3 16 9q12 10 27 20q30 21 72 73l53 4l-2 -113q-1 -17 -1 -27q0 -8 1 -46q83 72 151 100q89 37 169 37
q94 0 165 -46.5t93 -107.5t22 -246l-4 -326q0 -23 8 -38q10 -8 55 -15l49 -9q9 -13 9 -32q0 -12 -1 -33l-196 14l-58 -2h-46l-132 -10h-34q-1 13 -1 20q0 18 2 39q14 3 70 10q15 2 33 7q20 8 23 16q8 17 8 65q0 84 -2 129l1 116q1 211 -26 263q-38 75 -114 75
q-56 0 -116 -28.5t-124 -86.5l-2 -17l2 -63l-1 -67l4 -160l-2 -25q0 -163 13 -184t99 -46q3 -17 3 -25q0 -12 -7 -37q-31 -1 -52 -1t-66 6l-107 2q-80 0 -231 -7q-4 10 -4 21q0 8 1 32zM851 1260h30q10 0 28 -1q-1 -128 -62 -195.5t-147 -67.5q-40 0 -80 10q-27 7 -102.5 38
t-85.5 33q-19 5 -40 5q-35 0 -54.5 -17t-32.5 -67l-59 -1q1 8 1 37q2 95 64 159.5t140 64.5q39 0 75 -9t105.5 -38t88.5 -34q27 -6 50 -6q30 0 49 17t32 72z" />
    <glyph glyph-name="ograve" unicode="&#xf2;" horiz-adv-x="1067" 
d="M866 735q64 -62 95.5 -142.5t31.5 -151.5q0 -134 -41 -216q-62 -124 -167 -183t-244 -59q-156 0 -264.5 70t-155 159t-46.5 221q0 67 22 134.5t60.5 117.5t84.5 84q67 48 134.5 68.5t163.5 20.5q209 0 326 -123zM319 389q9 -124 13 -143q13 -67 41 -115q19 -31 63 -55
t105 -24q73 0 123 46.5t72 145.5q14 65 14 213q0 182 -60 257.5t-158 75.5q-77 0 -127.5 -43t-70.5 -127q-13 -54 -15 -231zM313 1280h273q10 -27 21 -60q14 -47 26 -83q46 -135 56 -178l-79 3z" />
    <glyph glyph-name="oacute" unicode="&#xf3;" horiz-adv-x="1067" 
d="M866 735q64 -62 95.5 -142.5t31.5 -151.5q0 -134 -41 -216q-62 -124 -167 -183t-244 -59q-156 0 -264.5 70t-155 159t-46.5 221q0 67 22 134.5t60.5 117.5t84.5 84q67 48 134.5 68.5t163.5 20.5q209 0 326 -123zM319 389q9 -124 13 -143q13 -67 41 -115q19 -31 63 -55
t105 -24q73 0 123 46.5t72 145.5q14 65 14 213q0 182 -60 257.5t-158 75.5q-77 0 -127.5 -43t-70.5 -127q-13 -54 -15 -231zM427 959q31 110 102 321l274 -3l-301 -319q-37 -1 -44 -1q-14 0 -31 2z" />
    <glyph glyph-name="ocircumflex" unicode="&#xf4;" horiz-adv-x="1067" 
d="M866 735q64 -62 95.5 -142.5t31.5 -151.5q0 -134 -41 -216q-62 -124 -167 -183t-244 -59q-156 0 -264.5 70t-155 159t-46.5 221q0 67 22 134.5t60.5 117.5t84.5 84q67 48 134.5 68.5t163.5 20.5q209 0 326 -123zM319 389q9 -124 13 -143q13 -67 41 -115q19 -31 63 -55
t105 -24q73 0 123 46.5t72 145.5q14 65 14 213q0 182 -60 257.5t-158 75.5q-77 0 -127.5 -43t-70.5 -127q-13 -54 -15 -231zM258 948l193 349q20 1 38 1l176 -1q44 -78 105 -194l83 -159l-78 -1l-218 192q-29 -21 -84.5 -72t-135.5 -118z" />
    <glyph glyph-name="otilde" unicode="&#xf5;" horiz-adv-x="1067" 
d="M866 735q64 -62 95.5 -142.5t31.5 -151.5q0 -134 -41 -216q-62 -124 -167 -183t-244 -59q-156 0 -264.5 70t-155 159t-46.5 221q0 67 22 134.5t60.5 117.5t84.5 84q67 48 134.5 68.5t163.5 20.5q209 0 326 -123zM319 389q9 -124 13 -143q13 -67 41 -115q19 -31 63 -55
t105 -24q73 0 123 46.5t72 145.5q14 65 14 213q0 182 -60 257.5t-158 75.5q-77 0 -127.5 -43t-70.5 -127q-13 -54 -15 -231zM819 1260h30q10 0 28 -1q-1 -128 -62 -195.5t-147 -67.5q-40 0 -80 10q-27 7 -102.5 38t-85.5 33q-19 5 -40 5q-35 0 -54.5 -17t-32.5 -67l-59 -1
q1 8 1 37q2 95 64 159.5t140 64.5q39 0 75 -9t105.5 -38t88.5 -34q27 -6 50 -6q30 0 49 17t32 72z" />
    <glyph glyph-name="odieresis" unicode="&#xf6;" horiz-adv-x="1067" 
d="M866 735q64 -62 95.5 -142.5t31.5 -151.5q0 -134 -41 -216q-62 -124 -167 -183t-244 -59q-156 0 -264.5 70t-155 159t-46.5 221q0 67 22 134.5t60.5 117.5t84.5 84q67 48 134.5 68.5t163.5 20.5q209 0 326 -123zM319 389q9 -124 13 -143q13 -67 41 -115q19 -31 63 -55
t105 -24q73 0 123 46.5t72 145.5q14 65 14 213q0 182 -60 257.5t-158 75.5q-77 0 -127.5 -43t-70.5 -127q-13 -54 -15 -231zM599 1119q0 57 35.5 93.5t87.5 36.5t88 -36.5t36 -87.5q0 -52 -36 -88t-88 -36q-50 0 -86.5 36t-36.5 82zM390 1249q47 0 82.5 -37t35.5 -88
t-36 -87.5t-88 -36.5t-87.5 36t-35.5 88q0 51 36 88t84 37h9z" />
    <glyph glyph-name="divide" unicode="&#xf7;" horiz-adv-x="1365" 
d="M778 1069q0 -40 -29 -69t-69 -29q-41 0 -69.5 29t-28.5 69q0 41 28.5 69.5t69.5 28.5q40 0 69 -28.5t29 -69.5zM135 726h1096v-150h-1096v150zM780 241q0 -41 -29 -70t-70 -29t-70 29t-29 70t29 70t70 29t70 -29t29 -70z" />
    <glyph glyph-name="oslash" unicode="&#xf8;" horiz-adv-x="1067" 
d="M259 781q56 37 92.5 50t129.5 26h18q44 2 52 2q134 0 259 -72l119 134l51 -44q-20 -27 -72 -85q-19 -21 -42 -50q38 -43 75 -98q35 -75 44.5 -116.5t9.5 -107.5q0 -125 -59 -229t-175 -163q-88 -45 -242 -45q-44 0 -94 9q-30 5 -81 25q-6 3 -77 40l-121 -135l-50 43
l115 133q-10 11 -23 24q-114 114 -114 298q0 128 63 237q34 60 122 124zM337 242l375 433q-36 65 -75.5 89.5t-101.5 24.5q-41 0 -75 -12q-23 -9 -67 -42q-39 -48 -56 -104.5t-17 -184.5q0 -135 17 -204zM736 593l-55 -63l-322 -368q29 -59 69 -81q53 -29 117 -29
q56 0 103 33t74.5 111t27.5 219q0 88 -14 178z" />
    <glyph glyph-name="ugrave" unicode="&#xf9;" horiz-adv-x="1131" 
d="M47 816q11 4 18 6h298l22 -2l1 -67l-2 -98l1 -51l-1 -151v-103q0 -101 11 -159q15 -44 48.5 -66.5t81.5 -22.5q45 0 73 9t64.5 34t46.5 36q29 32 40 59l7 249q2 39 2 64q0 26 -1.5 65.5t-1.5 44.5l1 37l-2 22q-24 15 -67 19l-67 5q-6 3 -11 7q-4 20 -4 30q0 12 3 34
q33 5 57 5l154 -2q62 0 152 2l2 -75l-3 -96l2 -120l-1 -172l-2 -77l1 -52q-4 -52 -4 -59q0 -25 9 -37t17 -12l92 3l12 -2q3 -35 3 -40q0 -7 -3 -22q-53 -2 -76 -7q-107 -24 -234 -71l-40 2l-1 163q-12 -10 -35 -31q-88 -78 -151 -105.5t-132 -27.5q-82 0 -142 34t-88 84
q-21 39 -28 112q-2 19 -2 196l1 32q5 98 5 145q0 80 -3 107q-1 13 -10 30q-14 6 -33 9q-64 11 -80 21q-5 3 -5 13q0 6 1.5 16t3.5 33zM345 1280h273q10 -27 21 -60q14 -47 26 -83q46 -135 56 -178l-79 3z" />
    <glyph glyph-name="uacute" unicode="&#xfa;" horiz-adv-x="1131" 
d="M47 816q11 4 18 6h298l22 -2l1 -67l-2 -98l1 -51l-1 -151v-103q0 -101 11 -159q15 -44 48.5 -66.5t81.5 -22.5q45 0 73 9t64.5 34t46.5 36q29 32 40 59l7 249q2 39 2 64q0 26 -1.5 65.5t-1.5 44.5l1 37l-2 22q-24 15 -67 19l-67 5q-6 3 -11 7q-4 20 -4 30q0 12 3 34
q33 5 57 5l154 -2q62 0 152 2l2 -75l-3 -96l2 -120l-1 -172l-2 -77l1 -52q-4 -52 -4 -59q0 -25 9 -37t17 -12l92 3l12 -2q3 -35 3 -40q0 -7 -3 -22q-53 -2 -76 -7q-107 -24 -234 -71l-40 2l-1 163q-12 -10 -35 -31q-88 -78 -151 -105.5t-132 -27.5q-82 0 -142 34t-88 84
q-21 39 -28 112q-2 19 -2 196l1 32q5 98 5 145q0 80 -3 107q-1 13 -10 30q-14 6 -33 9q-64 11 -80 21q-5 3 -5 13q0 6 1.5 16t3.5 33zM459 959q31 110 102 321l274 -3l-301 -319q-37 -1 -44 -1q-14 0 -31 2z" />
    <glyph glyph-name="ucircumflex" unicode="&#xfb;" horiz-adv-x="1131" 
d="M47 816q11 4 18 6h298l22 -2l1 -67l-2 -98l1 -51l-1 -151v-103q0 -101 11 -159q15 -44 48.5 -66.5t81.5 -22.5q45 0 73 9t64.5 34t46.5 36q29 32 40 59l7 249q2 39 2 64q0 26 -1.5 65.5t-1.5 44.5l1 37l-2 22q-24 15 -67 19l-67 5q-6 3 -11 7q-4 20 -4 30q0 12 3 34
q33 5 57 5l154 -2q62 0 152 2l2 -75l-3 -96l2 -120l-1 -172l-2 -77l1 -52q-4 -52 -4 -59q0 -25 9 -37t17 -12l92 3l12 -2q3 -35 3 -40q0 -7 -3 -22q-53 -2 -76 -7q-107 -24 -234 -71l-40 2l-1 163q-12 -10 -35 -31q-88 -78 -151 -105.5t-132 -27.5q-82 0 -142 34t-88 84
q-21 39 -28 112q-2 19 -2 196l1 32q5 98 5 145q0 80 -3 107q-1 13 -10 30q-14 6 -33 9q-64 11 -80 21q-5 3 -5 13q0 6 1.5 16t3.5 33zM290 948l193 349q20 1 38 1l176 -1q44 -78 105 -194l83 -159l-78 -1l-218 192q-29 -21 -84.5 -72t-135.5 -118z" />
    <glyph glyph-name="udieresis" unicode="&#xfc;" horiz-adv-x="1131" 
d="M47 816q11 4 18 6h298l22 -2l1 -67l-2 -98l1 -51l-1 -151v-103q0 -101 11 -159q15 -44 48.5 -66.5t81.5 -22.5q45 0 73 9t64.5 34t46.5 36q29 32 40 59l7 249q2 39 2 64q0 26 -1.5 65.5t-1.5 44.5l1 37l-2 22q-24 15 -67 19l-67 5q-6 3 -11 7q-4 20 -4 30q0 12 3 34
q33 5 57 5l154 -2q62 0 152 2l2 -75l-3 -96l2 -120l-1 -172l-2 -77l1 -52q-4 -52 -4 -59q0 -25 9 -37t17 -12l92 3l12 -2q3 -35 3 -40q0 -7 -3 -22q-53 -2 -76 -7q-107 -24 -234 -71l-40 2l-1 163q-12 -10 -35 -31q-88 -78 -151 -105.5t-132 -27.5q-82 0 -142 34t-88 84
q-21 39 -28 112q-2 19 -2 196l1 32q5 98 5 145q0 80 -3 107q-1 13 -10 30q-14 6 -33 9q-64 11 -80 21q-5 3 -5 13q0 6 1.5 16t3.5 33zM591 1119q0 57 35.5 93.5t87.5 36.5t88 -36.5t36 -87.5q0 -52 -36 -88t-88 -36q-50 0 -86.5 36t-36.5 82zM382 1249q47 0 82.5 -37
t35.5 -88t-36 -87.5t-88 -36.5t-87.5 36t-35.5 88q0 51 36 88t84 37h9z" />
    <glyph glyph-name="yacute" unicode="&#xfd;" horiz-adv-x="960" 
d="M-15 812q35 6 58 6q12 0 27 -1q91 -6 148 -6h52l142 8q8 -6 14 -13q-3 -44 -5 -56q-15 -3 -23 -4q-23 -3 -34 -5.5t-24 -4.5q-15 -4 -17 -14q6 -24 12 -40l48 -98q57 -140 117 -258l56 -115q6 12 77 197q85 219 92 247q4 15 4 26q0 10 -6 33q-22 16 -36 20.5t-65 10.5
l-32 8l-3 14q-1 10 -1 15q0 8 3 26q30 2 43 2l81 -5l54 -2q34 0 118 10q52 6 78 7q2 -25 2 -38q0 -6 -1 -18q-18 -9 -40 -14q-36 -9 -63 -17q-15 -12 -20 -20q-17 -38 -69 -166l-72 -193l-167 -398l-115 -264q-38 -76 -89 -131q-19 -21 -44 -32q-41 -16 -93 -16q-5 0 -55 7
q-41 10 -71 43q-21 24 -21 51q0 55 47 102q42 26 62 26q45 0 105 -47q28 -23 45 -23t27 19q87 169 112 240l-185 407q-104 245 -159 343q-28 50 -39.5 59t-35.5 16q-13 3 -30 12q-5 23 -9 44zM374 959q31 110 102 321l274 -3l-301 -319q-37 -1 -44 -1q-14 0 -31 2z" />
    <glyph glyph-name="thorn" unicode="&#xfe;" horiz-adv-x="1131" 
d="M-3 -502v45q18 11 26 15l77 28q41 16 47 21.5t9 12.5q11 29 13 65l-4 186l-3 228q-5 140 -5 216l2 387l-3 279v37q0 82 -13 120q-35 21 -75 22q-24 0 -45 4q-2 25 -2 38q0 7 1 18q80 9 164.5 40.5t129.5 64.5l28 1q9 0 26 -1q1 -37 1 -55l-3 -240q0 -92 3 -280
q87 53 143 70q82 24 181 24q102 0 181 -52q6 -4 17 -11q50 -36 73 -69q50 -71 72 -140q17 -52 17 -130q0 -104 -27 -176t-93 -145t-141.5 -104t-158.5 -31q-82 0 -117 10q-67 19 -133 56q-3 -16 -3 -22l3 -27q1 -11 1 -27q0 -7 -2 -79l3 -182q0 -6 -1 -40v-11q0 -37 5 -54
q4 -10 17 -22q10 -4 19 -9q31 -6 54.5 -12t49.5 -10q9 -11 9 -29q0 -11 -1 -32h-18q-58 0 -81 2l-151 13h-37l-35 1l-35 -3l-54 -3q-30 -1 -66 -5t-52 -4zM376 213q4 -12 5 -18q11 -46 28 -65q31 -36 71 -48q60 -17 105 -17q52 0 101.5 22t79.5 59q4 5 12 14q7 16 11 24
q40 78 40 166q0 162 -96 273q-67 79 -190 79q-73 0 -166 -38q-3 -39 -3 -219l3 -193q0 -7 -1 -39z" />
    <glyph glyph-name="ydieresis" unicode="&#xff;" horiz-adv-x="960" 
d="M-15 812q35 6 58 6q12 0 27 -1q91 -6 148 -6h52l142 8q8 -6 14 -13q-3 -44 -5 -56q-15 -3 -23 -4q-23 -3 -34 -5.5t-24 -4.5q-15 -4 -17 -14q6 -24 12 -40l48 -98q57 -140 117 -258l56 -115q6 12 77 197q85 219 92 247q4 15 4 26q0 10 -6 33q-22 16 -36 20.5t-65 10.5
l-32 8l-3 14q-1 10 -1 15q0 8 3 26q30 2 43 2l81 -5l54 -2q34 0 118 10q52 6 78 7q2 -25 2 -38q0 -6 -1 -18q-18 -9 -40 -14q-36 -9 -63 -17q-15 -12 -20 -20q-17 -38 -69 -166l-72 -193l-167 -398l-115 -264q-38 -76 -89 -131q-19 -21 -44 -32q-41 -16 -93 -16q-5 0 -55 7
q-41 10 -71 43q-21 24 -21 51q0 55 47 102q42 26 62 26q45 0 105 -47q28 -23 45 -23t27 19q87 169 112 240l-185 407q-104 245 -159 343q-28 50 -39.5 59t-35.5 16q-13 3 -30 12q-5 23 -9 44zM576 1119q0 57 35.5 93.5t87.5 36.5t88 -36.5t36 -87.5q0 -52 -36 -88t-88 -36
q-50 0 -86.5 36t-36.5 82zM367 1249q47 0 82.5 -37t35.5 -88t-36 -87.5t-88 -36.5t-87.5 36t-35.5 88q0 51 36 88t84 37h9z" />
    <glyph glyph-name="Amacron" unicode="&#x100;" horiz-adv-x="1344" 
d="M-26 7l2 68q19 6 67 15q77 15 93.5 27t40.5 58l202 529l237 622q33 -1 63 -1h45l9 -18l174 -412q59 -131 106 -254.5t81 -201.5q20 -47 55 -141q18 -51 55 -128q20 -42 30 -49q18 -15 58.5 -20t87.5 -23q5 -33 5 -49q0 -7 -1 -22q-74 0 -163 7t-160 7q-79 0 -114 -2
l-170 -9l-49 -2q0 35 3 67l111 24q50 13 58 20q10 10 10 23t-5 27l-40 98l-79 196l-382 1q-21 -48 -87 -235q-19 -53 -19 -72q0 -26 14 -37q23 -19 88 -27q9 -2 71 -11q1 -36 1 -50q0 -11 -2 -23q-62 0 -296 17l-41 -7q-74 -12 -141 -12h-18zM444 569q234 -3 276 -3l25 1
q-30 89 -78 207.5t-78 180.5zM422 1404v123h518v-123h-518z" />
    <glyph glyph-name="amacron" unicode="&#x101;" horiz-adv-x="981" 
d="M925 194l23 -15q9 -7 11 -17l1 -5q-24 -89 -63 -122.5t-97 -33.5q-59 0 -101.5 32.5t-77.5 114.5q-43 -76 -121 -114.5t-191 -38.5q-104 0 -153 43.5t-49 114.5q0 33 14.5 67t47 67.5t104.5 73.5q11 6 76 34l249 100q3 38 3 77q0 135 -33 184q-20 30 -70 30t-92 -19
t-61 -49q-14 -22 -24 -83q-7 -44 -13 -51q-15 -19 -54.5 -34.5t-53.5 -22.5q-54 -26 -86 -26q-14 12 -14 34q0 57 24 98q36 58 108.5 112.5t135.5 76.5q86 28 210 28q80 0 137.5 -29.5t80 -87.5t22.5 -209l-3 -165l2 -121v-31q0 -42 11.5 -57.5t29.5 -15.5q11 0 19 6l30 47z
M597 426q-57 -19 -128.5 -63.5t-99.5 -89.5q-20 -33 -20 -81q0 -43 26 -71t60 -28q56 0 95 32q53 43 62 68.5t9 144.5q0 44 -4 88zM250 992v123h518v-123h-518z" />
    <glyph glyph-name="Abreve" unicode="&#x102;" horiz-adv-x="1344" 
d="M-26 7l2 68q19 6 67 15q77 15 93.5 27t40.5 58l202 529l237 622q33 -1 63 -1h45l9 -18l174 -412q59 -131 106 -254.5t81 -201.5q20 -47 55 -141q18 -51 55 -128q20 -42 30 -49q18 -15 58.5 -20t87.5 -23q5 -33 5 -49q0 -7 -1 -22q-74 0 -163 7t-160 7q-79 0 -114 -2
l-170 -9l-49 -2q0 35 3 67l111 24q50 13 58 20q10 10 10 23t-5 27l-40 98l-79 196l-382 1q-21 -48 -87 -235q-19 -53 -19 -72q0 -26 14 -37q23 -19 88 -27q9 -2 71 -11q1 -36 1 -50q0 -11 -2 -23q-62 0 -296 17l-41 -7q-74 -12 -141 -12h-18zM444 569q234 -3 276 -3l25 1
q-30 89 -78 207.5t-78 180.5zM459 1686q28 1 42 1h36q13 -82 55 -119.5t109 -37.5q74 0 116.5 41t48.5 115h81v-16q0 -70 -28 -138.5t-88 -107.5t-127 -39q-104 0 -174 78t-71 223z" />
    <glyph glyph-name="abreve" unicode="&#x103;" horiz-adv-x="981" 
d="M925 194l23 -15q9 -7 11 -17l1 -5q-24 -89 -63 -122.5t-97 -33.5q-59 0 -101.5 32.5t-77.5 114.5q-43 -76 -121 -114.5t-191 -38.5q-104 0 -153 43.5t-49 114.5q0 33 14.5 67t47 67.5t104.5 73.5q11 6 76 34l249 100q3 38 3 77q0 135 -33 184q-20 30 -70 30t-92 -19
t-61 -49q-14 -22 -24 -83q-7 -44 -13 -51q-15 -19 -54.5 -34.5t-53.5 -22.5q-54 -26 -86 -26q-14 12 -14 34q0 57 24 98q36 58 108.5 112.5t135.5 76.5q86 28 210 28q80 0 137.5 -29.5t80 -87.5t22.5 -209l-3 -165l2 -121v-31q0 -42 11.5 -57.5t29.5 -15.5q11 0 19 6l30 47z
M597 426q-57 -19 -128.5 -63.5t-99.5 -89.5q-20 -33 -20 -81q0 -43 26 -71t60 -28q56 0 95 32q53 43 62 68.5t9 144.5q0 44 -4 88zM296 1274q28 1 42 1h36q13 -82 55 -119.5t109 -37.5q74 0 116.5 41t48.5 115h81v-16q0 -70 -28 -138.5t-88 -107.5t-127 -39q-104 0 -174 78
t-71 223z" />
    <glyph glyph-name="Aogonek" unicode="&#x104;" horiz-adv-x="1344" 
d="M1305 -358l29 -33q-87 -71 -200 -71q-116 0 -197.5 74.5t-81.5 169.5q0 152 190 239q-88 0 -203 -9l-114 -4q0 36 3 67q5 2 73 14q83 22 94.5 28t11.5 25q0 18 -29 84l-95 237l-382 1q-2 -3 -13 -33l-15 -40q-78 -199 -78 -233q0 -30 24 -44t78 -21q8 -2 71 -11l1 -50
q0 -12 -2 -23q-62 0 -177 9l-114 8l-46 -7q-81 -12 -159 -12l2 68q10 4 67 15q81 16 102.5 34.5t70 139.5t149.5 405l133 342l118 315l108 -1l33 -75q79 -177 137 -327l54 -118l69 -175q43 -113 77 -191q20 -47 55 -141q21 -58 49 -115t42.5 -67t49.5 -14q43 -6 90 -24
q5 -32 5 -48q0 -7 -1 -23l-94 1l-145 12q-29 0 -71.5 -51.5t-42.5 -98.5q0 -80 70 -154t204 -74zM444 569l89 -1h138l49 -2l25 1q-4 13 -11 30l-5 11q-87 237 -140 347z" />
    <glyph glyph-name="aogonek" unicode="&#x105;" horiz-adv-x="981" 
d="M1040 -358l28 -33q-87 -71 -200 -71q-115 0 -197 74.5t-82 169.5q0 143 163 225q-81 20 -131 141q-88 -153 -312 -153q-202 0 -202 158q0 66 52 124t135 93l304 125q3 33 3 72q0 124 -23.5 171.5t-79.5 47.5q-55 0 -97.5 -21.5t-56 -47t-23.5 -82.5q-7 -43 -16 -56
t-47 -27q-44 -18 -58 -25q-54 -26 -86 -26q-14 10 -14 34q0 106 129 210.5t350 104.5q79 0 137.5 -30t80 -89t21.5 -205l-3 -167l2 -121q0 -66 9 -85t33 -19q16 0 35 32q16 26 31 28l23 -15q9 -7 11 -17q-7 -110 -116 -159q-77 -61 -77 -136q0 -77 69.5 -151t204.5 -74z
M597 426q-248 -97 -248 -234q0 -42 25.5 -70.5t60.5 -28.5q58 0 105 40t54 64t7 105q0 92 -4 124z" />
    <glyph glyph-name="Cacute" unicode="&#x106;" horiz-adv-x="1387" 
d="M1229 1280q13 -30 53 -171q18 -64 19 -136h-91q-96 136 -198 195.5t-228 59.5q-155 0 -250 -121q-129 -164 -129 -457q0 -170 22 -242q36 -117 91 -191q42 -56 110 -89q88 -45 188 -45q110 0 212.5 68.5t196.5 204.5q37 7 97 8q-4 -38 -13 -79q-3 -16 -23 -127l-9 -30
l-14 -47q-61 -47 -171.5 -70.5t-271.5 -23.5q-123 0 -232.5 23t-187.5 73q-114 72 -179 156t-96.5 183t-31.5 222q0 298 196.5 492t501.5 194q124 0 233.5 -12.5t204.5 -37.5zM687 1395q31 110 102 321l274 -3l-301 -319q-37 -1 -44 -1q-14 0 -31 2z" />
    <glyph glyph-name="cacute" unicode="&#x107;" horiz-adv-x="960" 
d="M856 267q16 -9 24 -12q23 -10 37 -25q-27 -100 -131 -173t-263 -73q-100 0 -198 42t-156 111q-45 53 -67.5 130t-22.5 131q0 65 28 147.5t94 155.5t166.5 116t226.5 43q173 0 241 -54t68 -108q0 -53 -27.5 -83.5t-75.5 -30.5q-41 0 -75.5 27t-57.5 91q-18 46 -46 67
q-28 20 -67 20q-94 0 -168 -80.5t-74 -219.5q0 -167 90.5 -265.5t205.5 -98.5q57 0 97 13q25 9 68 39q11 8 41.5 43t41.5 47zM374 959q31 110 102 321l274 -3l-301 -319q-37 -1 -44 -1q-14 0 -31 2z" />
    <glyph glyph-name="Ccircumflex" unicode="&#x108;" horiz-adv-x="1387" 
d="M1229 1280q13 -30 53 -171q18 -64 19 -136h-91q-96 136 -198 195.5t-228 59.5q-155 0 -250 -121q-129 -164 -129 -457q0 -170 22 -242q36 -117 91 -191q42 -56 110 -89q88 -45 188 -45q110 0 212.5 68.5t196.5 204.5q37 7 97 8q-4 -38 -13 -79q-3 -16 -23 -127l-9 -30
l-14 -47q-61 -47 -171.5 -70.5t-271.5 -23.5q-123 0 -232.5 23t-187.5 73q-114 72 -179 156t-96.5 183t-31.5 222q0 298 196.5 492t501.5 194q124 0 233.5 -12.5t204.5 -37.5zM516 1384l193 349q20 1 38 1l176 -1q44 -78 105 -194l83 -159l-78 -1l-218 192
q-29 -21 -84.5 -72t-135.5 -118z" />
    <glyph glyph-name="ccircumflex" unicode="&#x109;" horiz-adv-x="960" 
d="M856 267q16 -9 24 -12q23 -10 37 -25q-27 -100 -131 -173t-263 -73q-100 0 -198 42t-156 111q-45 53 -67.5 130t-22.5 131q0 65 28 147.5t94 155.5t166.5 116t226.5 43q173 0 241 -54t68 -108q0 -53 -27.5 -83.5t-75.5 -30.5q-41 0 -75.5 27t-57.5 91q-18 46 -46 67
q-28 20 -67 20q-94 0 -168 -80.5t-74 -219.5q0 -167 90.5 -265.5t205.5 -98.5q57 0 97 13q25 9 68 39q11 8 41.5 43t41.5 47zM257 948l193 349q20 1 38 1l176 -1q44 -78 105 -194l83 -159l-78 -1l-218 192q-29 -21 -84.5 -72t-135.5 -118z" />
    <glyph glyph-name="Cdot" unicode="&#x10a;" horiz-adv-x="1387" 
d="M1229 1280q13 -30 53 -171q18 -64 19 -136h-91q-96 136 -198 195.5t-228 59.5q-155 0 -250 -121q-129 -164 -129 -457q0 -170 22 -242q36 -117 91 -191q42 -56 110 -89q88 -45 188 -45q110 0 212.5 68.5t196.5 204.5q37 7 97 8q-4 -38 -13 -79q-3 -16 -23 -127l-9 -30
l-14 -47q-61 -47 -171.5 -70.5t-271.5 -23.5q-123 0 -232.5 23t-187.5 73q-114 72 -179 156t-96.5 183t-31.5 222q0 298 196.5 492t501.5 194q124 0 233.5 -12.5t204.5 -37.5zM847 1625q47 0 82.5 -37t35.5 -88t-36 -87.5t-88 -36.5t-87.5 36t-35.5 88q0 51 36 88t84 37h9z
" />
    <glyph glyph-name="cdot" unicode="&#x10b;" horiz-adv-x="960" 
d="M856 267q16 -9 24 -12q23 -10 37 -25q-27 -100 -131 -173t-263 -73q-100 0 -198 42t-156 111q-45 53 -67.5 130t-22.5 131q0 65 28 147.5t94 155.5t166.5 116t226.5 43q173 0 241 -54t68 -108q0 -53 -27.5 -83.5t-75.5 -30.5q-41 0 -75.5 27t-57.5 91q-18 46 -46 67
q-28 20 -67 20q-94 0 -168 -80.5t-74 -219.5q0 -167 90.5 -265.5t205.5 -98.5q57 0 97 13q25 9 68 39q11 8 41.5 43t41.5 47zM561 1249q47 0 82.5 -37t35.5 -88t-36 -87.5t-88 -36.5t-87.5 36t-35.5 88q0 51 36 88t84 37h9z" />
    <glyph glyph-name="Ccaron" unicode="&#x10c;" horiz-adv-x="1387" 
d="M1229 1280q13 -30 53 -171q18 -64 19 -136h-91q-96 136 -198 195.5t-228 59.5q-155 0 -250 -121q-129 -164 -129 -457q0 -170 22 -242q36 -117 91 -191q42 -56 110 -89q88 -45 188 -45q110 0 212.5 68.5t196.5 204.5q37 7 97 8q-4 -38 -13 -79q-3 -16 -23 -127l-9 -30
l-14 -47q-61 -47 -171.5 -70.5t-271.5 -23.5q-123 0 -232.5 23t-187.5 73q-114 72 -179 156t-96.5 183t-31.5 222q0 298 196.5 492t501.5 194q124 0 233.5 -12.5t204.5 -37.5zM486 1735l79 1q21 -19 155 -135l64 -53l220 189l76 -2l-190 -351q-111 -1 -169 -1q-18 0 -45 5z
" />
    <glyph glyph-name="ccaron" unicode="&#x10d;" horiz-adv-x="960" 
d="M856 267q16 -9 24 -12q23 -10 37 -25q-27 -100 -131 -173t-263 -73q-100 0 -198 42t-156 111q-45 53 -67.5 130t-22.5 131q0 65 28 147.5t94 155.5t166.5 116t226.5 43q173 0 241 -54t68 -108q0 -53 -27.5 -83.5t-75.5 -30.5q-41 0 -75.5 27t-57.5 91q-18 46 -46 67
q-28 20 -67 20q-94 0 -168 -80.5t-74 -219.5q0 -167 90.5 -265.5t205.5 -98.5q57 0 97 13q25 9 68 39q11 8 41.5 43t41.5 47zM203 1299l79 1q21 -19 155 -135l64 -53l220 189l76 -2l-190 -351q-111 -1 -169 -1q-18 0 -45 5z" />
    <glyph glyph-name="Dcaron" unicode="&#x10e;" horiz-adv-x="1600" 
d="M51 88q15 4 62 12q93 16 122 43q18 17 23 65q1 12 7 305l-1 110l1 133l-4 341l1 40q0 26 -14 40q-7 7 -39 7q-26 0 -60 -6q-44 -2 -79 -8q-6 -1 -19 -3l-1 88q59 19 169 37q182 30 448 30q222 0 325 -25q156 -39 254 -116q131 -103 196.5 -238.5t65.5 -295.5
q0 -202 -88 -346.5t-253 -231.5q-116 -62 -315 -62l-205 9l-60 3l-81 -2l-24 2l-84 -2l-111 1q-6 0 -102 -7q-32 -2 -84 -3q-32 0 -48 -1q-2 22 -2 81zM536 1202q-3 -31 -3 -44l3 -170l-2 -148q3 -72 3 -126l-1 -95l2 -159l-2 -98q0 -137 51 -186q74 -70 204 -70
q99 0 146 19q98 38 155.5 101t87.5 178.5t30 238.5q0 202 -64.5 330t-176.5 192.5t-257 64.5q-102 0 -176 -28zM496 1751l79 1q21 -19 155 -135l64 -53l220 189l76 -2l-190 -351q-111 -1 -169 -1q-18 0 -45 5z" />
    <glyph glyph-name="dcaron" unicode="&#x10f;" horiz-adv-x="1536" 
d="M262 773q49 34 94.5 49t128.5 23h56q109 0 209 -75l2 24l-1 67l4 107q0 169 -26 214q-15 27 -52.5 29t-60.5 13v48q19 6 49 6.5t117 20.5l34 7l99 23q30 7 37 7q5 0 16 -2q6 -21 6 -31l-1 -15v-18q0 -28 3 -149v-54l1 -29l-1 -50l3 -104l-2 -61q-2 -40 -2 -126
q0 -14 1 -25v-37q-1 -16 -1 -24q0 -15 3 -43v-55l-1 -21q-2 -29 -2 -80q0 -52 2 -94q1 -17 1 -31v-75q0 -36 2 -86q18 -11 88 -16q22 -1 39 -5q5 -15 5 -22q0 -9 -7 -27q-41 -10 -86 -15q-137 -17 -195 -48q-28 -16 -39 -16t-25 2q1 18 1 23q0 68 -3 87q-15 -8 -37 -21
q-67 -40 -122 -55.5t-126 -15.5q-126 0 -201 48q-111 70 -153.5 168t-42.5 215q0 202 186 345zM570 111q21 -2 36 -2q33 0 70.5 14t79.5 41q1 33 1 41q0 317 -9 382q-12 87 -66 134t-131 47q-44 0 -83.5 -16t-64.5 -46q-37 -44 -56 -100q-26 -78 -26 -146q0 -163 69 -249.5
t180 -99.5zM1100 770q7 14 39 31q48 24 88 72.5t40 98.5q0 54 -54 82q-88 46 -105.5 77.5t-17.5 65.5q0 59 45 99t103 40q81 0 147 -74.5t66 -183.5q0 -167 -115 -275.5t-186 -108.5q-41 0 -50 76z" />
    <glyph glyph-name="Dslash" unicode="&#x110;" horiz-adv-x="1600" 
d="M264 600h-204v91h205v61l-3 166v90l-1 89l1 40q0 26 -14 40q-7 7 -39 7q-26 0 -60 -6q-44 -2 -79 -8q-6 -1 -19 -3l-1 88q59 19 169 37q182 30 448 30q222 0 325 -25q156 -39 254 -116q131 -103 196.5 -238.5t65.5 -295.5q0 -202 -88 -346.5t-253 -231.5
q-116 -62 -315 -62l-205 9l-60 3l-81 -2l-24 2l-84 -2l-111 1q-6 0 -102 -7q-32 -2 -84 -3q-32 0 -48 -1q-2 22 -2 81q15 4 62 12q91 16 121 42q19 18 25 74t6 305zM536 600l2 -123q-2 -99 -2 -114q0 -138 51 -187q74 -70 204 -70q99 0 146 19q98 38 155.5 101t87.5 178.5
t30 238.5q0 201 -64.5 329.5t-176.5 193t-257 64.5q-102 0 -176 -28q-3 -31 -3 -44l3 -170l-2 -148q3 -72 3 -149h378v-91h-379z" />
    <glyph glyph-name="dmacron" unicode="&#x111;" horiz-adv-x="1131" 
d="M757 969h-375v91h372q-6 99 -27 129q-15 21 -50.5 22.5t-58.5 12.5v48q19 6 49 6.5t117 20.5l34 7l99 23q30 7 37 7q5 0 16 -2q6 -21 6 -31l-1 -15v-18q0 -28 3 -149v-61h163v-91l-162 -2l2 -81q0 -5 -2 -63q-2 -41 -2 -126q0 -14 1 -25v-37q-1 -16 -1 -24q0 -15 3 -43
v-55l-1 -21q-2 -29 -2 -80q0 -52 2 -94q1 -17 1 -31v-75q0 -36 2 -86q18 -11 88 -16q22 -1 39 -5q5 -15 5 -22q0 -9 -7 -27q-41 -10 -86 -15q-137 -17 -195 -48q-28 -16 -39 -16t-25 2q1 18 1 23q0 68 -3 87q-15 -8 -37 -21q-67 -40 -122 -55.5t-126 -15.5q-126 0 -201 48
q-111 70 -153.5 168t-42.5 215q0 83 40 174q20 46 79.5 110.5t121.5 93.5t168 39h56q109 0 209 -75l2 24l-1 67zM572 111q21 -2 36 -2q33 0 70.5 14t79.5 41q1 33 1 41q0 317 -9 382q-12 87 -66 134t-131 47q-44 0 -83.5 -16t-64.5 -46q-37 -44 -56 -100q-26 -78 -26 -146
q0 -163 69 -249.5t180 -99.5z" />
    <glyph glyph-name="Emacron" unicode="&#x112;" 
d="M41 1301q57 -3 99 -9q79 -11 183 -11q36 0 185 6q223 9 403 9l181 2q61 0 180 -15q18 -20 18 -54v-206l2 -41q0 -6 -1 -18l-41 -2q-8 0 -34 2q-9 20 -24 59l-40 71q-23 45 -64 92q-25 7 -64 8q-10 1 -61 5q-93 8 -200 8q-122 0 -218 -4q-3 -25 -3 -197l2 -168v-126
q25 -3 43 -3q179 0 255 7t94 19.5t32 43.5q9 22 35 147l13 1l58 -1q4 -89 4 -135q0 -105 -1.5 -135t-1.5 -47q0 -27 3 -86.5t3 -88.5v-22h-71q-4 16 -15 66q-20 93 -36 116q-12 18 -40 27q-20 7 -148 7q-151 0 -227 -8q-1 -26 -1 -34q0 -119 4 -198l-2 -216q0 -38 27 -52
q41 -21 251 -21q139 0 236 21q67 15 118 67q68 67 113 188q31 3 51 3q11 0 33 -1q-3 -25 -5 -42l-6 -30l-37 -189l-18 -114q-65 -3 -103 -3q-56 0 -299 10q-171 7 -412 7q-120 0 -295 -10h-42l-121 -4v69q19 5 76 11q104 12 144 32q11 29 11 73q0 17 -1 58l1 31l-3 377
l1 113l-5 160l1 113l-9 124q0 5 -2 20q-10 11 -30 14q-11 2 -30 6q-57 12 -110 14q-19 1 -44 4zM458 1404v123h518v-123h-518z" />
    <glyph glyph-name="emacron" unicode="&#x113;" horiz-adv-x="960" 
d="M86 536q26 85 46 113q56 82 119.5 128t114.5 61q66 19 107 19q94 0 152 -14.5t97 -41.5q56 -39 90 -79t55.5 -94t23.5 -131l-111 2q-46 0 -202 9q-58 4 -80 4q-7 0 -108 -1h-86q-2 -14 -2 -24q0 -53 13 -111.5t39 -103t64.5 -76.5t79.5 -46l58 -19q77 0 103 5
q48 10 84.5 25.5t88.5 52.5q36 -26 60 -47q-88 -97 -182.5 -140.5t-211.5 -43.5q-79 0 -129 14q-67 18 -121 55t-93 92t-58 113q-25 76 -25 122q0 87 14 157zM667 579q-1 56 -22 107t-65 79.5t-89 28.5q-67 0 -121 -59t-61 -160l228 -1q22 0 62 3q29 3 41 3q9 0 27 -1z
M242 992v123h518v-123h-518z" />
    <glyph glyph-name="Ebreve" unicode="&#x114;" 
d="M41 1301q57 -3 99 -9q79 -11 183 -11q36 0 185 6q223 9 403 9l181 2q61 0 180 -15q18 -20 18 -54v-206l2 -41q0 -6 -1 -18l-41 -2q-8 0 -34 2q-9 20 -24 59l-40 71q-23 45 -64 92q-25 7 -64 8q-10 1 -61 5q-93 8 -200 8q-122 0 -218 -4q-3 -25 -3 -197l2 -168v-126
q25 -3 43 -3q179 0 255 7t94 19.5t32 43.5q9 22 35 147l13 1l58 -1q4 -89 4 -135q0 -105 -1.5 -135t-1.5 -47q0 -27 3 -86.5t3 -88.5v-22h-71q-4 16 -15 66q-20 93 -36 116q-12 18 -40 27q-20 7 -148 7q-151 0 -227 -8q-1 -26 -1 -34q0 -119 4 -198l-2 -216q0 -38 27 -52
q41 -21 251 -21q139 0 236 21q67 15 118 67q68 67 113 188q31 3 51 3q11 0 33 -1q-3 -25 -5 -42l-6 -30l-37 -189l-18 -114q-65 -3 -103 -3q-56 0 -299 10q-171 7 -412 7q-120 0 -295 -10h-42l-121 -4v69q19 5 76 11q104 12 144 32q11 29 11 73q0 17 -1 58l1 31l-3 377
l1 113l-5 160l1 113l-9 124q0 5 -2 20q-10 11 -30 14q-11 2 -30 6q-57 12 -110 14q-19 1 -44 4zM483 1686q28 1 42 1h36q13 -82 55 -119.5t109 -37.5q74 0 116.5 41t48.5 115h81v-16q0 -70 -28 -138.5t-88 -107.5t-127 -39q-104 0 -174 78t-71 223z" />
    <glyph glyph-name="ebreve" unicode="&#x115;" horiz-adv-x="960" 
d="M86 536q26 85 46 113q56 82 119.5 128t114.5 61q66 19 107 19q94 0 152 -14.5t97 -41.5q56 -39 90 -79t55.5 -94t23.5 -131l-111 2q-46 0 -202 9q-58 4 -80 4q-7 0 -108 -1h-86q-2 -14 -2 -24q0 -53 13 -111.5t39 -103t64.5 -76.5t79.5 -46l58 -19q77 0 103 5
q48 10 84.5 25.5t88.5 52.5q36 -26 60 -47q-88 -97 -182.5 -140.5t-211.5 -43.5q-79 0 -129 14q-67 18 -121 55t-93 92t-58 113q-25 76 -25 122q0 87 14 157zM667 579q-1 56 -22 107t-65 79.5t-89 28.5q-67 0 -121 -59t-61 -160l228 -1q22 0 62 3q29 3 41 3q9 0 27 -1z
M269 1274q28 1 42 1h36q13 -82 55 -119.5t109 -37.5q74 0 116.5 41t48.5 115h81v-16q0 -70 -28 -138.5t-88 -107.5t-127 -39q-104 0 -174 78t-71 223z" />
    <glyph glyph-name="Edot" unicode="&#x116;" 
d="M41 1301q57 -3 99 -9q79 -11 183 -11q36 0 185 6q223 9 403 9l181 2q61 0 180 -15q18 -20 18 -54v-206l2 -41q0 -6 -1 -18l-41 -2q-8 0 -34 2q-9 20 -24 59l-40 71q-23 45 -64 92q-25 7 -64 8q-10 1 -61 5q-93 8 -200 8q-122 0 -218 -4q-3 -25 -3 -197l2 -168v-126
q25 -3 43 -3q179 0 255 7t94 19.5t32 43.5q9 22 35 147l13 1l58 -1q4 -89 4 -135q0 -105 -1.5 -135t-1.5 -47q0 -27 3 -86.5t3 -88.5v-22h-71q-4 16 -15 66q-20 93 -36 116q-12 18 -40 27q-20 7 -148 7q-151 0 -227 -8q-1 -26 -1 -34q0 -119 4 -198l-2 -216q0 -38 27 -52
q41 -21 251 -21q139 0 236 21q67 15 118 67q68 67 113 188q31 3 51 3q11 0 33 -1q-3 -25 -5 -42l-6 -30l-37 -189l-18 -114q-65 -3 -103 -3q-56 0 -299 10q-171 7 -412 7q-120 0 -295 -10h-42l-121 -4v69q19 5 76 11q104 12 144 32q11 29 11 73q0 17 -1 58l1 31l-3 377
l1 113l-5 160l1 113l-9 124q0 5 -2 20q-10 11 -30 14q-11 2 -30 6q-57 12 -110 14q-19 1 -44 4zM735 1625q47 0 82.5 -37t35.5 -88t-36 -87.5t-88 -36.5t-87.5 36t-35.5 88q0 51 36 88t84 37h9z" />
    <glyph glyph-name="edot" unicode="&#x117;" horiz-adv-x="960" 
d="M86 536q26 85 46 113q56 82 119.5 128t114.5 61q66 19 107 19q94 0 152 -14.5t97 -41.5q56 -39 90 -79t55.5 -94t23.5 -131l-111 2q-46 0 -202 9q-58 4 -80 4q-7 0 -108 -1h-86q-2 -14 -2 -24q0 -53 13 -111.5t39 -103t64.5 -76.5t79.5 -46l58 -19q77 0 103 5
q48 10 84.5 25.5t88.5 52.5q36 -26 60 -47q-88 -97 -182.5 -140.5t-211.5 -43.5q-79 0 -129 14q-67 18 -121 55t-93 92t-58 113q-25 76 -25 122q0 87 14 157zM667 579q-1 56 -22 107t-65 79.5t-89 28.5q-67 0 -121 -59t-61 -160l228 -1q22 0 62 3q29 3 41 3q9 0 27 -1z
M499 1249q47 0 82.5 -37t35.5 -88t-36 -87.5t-88 -36.5t-87.5 36t-35.5 88q0 51 36 88t84 37h9z" />
    <glyph glyph-name="Eogonek" unicode="&#x118;" 
d="M1237 -358l29 -33q-87 -71 -200 -71q-111 0 -195 73.5t-84 170.5q0 142 165 226l-465 8q-112 0 -191 -5l-97 -5q-45 0 -89 -2l-74 -2v69q9 4 76 11q110 13 144 32q11 25 11 73v34l-1 26l1 29l-3 377l1 69l-5 204l1 113q0 61 -11 144q-8 11 -30 14l-30 6q-15 3 -46 7
l-14 3q-22 3 -50 4q-19 1 -44 4l5 80q53 -3 99 -9q79 -11 184 -11l184 6l403 9l183 2q66 0 178 -15q18 -16 18 -54l1 -265l-41 -2q-14 0 -34 2q-9 19 -24 59l-40 71q-24 47 -64 92q-20 7 -64 8l-61 5q-92 8 -204 8q-120 0 -214 -4l-2 -21l-1 -176l2 -294q24 -3 41 -3
q324 0 357.5 29.5t60.5 187.5q11 1 14 1l57 -1q4 -79 4 -156l-1 -114q-2 -30 -2 -48l3 -91q3 -52 3 -105h-71l-15 66q-26 119 -52 134.5t-174 15.5q-149 0 -225 -8l-1 -36q0 -117 4 -196l-2 -216q0 -47 50 -60t227 -13q232 0 319.5 56.5t148.5 219.5q30 3 49 3q13 0 35 -1
q-2 -39 -50 -266l-6 -47q-8 -57 -10 -62q-68 -3 -121 -3q-37 0 -60 2q-48 4 -64 4q-34 0 -66.5 -48t-32.5 -87q0 -80 70 -154t203 -74z" />
    <glyph glyph-name="eogonek" unicode="&#x119;" horiz-adv-x="960" 
d="M763 -358l29 -33q-87 -71 -200 -71q-115 0 -197 74.5t-82 169.5q0 123 124 203q-106 9 -194 72t-129.5 156.5t-41.5 170.5q0 57 9 116l1 11q2 16 4 25q39 147 155.5 234t234.5 87q138 0 221.5 -42t137 -122.5t56.5 -195.5l-110 2q-57 0 -87 3l-196 10l-108 -1h-86
q-2 -13 -2 -24q0 -105 40.5 -193t114.5 -125.5t104 -37.5q86 0 143.5 17t127.5 66q38 -27 60 -47q-133 -156 -346 -185q-56 -60 -56 -111q0 -81 69.5 -155t203.5 -74zM667 579q0 98 -52 156.5t-124 58.5q-74 0 -125 -65t-57 -154l224 -1q26 0 66 3q29 3 41 3q9 0 27 -1z" />
    <glyph glyph-name="Ecaron" unicode="&#x11a;" 
d="M41 1301q57 -3 99 -9q79 -11 183 -11q36 0 185 6q223 9 403 9l181 2q61 0 180 -15q18 -20 18 -54v-206l2 -41q0 -6 -1 -18l-41 -2q-8 0 -34 2q-9 20 -24 59l-40 71q-23 45 -64 92q-25 7 -64 8q-10 1 -61 5q-93 8 -200 8q-122 0 -218 -4q-3 -25 -3 -197l2 -168v-126
q25 -3 43 -3q179 0 255 7t94 19.5t32 43.5q9 22 35 147l13 1l58 -1q4 -89 4 -135q0 -105 -1.5 -135t-1.5 -47q0 -27 3 -86.5t3 -88.5v-22h-71q-4 16 -15 66q-20 93 -36 116q-12 18 -40 27q-20 7 -148 7q-151 0 -227 -8q-1 -26 -1 -34q0 -119 4 -198l-2 -216q0 -38 27 -52
q41 -21 251 -21q139 0 236 21q67 15 118 67q68 67 113 188q31 3 51 3q11 0 33 -1q-3 -25 -5 -42l-6 -30l-37 -189l-18 -114q-65 -3 -103 -3q-56 0 -299 10q-171 7 -412 7q-120 0 -295 -10h-42l-121 -4v69q19 5 76 11q104 12 144 32q11 29 11 73q0 17 -1 58l1 31l-3 377
l1 113l-5 160l1 113l-9 124q0 5 -2 20q-10 11 -30 14q-11 2 -30 6q-57 12 -110 14q-19 1 -44 4zM428 1751l79 1q21 -19 155 -135l64 -53l220 189l76 -2l-190 -351q-111 -1 -169 -1q-18 0 -45 5z" />
    <glyph glyph-name="ecaron" unicode="&#x11b;" horiz-adv-x="960" 
d="M86 536q26 85 46 113q56 82 119.5 128t114.5 61q66 19 107 19q94 0 152 -14.5t97 -41.5q56 -39 90 -79t55.5 -94t23.5 -131l-111 2q-46 0 -202 9q-58 4 -80 4q-7 0 -108 -1h-86q-2 -14 -2 -24q0 -53 13 -111.5t39 -103t64.5 -76.5t79.5 -46l58 -19q77 0 103 5
q48 10 84.5 25.5t88.5 52.5q36 -26 60 -47q-88 -97 -182.5 -140.5t-211.5 -43.5q-79 0 -129 14q-67 18 -121 55t-93 92t-58 113q-25 76 -25 122q0 87 14 157zM667 579q-1 56 -22 107t-65 79.5t-89 28.5q-67 0 -121 -59t-61 -160l228 -1q22 0 62 3q29 3 41 3q9 0 27 -1z
M204 1299l79 1q21 -19 155 -135l64 -53l220 189l76 -2l-190 -351q-111 -1 -169 -1q-18 0 -45 5z" />
    <glyph glyph-name="Gcircumflex" unicode="&#x11c;" horiz-adv-x="1493" 
d="M1294 1217q7 -29 16 -114.5t9 -124.5q0 -15 -7 -37q-43 1 -73 8q-76 117 -107 147q-58 56 -149 95q-67 29 -154 29q-167 0 -294 -150t-127 -446q0 -139 49.5 -270t148.5 -205.5t233 -74.5q65 0 138 17q37 8 60 32q16 16 21 48q8 58 8 165q0 104 -3 143q-7 15 -13.5 19.5
t-40.5 14.5l-89 24q-29 7 -36 17q-2 13 -2 19q0 14 7 39q18 6 25 6q109 0 189 -8q28 -2 61 -2l158 2l67 2q12 1 67 -2q1 -26 1 -44q0 -11 -7 -25q-17 -10 -58 -25t-46 -20q-8 -8 -11 -25t-3 -119q0 -118 -1 -141q-4 -74 -4 -84q0 -37 -10 -46q-28 -28 -173.5 -63.5
t-338.5 -35.5q-135 0 -234.5 21.5t-169.5 63.5q-94 56 -161 136t-100 173q-46 132 -46 263q0 147 68 298q50 109 140.5 196.5t226.5 139.5t296 52q20 0 65 -5q122 0 228 -30.5t176 -72.5zM514 1404l193 349q20 1 38 1l176 -1q44 -78 105 -194l83 -159l-78 -1l-218 192
q-29 -21 -84.5 -72t-135.5 -118z" />
    <glyph glyph-name="gcircumflex" unicode="&#x11d;" horiz-adv-x="1109" 
d="M289 -128q-135 34 -180 79.5t-45 101.5q0 45 24 69t219 135q-99 59 -136 114q-48 72 -48 142q0 63 26 134q56 102 153.5 152.5t251.5 50.5q62 0 107 -8q21 -4 70 -22l38 -14q51 -32 89 -66q86 17 139 35q37 11 64 11q20 0 32 -17t12 -80q0 -55 -15 -76.5t-31 -21.5
q-6 0 -35 14q-68 31 -109 33q24 -69 24 -131q0 -73 -42.5 -139.5t-116.5 -105.5q-103 -55 -206 -55q-66 0 -90 3q-35 4 -98 18q-85 -47 -119 -80q-17 -16 -17 -38q0 -20 17.5 -36t58.5 -22q8 -1 22 -4q53 -4 141 -4q11 0 71 3q17 1 29 1q239 0 335 -76q95 -76 95 -186
q0 -59 -33.5 -115.5t-90.5 -92t-164.5 -63.5t-230.5 -28q-133 0 -238.5 26t-165.5 85q-46 44 -46 94q0 49 38.5 87.5t200.5 92.5zM539 274q67 0 114.5 57.5t47.5 178.5q0 160 -42.5 215t-119.5 55q-10 0 -53 -5q-48 -9 -87.5 -68t-39.5 -158q0 -27 7 -107q3 -34 15 -59
q17 -39 37 -60.5t53.5 -35t67.5 -13.5zM596 -445q148 17 230 80q52 41 52 81q0 22 -11 43t-39.5 41.5t-64.5 28.5q-51 10 -135 10l-123 2q-162 0 -217.5 -40t-55.5 -106q0 -35 31 -69.5t104 -54.5t157 -20q24 0 72 4zM248 948l193 349q20 1 38 1l176 -1q44 -78 105 -194
l83 -159l-78 -1l-218 192q-29 -21 -84.5 -72t-135.5 -118z" />
    <glyph glyph-name="Gbreve" unicode="&#x11e;" horiz-adv-x="1493" 
d="M1294 1217q7 -29 16 -114.5t9 -124.5q0 -15 -7 -37q-43 1 -73 8q-76 117 -107 147q-58 56 -149 95q-67 29 -154 29q-167 0 -294 -150t-127 -446q0 -139 49.5 -270t148.5 -205.5t233 -74.5q65 0 138 17q37 8 60 32q16 16 21 48q8 58 8 165q0 104 -3 143q-7 15 -13.5 19.5
t-40.5 14.5l-89 24q-29 7 -36 17q-2 13 -2 19q0 14 7 39q18 6 25 6q109 0 189 -8q28 -2 61 -2l158 2l67 2q12 1 67 -2q1 -26 1 -44q0 -11 -7 -25q-17 -10 -58 -25t-46 -20q-8 -8 -11 -25t-3 -119q0 -118 -1 -141q-4 -74 -4 -84q0 -37 -10 -46q-28 -28 -173.5 -63.5
t-338.5 -35.5q-135 0 -234.5 21.5t-169.5 63.5q-94 56 -161 136t-100 173q-46 132 -46 263q0 147 68 298q50 109 140.5 196.5t226.5 139.5t296 52q20 0 65 -5q122 0 228 -30.5t176 -72.5zM512 1710q28 1 42 1h36q13 -82 55 -119.5t109 -37.5q74 0 116.5 41t48.5 115h81v-16
q0 -70 -28 -138.5t-88 -107.5t-127 -39q-104 0 -174 78t-71 223z" />
    <glyph glyph-name="gbreve" unicode="&#x11f;" horiz-adv-x="1109" 
d="M289 -128q-135 34 -180 79.5t-45 101.5q0 45 24 69t219 135q-99 59 -136 114q-48 72 -48 142q0 63 26 134q56 102 153.5 152.5t251.5 50.5q62 0 107 -8q21 -4 70 -22l38 -14q51 -32 89 -66q86 17 139 35q37 11 64 11q20 0 32 -17t12 -80q0 -55 -15 -76.5t-31 -21.5
q-6 0 -35 14q-68 31 -109 33q24 -69 24 -131q0 -73 -42.5 -139.5t-116.5 -105.5q-103 -55 -206 -55q-66 0 -90 3q-35 4 -98 18q-85 -47 -119 -80q-17 -16 -17 -38q0 -20 17.5 -36t58.5 -22q8 -1 22 -4q53 -4 141 -4q11 0 71 3q17 1 29 1q239 0 335 -76q95 -76 95 -186
q0 -59 -33.5 -115.5t-90.5 -92t-164.5 -63.5t-230.5 -28q-133 0 -238.5 26t-165.5 85q-46 44 -46 94q0 49 38.5 87.5t200.5 92.5zM539 274q67 0 114.5 57.5t47.5 178.5q0 160 -42.5 215t-119.5 55q-10 0 -53 -5q-48 -9 -87.5 -68t-39.5 -158q0 -27 7 -107q3 -34 15 -59
q17 -39 37 -60.5t53.5 -35t67.5 -13.5zM596 -445q148 17 230 80q52 41 52 81q0 22 -11 43t-39.5 41.5t-64.5 28.5q-51 10 -135 10l-123 2q-162 0 -217.5 -40t-55.5 -106q0 -35 31 -69.5t104 -54.5t157 -20q24 0 72 4zM320 1274q28 1 42 1h36q13 -82 55 -119.5t109 -37.5
q74 0 116.5 41t48.5 115h81v-16q0 -70 -28 -138.5t-88 -107.5t-127 -39q-104 0 -174 78t-71 223z" />
    <glyph glyph-name="Gdot" unicode="&#x120;" horiz-adv-x="1493" 
d="M1294 1217q7 -29 16 -114.5t9 -124.5q0 -15 -7 -37q-43 1 -73 8q-76 117 -107 147q-58 56 -149 95q-67 29 -154 29q-167 0 -294 -150t-127 -446q0 -139 49.5 -270t148.5 -205.5t233 -74.5q65 0 138 17q37 8 60 32q16 16 21 48q8 58 8 165q0 104 -3 143q-7 15 -13.5 19.5
t-40.5 14.5l-89 24q-29 7 -36 17q-2 13 -2 19q0 14 7 39q18 6 25 6q109 0 189 -8q28 -2 61 -2l158 2l67 2q12 1 67 -2q1 -26 1 -44q0 -11 -7 -25q-17 -10 -58 -25t-46 -20q-8 -8 -11 -25t-3 -119q0 -118 -1 -141q-4 -74 -4 -84q0 -37 -10 -46q-28 -28 -173.5 -63.5
t-338.5 -35.5q-135 0 -234.5 21.5t-169.5 63.5q-94 56 -161 136t-100 173q-46 132 -46 263q0 147 68 298q50 109 140.5 196.5t226.5 139.5t296 52q20 0 65 -5q122 0 228 -30.5t176 -72.5zM839 1629q47 0 82.5 -37t35.5 -88t-36 -87.5t-88 -36.5t-87.5 36t-35.5 88
q0 51 36 88t84 37h9z" />
    <glyph glyph-name="gdot" unicode="&#x121;" horiz-adv-x="1109" 
d="M289 -128q-135 34 -180 79.5t-45 101.5q0 45 24 69t219 135q-99 59 -136 114q-48 72 -48 142q0 63 26 134q56 102 153.5 152.5t251.5 50.5q62 0 107 -8q21 -4 70 -22l38 -14q51 -32 89 -66q86 17 139 35q37 11 64 11q20 0 32 -17t12 -80q0 -55 -15 -76.5t-31 -21.5
q-6 0 -35 14q-68 31 -109 33q24 -69 24 -131q0 -73 -42.5 -139.5t-116.5 -105.5q-103 -55 -206 -55q-66 0 -90 3q-35 4 -98 18q-85 -47 -119 -80q-17 -16 -17 -38q0 -20 17.5 -36t58.5 -22q8 -1 22 -4q53 -4 141 -4q11 0 71 3q17 1 29 1q239 0 335 -76q95 -76 95 -186
q0 -59 -33.5 -115.5t-90.5 -92t-164.5 -63.5t-230.5 -28q-133 0 -238.5 26t-165.5 85q-46 44 -46 94q0 49 38.5 87.5t200.5 92.5zM539 274q67 0 114.5 57.5t47.5 178.5q0 160 -42.5 215t-119.5 55q-10 0 -53 -5q-48 -9 -87.5 -68t-39.5 -158q0 -27 7 -107q3 -34 15 -59
q17 -39 37 -60.5t53.5 -35t67.5 -13.5zM596 -445q148 17 230 80q52 41 52 81q0 22 -11 43t-39.5 41.5t-64.5 28.5q-51 10 -135 10l-123 2q-162 0 -217.5 -40t-55.5 -106q0 -35 31 -69.5t104 -54.5t157 -20q24 0 72 4zM556 1249q47 0 82.5 -37t35.5 -88t-36 -87.5t-88 -36.5
t-87.5 36t-35.5 88q0 51 36 88t84 37h9z" />
    <glyph glyph-name="Gcedilla" unicode="&#x122;" horiz-adv-x="1493" 
d="M1294 1217q7 -29 16 -114.5t9 -124.5q0 -15 -7 -37q-43 1 -73 8q-76 117 -107 147q-58 56 -149 95q-67 29 -154 29q-167 0 -294 -150t-127 -446q0 -139 49.5 -270t148.5 -205.5t233 -74.5q65 0 138 17q37 8 60 32q16 16 21 48q8 58 8 165q0 104 -3 143q-7 15 -13.5 19.5
t-40.5 14.5l-89 24q-29 7 -36 17q-2 13 -2 19q0 14 7 39q18 6 25 6q109 0 189 -8q28 -2 61 -2l158 2l67 2q12 1 67 -2q1 -26 1 -44q0 -11 -7 -25q-17 -10 -58 -25t-46 -20q-8 -8 -11 -25t-3 -119q0 -118 -1 -141q-4 -74 -4 -84q0 -37 -10 -46q-28 -28 -173.5 -63.5
t-338.5 -35.5q-135 0 -234.5 21.5t-169.5 63.5q-94 56 -161 136t-100 173q-46 132 -46 263q0 147 68 298q50 109 140.5 196.5t226.5 139.5t296 52q20 0 65 -5q122 0 228 -30.5t176 -72.5zM605 -686q7 14 39 31q48 24 88 72.5t40 98.5q0 54 -54 82q-88 46 -105.5 77.5
t-17.5 65.5q0 59 45 99t103 40q81 0 147 -74.5t66 -183.5q0 -167 -115 -275.5t-186 -108.5q-41 0 -50 76z" />
    <glyph glyph-name="gcedilla" unicode="&#x123;" horiz-adv-x="1109" 
d="M289 -128q-135 34 -180 79.5t-45 101.5q0 45 24 69t219 135q-99 59 -136 114q-48 72 -48 142q0 63 26 134q56 102 153.5 152.5t251.5 50.5q62 0 107 -8q21 -4 70 -22l38 -14q51 -32 89 -66q86 17 139 35q37 11 64 11q20 0 32 -17t12 -80q0 -55 -15 -76.5t-31 -21.5
q-6 0 -35 14q-68 31 -109 33q24 -69 24 -131q0 -73 -42.5 -139.5t-116.5 -105.5q-103 -55 -206 -55q-66 0 -90 3q-35 4 -98 18q-85 -47 -119 -80q-17 -16 -17 -38q0 -20 17.5 -36t58.5 -22q8 -1 22 -4q53 -4 141 -4q11 0 71 3q17 1 29 1q239 0 335 -76q95 -76 95 -186
q0 -59 -33.5 -115.5t-90.5 -92t-164.5 -63.5t-230.5 -28q-133 0 -238.5 26t-165.5 85q-46 44 -46 94q0 49 38.5 87.5t200.5 92.5zM539 274q67 0 114.5 57.5t47.5 178.5q0 160 -42.5 215t-119.5 55q-10 0 -53 -5q-48 -9 -87.5 -68t-39.5 -158q0 -27 7 -107q3 -34 15 -59
q17 -39 37 -60.5t53.5 -35t67.5 -13.5zM596 -445q148 17 230 80q52 41 52 81q0 22 -11 43t-39.5 41.5t-64.5 28.5q-51 10 -135 10l-123 2q-162 0 -217.5 -40t-55.5 -106q0 -35 31 -69.5t104 -54.5t157 -20q24 0 72 4zM756 1438q-3 -11 -36 -28q-43 -21 -82.5 -66.5
t-39.5 -99.5q0 -25 13.5 -39t55.5 -38q54 -30 73 -52.5t19 -67.5q0 -53 -39.5 -87.5t-97.5 -34.5q-74 0 -131 65t-57 160q0 100 53.5 190t162.5 141l31 16q12 5 24 5q28 0 51 -64z" />
    <glyph glyph-name="Hcircumflex" unicode="&#x124;" horiz-adv-x="1771" 
d="M64 10q0 30 6 71l125 22q23 5 55 16l13 250q-4 135 -4 202l1 24q3 41 3 206l-2 29l2 84l-1 87v43q0 58 -9 136q-1 7 -8 24q-8 3 -17.5 4t-19.5 3q-39 7 -83 10l-15 4q-27 3 -41 8q-3 29 -3 37q0 12 6 33q20 4 56 4t50 1q122 -13 181 -14q27 0 54.5 -1.5t48.5 -1.5
q33 0 161 10q21 5 46 5q37 0 62 -4q1 -21 1 -30q0 -16 -4 -39l-176 -28q-22 -10 -22 -29l3 -37l1 -16l-1 -44l-2 -34v-8q1 -11 1 -19l-1 -127q1 -18 1 -27q0 -5 -2 -32q-1 -16 -1 -33q0 -15 3 -71q28 -5 47 -6l148 -3h72l180 -1l175 5q34 0 72 7q2 34 3 167l2 45l-6 170
l-7 70q-3 7 -14 13q-35 20 -140 45q-19 4 -36 10q2 35 8 57q22 1 27 1l97 -1q93 -12 189 -12q22 0 35 1l130 4q18 1 35 2q36 8 74 8q29 0 70 -3q-1 -39 -5 -71q-92 -19 -120.5 -27.5t-57.5 -23.5l-6 -20v-17l1 -26l-1 -13q-2 -21 -2 -32v-25q1 -45 1 -50v-127l1 -96l-2 -127
q-1 -44 3 -180v-142l2 -118q0 -33 -2 -80q21 -6 39 -10q94 -20 142 -41l3 -70q-40 -1 -47 -1q-48 0 -110 6q-82 9 -264 9q-82 0 -212 -13q-14 0 -34 6q1 46 5 65l77 18l81 13q12 3 31 9q11 81 12 269l1 85q-6 53 -6 127q-37 3 -80 4l-464 5l-9 1l-7 1q-7 0 -16 -1
q-26 -1 -44 -1h-28q-19 0 -43 -7l-4 -75v-13q2 -27 2 -35v-310q0 -26 3 -53l10 -6l147 -23q11 -4 17 -5q13 -3 22 -9q3 -23 3 -31q0 -13 -4 -36q-36 -1 -61 -1q-22 0 -41 1q-9 0 -17 1l-141 6q-50 5 -140 5l-21 -1q-42 -2 -49 -3q-62 -8 -194 -8zM582 1404l193 349
q20 1 38 1l176 -1q44 -78 105 -194l83 -159l-78 -1l-218 192q-29 -21 -84.5 -72t-135.5 -118z" />
    <glyph glyph-name="hcircumflex" unicode="&#x125;" horiz-adv-x="1131" 
d="M38 70q16 4 89 12q32 4 40 14q10 15 10 71v71l3 75v82l1 20l-1 50l2 17l4 363v28q0 186 -10 230q-6 26 -28.5 41t-105.5 28v21q0 15 2 37l84 18q25 7 48 12q56 12 141 50q15 9 28 15l54 -4l-2 -598q91 72 166 102t156 30q77 0 133.5 -27.5t87.5 -68t44 -98.5
q9 -39 9 -150v-64l1 -141l-5 -204q4 -9 9 -12q12 -5 59 -14q27 -5 42 -9q8 -15 8 -24l-1 -8q-2 -11 -2 -33l-23 -1q-15 0 -59 4q-84 8 -141 8q-37 0 -99 -4q-44 -2 -112 -2q-11 0 -20 3v24l-2 13q0 8 5 22q23 11 53.5 14.5t57.5 7.5q4 19 5 24l5 146v245q0 109 -12 147.5
t-50 63t-92 24.5q-63 0 -122.5 -29.5t-101.5 -69.5v-175q0 -144 -3 -216q-2 -43 -2 -54q0 -69 9 -95q4 -12 22 -22q37 -3 61.5 -3.5t39.5 -4.5q2 -25 2 -35q0 -14 -4 -34l-111 5q-63 5 -113 5l-140 -7l-98 1q-10 14 -21 50v13zM63 1433l193 349q20 1 38 1l176 -1
q44 -78 105 -194l83 -159l-78 -1l-218 192q-29 -21 -84.5 -72t-135.5 -118z" />
    <glyph glyph-name="Hbar" unicode="&#x126;" horiz-adv-x="1771" 
d="M263 921h-195q2 24 2 34l-1 51q0 2 3 17h190q0 175 -21.5 183.5t-115.5 14.5l-15 4q-28 3 -41 8q-3 29 -3 37q0 12 6 33q6 4 86 4l20 1l156 -13q53 -1 83 -3q24 -1 45 -1q34 0 161 10q19 5 46 5q41 0 62 -4l1 -30q0 -16 -4 -39q-114 -3 -145 -12.5t-46 -31.5
q-4 -33 -4 -50l1 -30q0 -13 -1 -30l-1 -56l695 1l-1 37q0 99 -9.5 122.5t-137.5 52.5q-39 9 -51 14q2 37 8 57l28 1q84 0 112 -3q77 -10 173 -10q24 0 68 3l86 1l56 5q29 6 63 6q32 0 71 -3q-1 -40 -5 -71q-133 -28 -158.5 -40.5t-25.5 -35.5v-12l1 -24l-1 -15
q-2 -21 -2 -32l1 -52q176 0 201 -4q1 -46 6 -70q2 -9 2 -14t-6 -15h-203l1 -143l-2 -127l3 -180v-142l2 -118q0 -35 -2 -80q21 -6 39 -10q94 -20 142 -41l3 -70l-43 -1q-17 0 -39 2l-75 4q-82 9 -262 9q-59 0 -109 -4l-105 -9q-15 0 -34 6q0 45 5 65l68 16l39 7q63 10 82 17
q12 80 12 173v96q2 46 2 72q0 6 -3 34q-4 34 -4 106q-121 10 -553 10q-70 0 -138 -8q-4 -48 -4 -75l2 -48l3 -363q8 -6 10 -6l109 -17q25 -5 38 -6q11 -4 17 -5q15 -3 22 -9q3 -23 3 -31q0 -13 -4 -36l-62 -1q-38 0 -107 6l-75 1l-51 5l-109 1q-17 0 -88 -7l-65 -5h-107
q0 31 6 71q9 2 42 6l43 8q63 11 95 24l13 250l-4 202l1 24q3 42 3 204l-2 31zM531 922l1 -58l-2 -32q-1 -17 -1 -33q0 -26 3 -71q31 -6 155 -7l40 -2h72l180 -1q26 0 61 2l67 2q85 1 119 8q2 24 3 105l1 87h-699z" />
    <glyph glyph-name="hbar" unicode="&#x127;" horiz-adv-x="1131" 
d="M186 925h-141l1 27q2 46 6 60l131 1q-4 99 -24 121t-117 37v21q0 15 2 37l167 38q37 9 134 57l54 -4l-1 -307l171 2q57 0 83 -4l1 -38l-1 -23q-2 -16 -2 -24l-252 -1l-1 -203q162 132 322 132q100 0 166 -47.5t87 -107.5t21 -189v-64l1 -141l-5 -204q6 -14 68 -26
q31 -5 42 -9q8 -15 8 -24q0 -1 -1 -8q-2 -11 -2 -33q-42 0 -121 7q-45 4 -102 4q-37 0 -99 -4q-44 -2 -112 -2q-12 0 -20 3v24q-2 11 -2 13q0 8 5 22q19 10 54 14q33 4 57 8q5 20 5 24q5 120 5 259v132q0 36 -2 97.5t-43 99.5t-109 38q-111 0 -224 -99v-175l-3 -216l-2 -54
q0 -111 31 -117q33 -3 63 -4q27 0 38 -4q2 -25 2 -35q0 -15 -4 -34q-11 2 -77 3l-147 7q-20 0 -79 -3t-159 -3q-10 12 -21 50v13q8 3 89 12q35 4 42.5 19t7.5 66v71l1 30q2 37 2 101l6 476v81z" />
    <glyph glyph-name="Itilde" unicode="&#x128;" horiz-adv-x="811" 
d="M82 6v72q20 6 66 17q65 16 97 33q18 31 18 86l-1 118l2 228l-1 54q7 198 7 204l-2 133l3 54l-5 114l-1 43q-1 10 -7 32q-41 19 -133 24q-22 1 -35 3l-3 88l286 -12q53 -2 66 -2q59 0 189 8q73 5 92 6q1 -19 1 -32q0 -17 -2 -44q-40 -14 -91.5 -26.5t-84.5 -25.5
q-6 -26 -6 -75q0 -43 3 -70q-3 -169 -3 -260l1 -264l-3 -134l2 -200l-1 -38q0 -8 4 -23q61 -13 111 -18q9 -1 61 -8q4 -30 4 -50q0 -11 -1 -34q-13 0 -20 -1q-32 -2 -37 -2q-7 0 -26 3q-14 2 -133 14l-177 2q-53 0 -154 -10q-66 -6 -86 -7zM683 1660h30q10 0 28 -1
q-1 -128 -62 -195.5t-147 -67.5q-40 0 -80 10q-27 7 -102.5 38t-85.5 33q-19 5 -40 5q-35 0 -54.5 -17t-32.5 -67l-59 -1q1 8 1 37q2 95 64 159.5t140 64.5q39 0 75 -9t105.5 -38t88.5 -34q27 -6 50 -6q30 0 49 17t32 72z" />
    <glyph glyph-name="itilde" unicode="&#x129;" horiz-adv-x="576" 
d="M33 70q16 3 57 7q59 6 74 15t21 31t6 134l-4 104l2 169q0 37 -2 78q-1 18 -1 26q0 39 -11 49q-20 19 -76 26l-56 8v51q91 13 109 19q54 15 99 42t88 72l62 -1q5 -46 5 -58l-1 -85q0 -21 4 -103l-7 -397v-142q0 -11 4 -22q37 -9 140 -29q4 -20 4 -30q0 -9 -3 -27h-61
l-186 6q-163 0 -190 -2q-57 -6 -63 -6l-13 1q-1 26 -1 40v24zM578 1260h30q10 0 28 -1q-1 -128 -62 -195.5t-147 -67.5q-40 0 -80 10q-27 7 -102.5 38t-85.5 33q-19 5 -40 5q-35 0 -54.5 -17t-32.5 -67l-59 -1q1 8 1 37q2 95 64 159.5t140 64.5q39 0 75 -9t105.5 -38
t88.5 -34q27 -6 50 -6q30 0 49 17t32 72z" />
    <glyph glyph-name="Imacron" unicode="&#x12a;" horiz-adv-x="811" 
d="M82 6v72q20 6 66 17q65 16 97 33q18 31 18 86l-1 118l2 228l-1 54q7 198 7 204l-2 133l3 54l-5 114l-1 43q-1 10 -7 32q-41 19 -133 24q-22 1 -35 3l-3 88l286 -12q53 -2 66 -2q59 0 189 8q73 5 92 6q1 -19 1 -32q0 -17 -2 -44q-40 -14 -91.5 -26.5t-84.5 -25.5
q-6 -26 -6 -75q0 -43 3 -70q-3 -169 -3 -260l1 -264l-3 -134l2 -200l-1 -38q0 -8 4 -23q61 -13 111 -18q9 -1 61 -8q4 -30 4 -50q0 -11 -1 -34q-13 0 -20 -1q-32 -2 -37 -2q-7 0 -26 3q-14 2 -133 14l-177 2q-53 0 -154 -10q-66 -6 -86 -7zM134 1404v123h518v-123h-518z" />
    <glyph glyph-name="imacron" unicode="&#x12b;" horiz-adv-x="576" 
d="M33 71q16 3 57 7q59 6 74 15t21 31t6 134l-4 104l2 169q0 37 -2 78q-1 18 -1 26q0 39 -11 49q-20 19 -76 26l-56 8v51q91 13 109 19q54 15 99 42t88 72l62 -1q5 -46 5 -58l-1 -85q0 -21 4 -103l-7 -397v-142q0 -11 4 -22q37 -9 140 -29q4 -20 4 -30q0 -9 -3 -27h-61
l-186 6q-163 0 -190 -2q-57 -6 -63 -6l-13 1q-1 26 -1 40v24zM50 992v123h518v-123h-518z" />
    <glyph glyph-name="Ibreve" unicode="&#x12c;" horiz-adv-x="811" 
d="M82 6v72q20 6 66 17q65 16 97 33q18 31 18 86l-1 118l2 228l-1 54q7 198 7 204l-2 133l3 54l-5 114l-1 43q-1 10 -7 32q-41 19 -133 24q-22 1 -35 3l-3 88l286 -12q53 -2 66 -2q59 0 189 8q73 5 92 6q1 -19 1 -32q0 -17 -2 -44q-40 -14 -91.5 -26.5t-84.5 -25.5
q-6 -26 -6 -75q0 -43 3 -70q-3 -169 -3 -260l1 -264l-3 -134l2 -200l-1 -38q0 -8 4 -23q61 -13 111 -18q9 -1 61 -8q4 -30 4 -50q0 -11 -1 -34q-13 0 -20 -1q-32 -2 -37 -2q-7 0 -26 3q-14 2 -133 14l-177 2q-53 0 -154 -10q-66 -6 -86 -7zM179 1686q28 1 42 1h36
q13 -82 55 -119.5t109 -37.5q74 0 116.5 41t48.5 115h81v-16q0 -70 -28 -138.5t-88 -107.5t-127 -39q-104 0 -174 78t-71 223z" />
    <glyph glyph-name="ibreve" unicode="&#x12d;" horiz-adv-x="576" 
d="M33 70q16 3 57 7q59 6 74 15t21 31t6 134l-4 104l2 169q0 37 -2 78q-1 18 -1 26q0 39 -11 49q-20 19 -76 26l-56 8v51q91 13 109 19q54 15 99 42t88 72l62 -1q5 -46 5 -58l-1 -85q0 -21 4 -103l-7 -397v-142q0 -11 4 -22q37 -9 140 -29q4 -20 4 -30q0 -9 -3 -27h-61
l-186 6q-163 0 -190 -2q-57 -6 -63 -6l-13 1q-1 26 -1 40v24zM58 1274q28 1 42 1h36q13 -82 55 -119.5t109 -37.5q74 0 116.5 41t48.5 115h81v-16q0 -70 -28 -138.5t-88 -107.5t-127 -39q-104 0 -174 78t-71 223z" />
    <glyph glyph-name="Iogonek" unicode="&#x12e;" horiz-adv-x="811" 
d="M460 21q-102 -76 -102 -163q0 -86 77 -168.5t227 -82.5l32 -37q-97 -78 -223 -78q-123 0 -216 81.5t-93 188.5q0 162 202 260l-40 1q-55 0 -156 -10l-86 -7v72q12 4 66 17q73 18 97 33q13 23 15 42t3 208l1 182l-1 58l3 90l4 110l-2 133l3 54q0 143 -13 189
q-42 19 -113 23q-50 2 -55 4l-3 88l192 -10l50 -1l44 -1l66 -2q59 0 189 8l92 6q1 -19 1 -32q0 -17 -2 -44q-34 -12 -87 -25q-62 -15 -89 -27q-6 -26 -6 -75q0 -48 3 -70l-3 -260l1 -264l-3 -134l1 -34l1 -166l-1 -38q0 -8 4 -23q54 -12 111 -18l61 -8q4 -29 4 -50l-1 -34
q-8 0 -20 -1l-37 -2q-7 0 -26 3l-133 14h-39z" />
    <glyph glyph-name="iogonek" unicode="&#x12f;" horiz-adv-x="576" 
d="M297 1322q60 0 98.5 -38t38.5 -81q0 -59 -37.5 -101t-95.5 -42q-43 0 -86 38.5t-43 100.5q0 54 36 88.5t89 34.5zM316 12q-89 -67 -89 -144q0 -78 69.5 -152t204.5 -74l29 -33q-87 -71 -200 -71q-112 0 -195.5 73.5t-83.5 170.5q0 145 175 231h-36q-50 0 -92 -3
q-47 -4 -66 -4l-2 65q119 15 138 25t19 71q0 25 2 56l1 54l-3 73v97l2 58q0 154 -6 169q-21 35 -141 42v56q186 12 296 128h67l4 -322l-7 -407q0 -47 4 -77q31 -11 101 -22q31 -5 43 -10l-1 -55l-40 -1q-15 0 -46 2q-73 4 -147 4z" />
    <glyph glyph-name="Idot" unicode="&#x130;" horiz-adv-x="811" 
d="M82 6v72q20 6 66 17q65 16 97 33q18 31 18 86l-1 118l2 228l-1 54q7 198 7 204l-2 133l3 54l-5 114l-1 43q-1 10 -7 32q-41 19 -133 24q-22 1 -35 3l-3 88l286 -12q53 -2 66 -2q59 0 189 8q73 5 92 6q1 -19 1 -32q0 -17 -2 -44q-40 -14 -91.5 -26.5t-84.5 -25.5
q-6 -26 -6 -75q0 -43 3 -70q-3 -169 -3 -260l1 -264l-3 -134l2 -200l-1 -38q0 -8 4 -23q61 -13 111 -18q9 -1 61 -8q4 -30 4 -50q0 -11 -1 -34q-13 0 -20 -1q-32 -2 -37 -2q-7 0 -26 3q-14 2 -133 14l-177 2q-53 0 -154 -10q-66 -6 -86 -7zM423 1599q47 0 82.5 -37t35.5 -88
t-36 -87.5t-88 -36.5t-87.5 36t-35.5 88q0 51 36 88t84 37h9z" />
    <glyph glyph-name="dotlessi" unicode="&#x131;" horiz-adv-x="576" 
d="M33 71q16 3 57 7q59 6 74 15t21 31t6 134l-4 104l2 169q0 37 -2 78q-1 18 -1 26q0 39 -11 49q-20 19 -76 26l-56 8v51q91 13 109 19q54 15 99 42t88 72l62 -1q5 -46 5 -58l-1 -85q0 -21 4 -103l-7 -397v-142q0 -11 4 -22q37 -9 140 -29q4 -20 4 -30q0 -9 -3 -27h-61
l-186 6q-163 0 -190 -2q-57 -6 -63 -6l-13 1q-1 26 -1 40v24z" />
    <glyph glyph-name="IJ" unicode="&#x132;" horiz-adv-x="1579" 
d="M82 6v72q20 6 66 17q65 16 97 33q18 31 18 86l-1 118l2 228l-1 54q7 198 7 204l-2 133l3 54l-5 114l-1 43q-1 10 -7 32q-41 19 -133 24q-22 1 -35 3l-3 88l286 -12q53 -2 66 -2q59 0 189 8q73 5 92 6q1 -19 1 -32q0 -17 -2 -44q-40 -14 -91.5 -26.5t-84.5 -25.5
q-6 -26 -6 -75q0 -43 3 -70q-3 -169 -3 -260l1 -264l-3 -134l2 -200l-1 -38q0 -8 4 -23q61 -13 111 -18q9 -1 61 -8q4 -30 4 -50q0 -11 -1 -34q-13 0 -20 -1q-32 -2 -37 -2q-7 0 -26 3q-14 2 -133 14l-177 2q-53 0 -154 -10q-66 -6 -86 -7zM914 -255q40 -70 71 -89
q17 -7 27 -7q23 0 39 24q23 34 23 112v59q0 54 4 103q2 28 2 47q0 9 -2 68l1 75l-3 375q0 30 -1 48q-3 40 -3 77l1 217l-5 184l-5 66q0 74 -1 93q-22 5 -135 16h-24l-26 3q-6 1 -19 3l-5 86q98 0 168 -6.5t187 -6.5q101 0 221 12q25 3 39 3q17 0 50 -4q2 -23 2 -35
q0 -13 -3 -40q-74 -10 -97 -10q-53 -1 -78 -9q-1 -24 -1 -29q0 -97 2.5 -118t2.5 -116v-83l4 -129l-2 -101l3 -102l-1 -105l2 -77q0 -222 -19 -344.5t-60 -200.5q-58 -111 -105 -156q-78 -73 -153 -101.5t-149 -28.5q-70 0 -121.5 49t-51.5 114q0 53 36.5 88t86.5 35
q48 0 98 -59z" />
    <glyph glyph-name="ij" unicode="&#x133;" horiz-adv-x="1173" 
d="M172 1199q0 54 35 88.5t90 34.5q59 0 98 -36.5t39 -82.5q0 -34 -15.5 -68t-49 -54.5t-68.5 -20.5q-48 0 -88.5 41t-40.5 98zM32 6l-2 65l113 15q25 7 34.5 20.5t9.5 60.5v11q0 12 1.5 43.5t1.5 55.5q0 19 -3 73l1 50l-1 47l2 163q0 31 -6 64q-11 15 -40 26t-101 16v56
q103 6 181 43q53 24 115 85h67q4 -124 4 -322l-7 -408q0 -42 4 -76q31 -11 101 -22q27 -4 43 -10l-1 -55q-27 -1 -40 -1q-15 0 -46 2q-102 5 -273 5q-49 0 -95 -3.5t-63 -3.5zM740 1195q0 56 37.5 92t98.5 36q46 0 83.5 -32t37.5 -94q0 -56 -36.5 -93.5t-91.5 -37.5
q-60 0 -94.5 35.5t-34.5 93.5zM633 711l-1 54q102 13 141.5 30.5t159.5 107.5l24 -1h11q6 0 14 -1v-18l2 -67l-1 -57q0 -106 3 -160l1 -29l-1 -58q0 -113 2.5 -148.5t2.5 -67.5l-1 -368q0 -73 -33.5 -142.5t-111 -144t-144.5 -111.5l-54 48q9 13 32 43q71 90 86.5 140
t15.5 229l-5 165l-1 71v68l-5 373q-6 13 -15 16q-38 14 -122 28z" />
    <glyph glyph-name="Jcircumflex" unicode="&#x134;" horiz-adv-x="768" 
d="M102 -255q40 -70 71 -89q17 -7 27 -7q23 0 39 24q23 34 23 112v59q0 54 4 103q2 28 2 47q0 9 -2 68l1 75l-3 375q0 30 -1 48q-3 40 -3 77l1 217l-5 184l-5 66q0 74 -1 93q-22 5 -135 16h-24l-26 3q-6 1 -19 3l-5 86q98 0 168 -6.5t187 -6.5q101 0 221 12q25 3 39 3
q17 0 50 -4q2 -23 2 -35q0 -13 -3 -40q-74 -10 -97 -10q-53 -1 -78 -9q-1 -24 -1 -29q0 -97 2.5 -118t2.5 -116v-83l4 -129l-2 -101l3 -102l-1 -105l2 -77q0 -222 -19 -344.5t-60 -200.5q-58 -111 -105 -156q-78 -73 -153 -101.5t-149 -28.5q-70 0 -121.5 49t-51.5 114
q0 53 36.5 88t86.5 35q48 0 98 -59zM102 1404l193 349q20 1 38 1l176 -1q44 -78 105 -194l83 -159l-78 -1l-218 192q-29 -21 -84.5 -72t-135.5 -118z" />
    <glyph glyph-name="jcircumflex" unicode="&#x135;" horiz-adv-x="533" 
d="M45 711l-1 54q102 13 141.5 30.5t159.5 107.5l24 -1h11q6 0 14 -1v-18l2 -67l-1 -57q0 -106 3 -160l1 -29l-1 -58q0 -113 2.5 -148.5t2.5 -67.5l-1 -368q0 -73 -33.5 -142.5t-111 -144t-144.5 -111.5l-54 48q9 13 32 43q71 90 86.5 140t15.5 229l-5 165l-1 71v68l-5 373
q-6 13 -15 16q-38 14 -122 28zM-2 948l193 349q20 1 38 1l176 -1q44 -78 105 -194l83 -159l-78 -1l-218 192q-29 -21 -84.5 -72t-135.5 -118z" />
    <glyph glyph-name="Kcedilla" unicode="&#x136;" horiz-adv-x="1387" 
d="M54 68q102 52 179 74q20 12 26 32.5t6 156.5q0 19 -3 72v24l1 212l-1 150l2 44v40q0 15 3 45l-5 44l1 11q2 17 2 40q0 106 -15 157q-37 27 -120 48q-47 12 -72 27l7 62q17 2 35 2q81 0 151 -9t194 -9l102 5q75 1 116 6q30 3 42 3q13 0 29 -1q3 -10 3 -22q0 -30 -3 -44
q-63 -23 -121 -33t-66 -18q-13 -12 -13 -36v-78q0 -16 2 -54q2 -59 2 -82q0 -15 -2 -67v-76l-2 -72q0 -5 1 -14q72 62 192 187q56 59 89 90q13 13 141 148q41 56 44 65l-8 7q-62 11 -93 13q-21 1 -68 14q-2 16 -2 59l1 13h44q32 0 84.5 -4.5t80.5 -4.5l241 4q57 6 126 11
l-1 -79q-17 -4 -66 -14q-120 -38 -162 -59t-84 -54.5t-155 -138.5q-153 -142 -183 -175q19 -22 46 -51l33 -34q9 -10 22 -25l212 -245l176 -219q30 -38 41 -51l16 -18q17 -22 24 -26q9 -6 41 -15q17 -4 85 -35q2 -18 2 -28q0 -12 -4 -37l-110 2q-19 3 -61 5l-98 5l-21 -1
l-138 1q-20 0 -111 -7q-48 -4 -64 -4q-8 0 -24 1q-5 16 -5 26q0 12 4 36q44 15 89 25q34 6 45 17t11 24q0 9 -3 15q-9 23 -31 51q-8 9 -142 162l-254 285q-4 -36 -4 -81q0 -63 4 -107q1 -9 3 -131l-2 -91l4 -99q28 -25 100 -44q42 -11 76 -32q3 -20 3 -30q0 -8 -2 -25
q-47 -2 -73 -2q-28 0 -47 1l-142 7q-29 2 -57 2q-29 0 -73 -3l-177 1q-11 0 -95 -3zM566 -78l98 2q292 0 292 -167q0 -113 -113.5 -208t-227.5 -95q-63 0 -63 50q0 29 14 60t33 39.5t76 8.5q5 0 28 -4q27 -4 49 -4q40 0 72 21.5t32 58.5q0 79 -136 79q-55 0 -128 -18
q-6 17 -12 71l-4 28q-7 43 -10 78z" />
    <glyph glyph-name="kcedilla" unicode="&#x137;" horiz-adv-x="1088" 
d="M32 63q18 9 36 12t26 5q58 6 67 10q7 21 9 66l6 423v57l1 43v287q0 102 -7 147q-1 11 -7 33q-20 17 -39 23.5t-80 13.5q-1 13 -1 20q0 11 2 32q39 13 220 61q50 14 89 31l40 -2l2 -444q0 -5 -3 -64q-1 -21 -1 -83l-2 -150v-143q50 30 207 134q54 36 121 90q28 22 41 36
q-16 7 -31 11q-38 9 -91 30q-1 14 -1 21q0 10 3 31l74 1q9 0 51.5 -2.5t85.5 -2.5q35 0 98.5 4t78.5 4q16 0 48 -2q1 -11 1 -16q0 -10 -4 -28l-79 -25q-65 -19 -99 -38q-83 -47 -280 -181q24 -25 50 -50l26 -24l74 -74l163 -164l94 -94q21 -15 83 -43q1 -28 1 -33
q0 -8 -1 -24q-11 0 -65 5q-31 4 -54 4q-208 0 -355 -5q0 15 -2 23l-1 15q0 7 5 22q25 9 67 13q17 1 37 4q-15 27 -37 50l-259 276l-54 -29v-209q0 -9 1 -33l1 -37q20 -14 31 -18q17 -6 64 -11q13 -1 24 -4v-25l1 -18q0 -5 -2 -16l-7 -3q-92 3 -146 7q-29 2 -46 2
q-9 0 -44 -1h-57l-86 -8l-26 1l-59 -3q-4 17 -4 31q0 11 1 28zM380 -78l98 2q292 0 292 -167q0 -113 -113.5 -208t-227.5 -95q-63 0 -63 50q0 29 14 60t33 39.5t76 8.5q5 0 28 -4q27 -4 49 -4q40 0 72 21.5t32 58.5q0 79 -136 79q-55 0 -128 -18q-6 17 -12 71l-4 28
q-7 43 -10 78z" />
    <glyph glyph-name="kgreenlandic" unicode="&#x138;" horiz-adv-x="1025" 
d="M411 434q83 60 169 161l70 64l46 54q26 25 26 31q0 10 -39 15q-46 7 -55.5 12t-9.5 19v6l1 11q2 20 9 20q6 0 15 -2l66 -5l56 -8q31 -5 53 -5q16 0 62 6q54 7 118 7q1 -10 1 -16q0 -21 -8.5 -28t-45.5 -16q-58 -14 -100.5 -37t-96.5 -73l-101 -93q-41 -40 -61 -55
l165 -192l177 -210q20 -26 46 -34q33 -11 57 -25v-41q-19 0 -88 6l-139 7l-117 -7l-47 -8q-4 0 -17 2v41q73 44 73 61q0 18 -58 68q-10 9 -65 68l-57 57q-60 58 -105 111l-1 -34l1 -40l2 -51q0 -30 -3 -89l-1 -45q0 -13 2 -43q71 -44 123 -63q3 -14 3 -20q0 -7 -3 -21
l-241 3l-212 -3q-2 14 -2 21q0 6 2 20q42 16 66 23q37 12 47.5 24.5t10.5 38.5l-4 136v371l1 61q0 54 -68 56q-66 2 -66 34q0 11 2 35l80 4l150 -5l51 -1q30 0 54 2l86 7l33 -1q20 0 20 -12q0 -19 -7 -43q-69 -28 -83 -31q-33 -6 -39 -11t-6 -180z" />
    <glyph glyph-name="Lacute" unicode="&#x139;" horiz-adv-x="1301" 
d="M46 89q31 9 87.5 17.5t66.5 8.5q39 1 52 13q6 24 6 40l-2 128l6 130v83l1 98l-2 104l4 223l1 101v14q-7 105 -13.5 115.5t-57.5 26.5q-5 2 -38 15q-25 10 -45 14q-35 9 -49 21q-2 26 -2 40q0 8 1 24q9 5 19 5q24 0 174 -8l143 1l106 -2q69 0 177 9q32 3 37 3q15 0 21 -8
q8 -11 8 -40q0 -23 -11 -35q-6 -7 -44 -12l-124 -29q-5 -2 -17 -8q-4 -7 -6 -12l-1 -28l-3 -63v-18l1 -11q0 -5 -3 -55q-1 -13 -1 -26q0 -16 2 -54q3 -60 3 -105q0 -52 -3 -119q-1 -25 -1 -65l-4 -474q0 -30 10 -39l95 -4l59 1l63 -2q161 0 253 37q69 28 90 56
q34 30 55.5 65t48.5 116h32q24 0 54 -4v-28q0 -72 -18 -252q-7 -72 -14 -88q-23 -4 -29 -4h-37l-52 -1q-9 0 -119 8q-20 1 -191 7t-335 6l-204 -6q-118 -3 -221 -11h-15q-6 0 -19 1q-2 11 -2 19q0 42 7 61zM639 1395q31 110 102 321l274 -3l-301 -319q-37 -1 -44 -1
q-14 0 -31 2z" />
    <glyph glyph-name="lacute" unicode="&#x13a;" horiz-adv-x="533" 
d="M7 50q22 15 58 19q69 8 79 21q20 26 20 106v282l-1 67v202l-3 231v40q0 82 -13 121q-35 21 -75 21q-24 0 -45 5q-3 25 -3 37q0 8 2 18q79 9 164 40.5t130 64.5l28 1q9 0 26 -1q5 -346 5 -474q0 -38 -1 -61v-6l1 -19v-443l1 -146v-24q0 -43 14 -61q12 -13 51 -16
q21 -2 83 -10q5 -21 5 -34q0 -10 -2 -28l-79 4q-66 5 -166 5l-37 1q-57 0 -165 -9h-73zM163 1371q31 110 102 321l274 -3l-301 -319q-37 -1 -44 -1q-14 0 -31 2z" />
    <glyph glyph-name="Lcedilla" unicode="&#x13b;" horiz-adv-x="1301" 
d="M46 89q31 9 87.5 17.5t66.5 8.5q39 1 52 13q6 24 6 40l-2 128l6 130v83l1 98l-2 104l4 223l1 101v14q-7 105 -13.5 115.5t-57.5 26.5q-5 2 -38 15q-25 10 -45 14q-35 9 -49 21q-2 26 -2 40q0 8 1 24q9 5 19 5q24 0 174 -8l143 1l106 -2q69 0 177 9q32 3 37 3q15 0 21 -8
q8 -11 8 -40q0 -23 -11 -35q-6 -7 -44 -12l-124 -29q-5 -2 -17 -8q-4 -7 -6 -12l-1 -28l-3 -63v-18l1 -11q0 -5 -3 -55q-1 -13 -1 -26q0 -16 2 -54q3 -60 3 -105q0 -52 -3 -119q-1 -25 -1 -65l-4 -474q0 -30 10 -39l95 -4l59 1l63 -2q161 0 253 37q69 28 90 56
q34 30 55.5 65t48.5 116h32q24 0 54 -4v-28q0 -72 -18 -252q-7 -72 -14 -88q-23 -4 -29 -4h-37l-52 -1q-9 0 -119 8q-20 1 -191 7t-335 6l-204 -6q-118 -3 -221 -11h-15q-6 0 -19 1q-2 11 -2 19q0 42 7 61zM479 -78l98 2q292 0 292 -167q0 -113 -113.5 -208t-227.5 -95
q-63 0 -63 50q0 29 14 60t33 39.5t76 8.5q5 0 28 -4q27 -4 49 -4q40 0 72 21.5t32 58.5q0 79 -136 79q-55 0 -128 -18q-6 17 -12 71l-4 28q-7 43 -10 78z" />
    <glyph glyph-name="lcedilla" unicode="&#x13c;" horiz-adv-x="533" 
d="M7 50q22 15 58 19q69 8 79 21q20 26 20 106v282l-1 67v202l-3 231v40q0 82 -13 121q-35 21 -75 21q-24 0 -45 5q-3 25 -3 37q0 8 2 18q79 9 164 40.5t130 64.5l28 1q9 0 26 -1q5 -346 5 -474q0 -38 -1 -61v-6l1 -19v-443l1 -146v-24q0 -43 14 -61q12 -13 51 -16
q21 -2 83 -10q5 -21 5 -34q0 -10 -2 -28l-79 4q-66 5 -166 5l-37 1q-57 0 -165 -9h-73zM82 -78l98 2q292 0 292 -167q0 -113 -113.5 -208t-227.5 -95q-63 0 -63 50q0 29 14 60t33 39.5t76 8.5q5 0 28 -4q27 -4 49 -4q40 0 72 21.5t32 58.5q0 79 -136 79q-55 0 -128 -18
q-6 17 -12 71l-4 28q-7 43 -10 78z" />
    <glyph glyph-name="Lcaron" unicode="&#x13d;" horiz-adv-x="1301" 
d="M46 89q31 9 87.5 17.5t66.5 8.5q39 1 52 13q6 24 6 40l-2 128l6 130v83l1 98l-2 104l4 223l1 101v14q-7 105 -13.5 115.5t-57.5 26.5q-5 2 -38 15q-25 10 -45 14q-35 9 -49 21q-2 26 -2 40q0 8 1 24q9 5 19 5q24 0 174 -8l143 1l106 -2q69 0 177 9q32 3 37 3q15 0 21 -8
q8 -11 8 -40q0 -23 -11 -35q-6 -7 -44 -12l-124 -29q-5 -2 -17 -8q-4 -7 -6 -12l-1 -28l-3 -63v-18l1 -11q0 -5 -3 -55q-1 -13 -1 -26q0 -16 2 -54q3 -60 3 -105q0 -52 -3 -119q-1 -25 -1 -65l-4 -474q0 -30 10 -39l95 -4l59 1l63 -2q161 0 253 37q69 28 90 56
q34 30 55.5 65t48.5 116h32q24 0 54 -4v-28q0 -72 -18 -252q-7 -72 -14 -88q-23 -4 -29 -4h-37l-52 -1q-9 0 -119 8q-20 1 -191 7t-335 6l-204 -6q-118 -3 -221 -11h-15q-6 0 -19 1q-2 11 -2 19q0 42 7 61zM879 744q7 14 39 31q48 24 88 72.5t40 98.5q0 54 -54 82
q-88 46 -105.5 77.5t-17.5 65.5q0 59 45 99t103 40q81 0 147 -74.5t66 -183.5q0 -167 -115 -275.5t-186 -108.5q-41 0 -50 76z" />
    <glyph glyph-name="lcaron" unicode="&#x13e;" horiz-adv-x="939" 
d="M7 50q22 15 58 19q69 8 79 21q20 26 20 106v282l-1 67v202l-3 231v40q0 82 -13 121q-35 21 -75 21q-24 0 -45 5q-3 25 -3 37q0 8 2 18q79 9 164 40.5t130 64.5l28 1q9 0 26 -1q5 -346 5 -474q0 -38 -1 -61v-6l1 -19v-443l1 -146v-24q0 -43 14 -61q12 -13 51 -16
q21 -2 83 -10q5 -21 5 -34q0 -10 -2 -28l-79 4q-66 5 -166 5l-37 1q-57 0 -165 -9h-73zM501 760q7 14 39 31q48 24 88 72.5t40 98.5q0 54 -54 82q-88 46 -105.5 77.5t-17.5 65.5q0 59 45 99t103 40q81 0 147 -74.5t66 -183.5q0 -167 -115 -275.5t-186 -108.5q-41 0 -50 76z
" />
    <glyph glyph-name="Ldot" unicode="&#x13f;" horiz-adv-x="1301" 
d="M46 89q31 9 87.5 17.5t66.5 8.5q39 1 52 13q6 24 6 40l-2 128l6 130v83l1 98l-2 104l4 223l1 101v14q-7 105 -13.5 115.5t-57.5 26.5q-5 2 -38 15q-25 10 -45 14q-35 9 -49 21q-2 26 -2 40q0 8 1 24q9 5 19 5q24 0 174 -8l143 1l106 -2q69 0 177 9q32 3 37 3q15 0 21 -8
q8 -11 8 -40q0 -23 -11 -35q-6 -7 -44 -12l-124 -29q-5 -2 -17 -8q-4 -7 -6 -12l-1 -28l-3 -63v-18l1 -11q0 -5 -3 -55q-1 -13 -1 -26q0 -16 2 -54q3 -60 3 -105q0 -52 -3 -119q-1 -25 -1 -65l-4 -474q0 -30 10 -39l95 -4l59 1l63 -2q161 0 253 37q69 28 90 56
q34 30 55.5 65t48.5 116h32q24 0 54 -4v-28q0 -72 -18 -252q-7 -72 -14 -88q-23 -4 -29 -4h-37l-52 -1q-9 0 -119 8q-20 1 -191 7t-335 6l-204 -6q-118 -3 -221 -11h-15q-6 0 -19 1q-2 11 -2 19q0 42 7 61zM919 829q47 0 82.5 -37t35.5 -88t-36 -87.5t-88 -36.5t-87.5 36
t-35.5 88q0 51 36 88t84 37h9z" />
    <glyph glyph-name="ldot" unicode="&#x140;" horiz-adv-x="832" 
d="M7 50q22 15 58 19q69 8 79 21q20 26 20 106v282l-1 67v202l-3 231v40q0 82 -13 121q-35 21 -75 21q-24 0 -45 5q-3 25 -3 37q0 8 2 18q79 9 164 40.5t130 64.5l28 1q9 0 26 -1q5 -346 5 -474q0 -38 -1 -61v-6l1 -19v-443l1 -146v-24q0 -43 14 -61q12 -13 51 -16
q21 -2 83 -10q5 -21 5 -34q0 -10 -2 -28l-79 4q-66 5 -166 5l-37 1q-57 0 -165 -9h-73zM631 789q47 0 82.5 -37t35.5 -88t-36 -87.5t-88 -36.5t-87.5 36t-35.5 88q0 51 36 88t84 37h9z" />
    <glyph glyph-name="Lslash" unicode="&#x141;" horiz-adv-x="1280" 
d="M264 484l-241 -200v64q0 25 5 76q67 52 123 103q26 25 113 98l-2 71q0 95 4 157l2 187q-8 104 -14.5 114.5t-56.5 27.5q-5 1 -38 14q-25 10 -45 15q-35 8 -49 20q-3 25 -3 40q0 8 1 24q10 5 19 5q25 0 175 -8l142 1l106 -2q70 0 177 9q33 3 38 3q15 0 21 -8q8 -10 8 -39
q0 -24 -11 -35q-7 -7 -45 -12l-123 -30q-6 -2 -18 -7q-4 -7 -5 -12l-1 -29l-4 -62q0 -6 1 -19l1 -11l-2 -28q-3 -38 -3 -51l5 -102l130 109q31 25 96 68v-141q-57 -35 -95 -72q-28 -29 -76 -66q-19 -15 -56 -46q-2 -52 -3 -95l-3 -474q-1 -30 10 -39l94 -4l59 1l64 -2
q161 0 252 37q69 28 91 56q34 30 55 65.5t48 115.5l32 1q24 0 54 -4q1 -19 1 -28q0 -72 -18 -252q-8 -73 -14 -89q-23 -4 -30 -4l-37 1l-51 -2q-9 0 -119 8q-20 2 -191 7.5t-335 5.5l-204 -6q-118 -3 -222 -10q-10 -1 -15 -1q-6 0 -18 1q-3 12 -3 20q0 41 7 60q32 9 88 17.5
t66 9.5q40 0 53 12q5 23 5 40l-1 128l5 128q1 21 1 70z" />
    <glyph glyph-name="lslash" unicode="&#x142;" horiz-adv-x="661" 
d="M233 566l-272 -225v64q0 25 5 76q68 53 123 103q20 20 144 124l-3 270v40q0 81 -13 121q-35 21 -75 21q-24 0 -45 5q-2 25 -2 37q0 8 1 18q80 9 164.5 40.5t129.5 64.5l28 1q9 0 26 -1q6 -346 6 -436l158 133q32 25 100 70v-141q-58 -35 -92 -69.5t-95 -81.5
q-24 -19 -72 -58v-420l1 -146v-24q0 -43 15 -61q11 -13 50 -16q21 -2 83 -10q5 -21 5 -34q0 -10 -2 -28l-78 4q-67 5 -167 5l-37 1q-57 0 -164 -9h-74l-4 46q23 15 58 19q69 8 79 21q21 26 21 106l-1 151v131z" />
    <glyph glyph-name="Nacute" unicode="&#x143;" horiz-adv-x="1728" 
d="M11 1222l-4 70h85l29 1q60 3 83 3q12 0 70 -2q13 -1 22 -1t63 2t61 2q11 0 31 -1q154 -140 251 -241t708 -707v25l-4 116q-3 102 -8 161.5t-6 142t-7 149.5q-12 131 -12 151q-1 65 -14 79q-21 22 -96 33q-55 9 -82 23l1 59l26 3l197 6l220 6q22 1 42 1l1 -65
q-23 -12 -47 -18q-64 -15 -74 -21q-51 -29 -55 -35q-9 -12 -9 -37q0 -6 2 -42q1 -18 1 -84q1 -145 8 -229q2 -27 3 -61l11 -351q1 -37 1 -52v-123l3 -52l-3 -54q4 -41 4 -49v-53l-115 -4l-119 123l-243 241l-170 170l-125 128q-122 120 -222 211l-163 147l9 -372
q1 -34 1 -70l-1 -71l6 -131q3 -82 11 -178q2 -26 5 -36.5t12 -30.5q39 -14 170 -21q9 -2 26 -7l4 -81l-39 -1q-32 0 -202 15q-159 -2 -212 -6t-58 -4q-12 0 -33 4q-2 23 -2 40q0 11 1 36q28 5 46 5q6 0 39 -2q84 0 99.5 12.5t17.5 67.5q7 159 7 194v55l2 325l-3 203
q-1 116 -15 161q-6 23 -23 40q-35 36 -78 54q-26 11 -135 28zM775 1395q31 110 102 321l274 -3l-301 -319q-37 -1 -44 -1q-14 0 -31 2z" />
    <glyph glyph-name="nacute" unicode="&#x144;" horiz-adv-x="1131" 
d="M41 57q26 12 48 16q55 9 64 15q15 9 20 22q6 20 6 88v87l1 71l-3 105v63q0 63 -10 103q-4 15 -25 30q-28 20 -95 39l-1 48q13 4 23.5 5.5t80.5 19.5q55 20 71 28q5 3 16 9q12 10 27 20q30 21 72 73l53 4l-2 -113q-1 -17 -1 -27q0 -8 1 -46q83 72 151 100q89 37 169 37
q94 0 165 -46.5t93 -107.5t22 -246l-4 -326q0 -23 8 -38q10 -8 55 -15l49 -9q9 -13 9 -32q0 -12 -1 -33l-196 14l-58 -2h-46l-132 -10h-34q-1 13 -1 20q0 18 2 39q14 3 70 10q15 2 33 7q20 8 23 16q8 17 8 65q0 84 -2 129l1 116q1 211 -26 263q-38 75 -114 75
q-56 0 -116 -28.5t-124 -86.5l-2 -17l2 -63l-1 -67l4 -160l-2 -25q0 -163 13 -184t99 -46q3 -17 3 -25q0 -12 -7 -37q-31 -1 -52 -1t-66 6l-107 2q-80 0 -231 -7q-4 10 -4 21q0 8 1 32zM466 959q31 110 102 321l274 -3l-301 -319q-37 -1 -44 -1q-14 0 -31 2z" />
    <glyph glyph-name="Ncedilla" unicode="&#x145;" horiz-adv-x="1728" 
d="M11 1222l-4 70h85l29 1q60 3 83 3q12 0 70 -2q13 -1 22 -1t63 2t61 2q11 0 31 -1q154 -140 251 -241t708 -707v25l-4 116q-3 102 -8 161.5t-6 142t-7 149.5q-12 131 -12 151q-1 65 -14 79q-21 22 -96 33q-55 9 -82 23l1 59l26 3l197 6l220 6q22 1 42 1l1 -65
q-23 -12 -47 -18q-64 -15 -74 -21q-51 -29 -55 -35q-9 -12 -9 -37q0 -6 2 -42q1 -18 1 -84q1 -145 8 -229q2 -27 3 -61l11 -351q1 -37 1 -52v-123l3 -52l-3 -54q4 -41 4 -49v-53l-115 -4l-119 123l-243 241l-170 170l-125 128q-122 120 -222 211l-163 147l9 -372
q1 -34 1 -70l-1 -71l6 -131q3 -82 11 -178q2 -26 5 -36.5t12 -30.5q39 -14 170 -21q9 -2 26 -7l4 -81l-39 -1q-32 0 -202 15q-159 -2 -212 -6t-58 -4q-12 0 -33 4q-2 23 -2 40q0 11 1 36q28 5 46 5q6 0 39 -2q84 0 99.5 12.5t17.5 67.5q7 159 7 194v55l2 325l-3 203
q-1 116 -15 161q-6 23 -23 40q-35 36 -78 54q-26 11 -135 28zM762 -78l98 2q292 0 292 -167q0 -113 -113.5 -208t-227.5 -95q-63 0 -63 50q0 29 14 60t33 39.5t76 8.5q5 0 28 -4q27 -4 49 -4q40 0 72 21.5t32 58.5q0 79 -136 79q-55 0 -128 -18q-6 17 -12 71l-4 28
q-7 43 -10 78z" />
    <glyph glyph-name="ncedilla" unicode="&#x146;" horiz-adv-x="1131" 
d="M41 57q26 12 48 16q55 9 64 15q15 9 20 22q6 20 6 88v87l1 71l-3 105v63q0 63 -10 103q-4 15 -25 30q-28 20 -95 39l-1 48q13 4 23.5 5.5t80.5 19.5q55 20 71 28q5 3 16 9q12 10 27 20q30 21 72 73l53 4l-2 -113q-1 -17 -1 -27q0 -8 1 -46q83 72 151 100q89 37 169 37
q94 0 165 -46.5t93 -107.5t22 -246l-4 -326q0 -23 8 -38q10 -8 55 -15l49 -9q9 -13 9 -32q0 -12 -1 -33l-196 14l-58 -2h-46l-132 -10h-34q-1 13 -1 20q0 18 2 39q14 3 70 10q15 2 33 7q20 8 23 16q8 17 8 65q0 84 -2 129l1 116q1 211 -26 263q-38 75 -114 75
q-56 0 -116 -28.5t-124 -86.5l-2 -17l2 -63l-1 -67l4 -160l-2 -25q0 -163 13 -184t99 -46q3 -17 3 -25q0 -12 -7 -37q-31 -1 -52 -1t-66 6l-107 2q-80 0 -231 -7q-4 10 -4 21q0 8 1 32zM384 -78l98 2q292 0 292 -167q0 -113 -113.5 -208t-227.5 -95q-63 0 -63 50q0 29 14 60
t33 39.5t76 8.5q5 0 28 -4q27 -4 49 -4q40 0 72 21.5t32 58.5q0 79 -136 79q-55 0 -128 -18q-6 17 -12 71l-4 28q-7 43 -10 78z" />
    <glyph glyph-name="Ncaron" unicode="&#x147;" horiz-adv-x="1728" 
d="M11 1222l-4 70h85l29 1q60 3 83 3q12 0 70 -2q13 -1 22 -1t63 2t61 2q11 0 31 -1q154 -140 251 -241t708 -707v25l-4 116q-3 102 -8 161.5t-6 142t-7 149.5q-12 131 -12 151q-1 65 -14 79q-21 22 -96 33q-55 9 -82 23l1 59l26 3l197 6l220 6q22 1 42 1l1 -65
q-23 -12 -47 -18q-64 -15 -74 -21q-51 -29 -55 -35q-9 -12 -9 -37q0 -6 2 -42q1 -18 1 -84q1 -145 8 -229q2 -27 3 -61l11 -351q1 -37 1 -52v-123l3 -52l-3 -54q4 -41 4 -49v-53l-115 -4l-119 123l-243 241l-170 170l-125 128q-122 120 -222 211l-163 147l9 -372
q1 -34 1 -70l-1 -71l6 -131q3 -82 11 -178q2 -26 5 -36.5t12 -30.5q39 -14 170 -21q9 -2 26 -7l4 -81l-39 -1q-32 0 -202 15q-159 -2 -212 -6t-58 -4q-12 0 -33 4q-2 23 -2 40q0 11 1 36q28 5 46 5q6 0 39 -2q84 0 99.5 12.5t17.5 67.5q7 159 7 194v55l2 325l-3 203
q-1 116 -15 161q-6 23 -23 40q-35 36 -78 54q-26 11 -135 28zM572 1751l79 1q21 -19 155 -135l64 -53l220 189l76 -2l-190 -351q-111 -1 -169 -1q-18 0 -45 5z" />
    <glyph glyph-name="ncaron" unicode="&#x148;" horiz-adv-x="1131" 
d="M41 57q26 12 48 16q55 9 64 15q15 9 20 22q6 20 6 88v87l1 71l-3 105v63q0 63 -10 103q-4 15 -25 30q-28 20 -95 39l-1 48q13 4 23.5 5.5t80.5 19.5q55 20 71 28q5 3 16 9q12 10 27 20q30 21 72 73l53 4l-2 -113q-1 -17 -1 -27q0 -8 1 -46q83 72 151 100q89 37 169 37
q94 0 165 -46.5t93 -107.5t22 -246l-4 -326q0 -23 8 -38q10 -8 55 -15l49 -9q9 -13 9 -32q0 -12 -1 -33l-196 14l-58 -2h-46l-132 -10h-34q-1 13 -1 20q0 18 2 39q14 3 70 10q15 2 33 7q20 8 23 16q8 17 8 65q0 84 -2 129l1 116q1 211 -26 263q-38 75 -114 75
q-56 0 -116 -28.5t-124 -86.5l-2 -17l2 -63l-1 -67l4 -160l-2 -25q0 -163 13 -184t99 -46q3 -17 3 -25q0 -12 -7 -37q-31 -1 -52 -1t-66 6l-107 2q-80 0 -231 -7q-4 10 -4 21q0 8 1 32zM294 1299l79 1q21 -19 155 -135l64 -53l220 189l76 -2l-190 -351q-111 -1 -169 -1
q-18 0 -45 5z" />
    <glyph glyph-name="napostrophe" unicode="&#x149;" horiz-adv-x="1600" 
d="M505 57q26 12 48 16q55 9 64 15q15 9 20 22q6 20 6 88v87l1 71l-3 105v63q0 63 -10 103q-4 15 -25 30q-28 20 -95 39l-1 48q13 4 23.5 5.5t80.5 19.5q55 20 71 28q5 3 16 9q12 10 27 20q30 21 72 73l53 4l-2 -113q-1 -17 -1 -27q0 -8 1 -46q83 72 151 100q89 37 169 37
q94 0 165 -46.5t93 -107.5t22 -246l-4 -326q0 -23 8 -38q10 -8 55 -15l49 -9q9 -13 9 -32q0 -12 -1 -33l-196 14l-58 -2h-46l-132 -10h-34q-1 13 -1 20q0 18 2 39q14 3 70 10q15 2 33 7q20 8 23 16q8 17 8 65q0 84 -2 129l1 116q1 211 -26 263q-38 75 -114 75
q-56 0 -116 -28.5t-124 -86.5l-2 -17l2 -63l-1 -67l4 -160l-2 -25q0 -163 13 -184t99 -46q3 -17 3 -25q0 -12 -7 -37q-31 -1 -52 -1t-66 6l-107 2q-80 0 -231 -7q-4 10 -4 21q0 8 1 32zM85 744q7 14 39 31q48 24 88 72.5t40 98.5q0 54 -54 82q-88 46 -105.5 77.5t-17.5 65.5
q0 59 45 99t103 40q81 0 147 -74.5t66 -183.5q0 -167 -115 -275.5t-186 -108.5q-41 0 -50 76z" />
    <glyph glyph-name="Eng" unicode="&#x14a;" horiz-adv-x="1609" 
d="M475 976q-7 -138 -7 -198l2 -86l2 -71l-2 -65q-2 -46 -2 -94q0 -251 8 -364q73 -21 135 -30q46 -7 51.5 -12.5t11.5 -48.5q0 -6 -12 -21l-118 1l-159 5l-114 4q-23 0 -97 -5q-62 -5 -163 -5q3 14 3 20l-1 32q5 18 100 35q26 4 78 22l11 235l-2 198l3 283v121l1 64
q0 92 -31.5 123.5t-134.5 42.5q-3 25 -3 35q0 12 2 32q232 0 381 71l56 -1l5 -171q210 187 464 187q245 0 407 -185.5t162 -492.5q0 -264 -137.5 -450.5t-372.5 -186.5q-168 0 -264 86.5t-96 223.5q0 94 49.5 165t140.5 71q131 0 131 -118q0 -75 -73 -128q-45 -33 -59 -52
t-14 -54q0 -53 34.5 -81t86.5 -28q121 0 197.5 123t76.5 445q0 309 -112.5 431t-265.5 122q-204 0 -359 -230z" />
    <glyph glyph-name="eng" unicode="&#x14b;" horiz-adv-x="1173" 
d="M447 901v-132q157 134 330 134q99 0 163.5 -48.5t86.5 -112t22 -196.5v-511q0 -241 -102 -391t-295 -150q-212 0 -212 144q0 47 30 81.5t74 34.5q70 0 115 -93q31 -63 71 -63q59 0 79 54t20 225v669q0 139 -32 192.5t-109 53.5q-63 0 -132 -34t-109 -84v-449l-1 -55
q0 -39 13 -54.5t56 -33.5l45 -20q2 -21 2 -31t-2 -31q-69 0 -145 4q-62 3 -108 3l-104 -4q-57 -3 -99 -3q-6 19 -6 34q0 21 10 28t63 12q38 4 50.5 28t12.5 106v325q0 61 -9.5 89t-23.5 36t-97 38v44q12 8 84 25q135 31 204 136h55z" />
    <glyph glyph-name="Omacron" unicode="&#x14c;" horiz-adv-x="1621" 
d="M90 670q0 124 48 249q35 90 98 165t158 133.5t194 84t221 25.5q208 0 361 -78t241 -211q114 -173 114 -363q0 -283 -192.5 -485t-535.5 -202q-85 0 -159 11q-56 8 -98 22q-76 25 -85 29q-109 62 -175 127t-112 147q-25 46 -57 166q-21 77 -21 180zM771 1228
q-87 0 -154 -40.5t-101 -89.5q-57 -83 -81 -181.5t-24 -239.5q0 -86 7 -123q2 -12 6 -41q9 -74 21 -108q43 -127 61 -157q30 -51 89 -101q30 -26 87 -47.5t114 -21.5q108 0 200.5 50.5t148.5 171.5t56 315q0 80 -11 217l-5 19q-3 8 -10 41q-37 164 -141.5 250t-262.5 86z
M570 1404v123h518v-123h-518z" />
    <glyph glyph-name="omacron" unicode="&#x14d;" horiz-adv-x="1067" 
d="M866 735q64 -62 95.5 -142.5t31.5 -151.5q0 -134 -41 -216q-62 -124 -167 -183t-244 -59q-156 0 -264.5 70t-155 159t-46.5 221q0 67 22 134.5t60.5 117.5t84.5 84q67 48 134.5 68.5t163.5 20.5q209 0 326 -123zM319 389q9 -124 13 -143q13 -67 41 -115q19 -31 63 -55
t105 -24q73 0 123 46.5t72 145.5q14 65 14 213q0 182 -60 257.5t-158 75.5q-77 0 -127.5 -43t-70.5 -127q-13 -54 -15 -231zM294 992v123h518v-123h-518z" />
    <glyph glyph-name="Obreve" unicode="&#x14e;" horiz-adv-x="1621" 
d="M90 670q0 124 48 249q35 90 98 165t158 133.5t194 84t221 25.5q208 0 361 -78t241 -211q114 -173 114 -363q0 -283 -192.5 -485t-535.5 -202q-85 0 -159 11q-56 8 -98 22q-76 25 -85 29q-109 62 -175 127t-112 147q-25 46 -57 166q-21 77 -21 180zM771 1228
q-87 0 -154 -40.5t-101 -89.5q-57 -83 -81 -181.5t-24 -239.5q0 -86 7 -123q2 -12 6 -41q9 -74 21 -108q43 -127 61 -157q30 -51 89 -101q30 -26 87 -47.5t114 -21.5q108 0 200.5 50.5t148.5 171.5t56 315q0 80 -11 217l-5 19q-3 8 -10 41q-37 164 -141.5 250t-262.5 86z
M583 1706q28 1 42 1h36q13 -82 55 -119.5t109 -37.5q74 0 116.5 41t48.5 115h81v-16q0 -70 -28 -138.5t-88 -107.5t-127 -39q-104 0 -174 78t-71 223z" />
    <glyph glyph-name="obreve" unicode="&#x14f;" horiz-adv-x="1067" 
d="M866 735q64 -62 95.5 -142.5t31.5 -151.5q0 -134 -41 -216q-62 -124 -167 -183t-244 -59q-156 0 -264.5 70t-155 159t-46.5 221q0 67 22 134.5t60.5 117.5t84.5 84q67 48 134.5 68.5t163.5 20.5q209 0 326 -123zM319 389q9 -124 13 -143q13 -67 41 -115q19 -31 63 -55
t105 -24q73 0 123 46.5t72 145.5q14 65 14 213q0 182 -60 257.5t-158 75.5q-77 0 -127.5 -43t-70.5 -127q-13 -54 -15 -231zM300 1274q28 1 42 1h36q13 -82 55 -119.5t109 -37.5q74 0 116.5 41t48.5 115h81v-16q0 -70 -28 -138.5t-88 -107.5t-127 -39q-104 0 -174 78
t-71 223z" />
    <glyph glyph-name="Odblacute" unicode="&#x150;" horiz-adv-x="1621" 
d="M90 670q0 124 48 249q35 90 98 165t158 133.5t194 84t221 25.5q208 0 361 -78t241 -211q114 -173 114 -363q0 -283 -192.5 -485t-535.5 -202q-85 0 -159 11q-56 8 -98 22q-76 25 -85 29q-109 62 -175 127t-112 147q-25 46 -57 166q-21 77 -21 180zM771 1228
q-87 0 -154 -40.5t-101 -89.5q-57 -83 -81 -181.5t-24 -239.5q0 -86 7 -123q2 -12 6 -41q9 -74 21 -108q43 -127 61 -157q30 -51 89 -101q30 -26 87 -47.5t114 -21.5q108 0 200.5 50.5t148.5 171.5t56 315q0 80 -11 217l-5 19q-3 8 -10 41q-37 164 -141.5 250t-262.5 86z
M595 1395q31 110 102 321l274 -3l-301 -319q-37 -1 -44 -1q-14 0 -31 2zM951 1395q31 110 102 321l274 -3l-301 -319q-37 -1 -44 -1q-14 0 -31 2z" />
    <glyph glyph-name="odblacute" unicode="&#x151;" horiz-adv-x="1067" 
d="M866 735q64 -62 95.5 -142.5t31.5 -151.5q0 -134 -41 -216q-62 -124 -167 -183t-244 -59q-156 0 -264.5 70t-155 159t-46.5 221q0 67 22 134.5t60.5 117.5t84.5 84q67 48 134.5 68.5t163.5 20.5q209 0 326 -123zM319 389q9 -124 13 -143q13 -67 41 -115q19 -31 63 -55
t105 -24q73 0 123 46.5t72 145.5q14 65 14 213q0 182 -60 257.5t-158 75.5q-77 0 -127.5 -43t-70.5 -127q-13 -54 -15 -231zM301 959q31 110 102 321l274 -3l-301 -319q-37 -1 -44 -1q-14 0 -31 2zM657 959q31 110 102 321l274 -3l-301 -319q-37 -1 -44 -1q-14 0 -31 2z" />
    <glyph glyph-name="OE" unicode="&#x152;" horiz-adv-x="2027" 
d="M1865 1304q9 -12 9 -30q0 -15 1 -48q4 -68 4 -138q0 -29 -1 -70q-40 -4 -73 -4q-8 18 -26 65q-27 69 -48.5 93t-52.5 30q-66 13 -254 13q-125 0 -143 -12.5t-18 -57.5q0 -270 4 -326q3 -27 3 -34l-2 -41l4 -18q56 -2 123 -2q184 0 210 28q16 16 42 182h83l2 -473
q0 -28 -8 -51q-57 0 -75 2l-23 144q-10 35 -32 55q-10 9 -42 13q-87 11 -163 11q-22 0 -42 -1q-42 -3 -48 -3q-16 0 -26 -4q-2 -9 -2 -180v-100l-1 -153q0 -30 7 -66q7 -11 27 -16q28 -6 171 -6q151 0 231 50.5t152 191.5l26 1q14 0 48 -4v-20q0 -25 -10 -128t-28 -195
l-89 -2q-17 0 -35 2l-405 19q-131 6 -240 6q-111 0 -279 -17q-104 -11 -150 -11q-259 0 -407 144q-185 179 -185 490q0 345 196.5 518t442.5 173q30 0 149 -11t146 -11l85 1l322 -3l103 -1q65 0 185 7q56 3 81 3q21 0 51 -5zM746 90q70 0 134 31q46 21 71.5 65.5t35.5 152.5
q5 65 5 346q0 282 -17 399q-10 71 -51 103q-56 43 -169 43q-171 0 -258 -169t-87 -433q0 -260 85.5 -399t250.5 -139z" />
    <glyph glyph-name="oe" unicode="&#x153;" horiz-adv-x="1493" 
d="M1427 500h-14l-69 1l-44 -1l-76 3h-108l-145 2q-24 0 -56 -2v-20q0 -131 21 -203q15 -51 47 -79l5 -4q37 -30 66.5 -41t71.5 -11q129 0 253 83q16 -13 54 -49q-20 -32 -74.5 -81t-135.5 -79.5t-164 -30.5q-93 0 -149 19t-120 71q-64 -48 -137 -70t-141 -22
q-194 0 -316 122t-122 301q0 190 129.5 320t311.5 130q81 0 144 -24.5t133 -83.5q66 59 128.5 83t150.5 24q158 0 257 -102.5t99 -255.5zM513 62q68 0 111 35t60 103.5t17 217.5q0 229 -65 312q-46 59 -123 59q-35 0 -67 -15.5t-60 -46.5q-15 -15 -33 -62q-8 -20 -18 -77
q-16 -92 -16 -185q0 -102 27 -202q20 -77 59 -103q52 -36 108 -36zM917 570q18 -1 27 -1l21 1l188 4l57 1q-10 118 -46 155q-52 54 -107 54q-58 0 -97.5 -48t-42.5 -166z" />
    <glyph glyph-name="Racute" unicode="&#x154;" horiz-adv-x="1429" 
d="M84 68q26 14 77 20.5t92 21.5q5 20 6 29q2 14 2 96l-1 223l4 120l-2 93l2 54q3 109 3 204q0 208 -5 266l-59 12q-81 5 -108 10l-2 60l4 11q50 8 92 8q23 0 93 1q72 -6 78 -6l53 3l125 6q117 12 247 12q205 0 326 -104.5t121 -239.5q0 -101 -65.5 -183.5t-201.5 -124.5
q12 -21 32 -49q42 -60 68 -102l160 -259q60 -103 78.5 -120.5t76.5 -38.5q45 -17 69 -34q6 -17 6 -30q0 -9 -1 -23h-27l-20 -1l-52 7h-41q-32 5 -79 5l-100 1q-11 0 -70 -7q-27 -3 -43 -5l-34 66q-42 75 -59 112q-44 97 -151 309q-50 98 -70 111q-30 21 -103 21
q-20 0 -68 -2q-3 -29 -3 -69l4 -222l-5 -188q28 -17 73 -26q78 -16 134 -38q0 -49 -4 -74q-19 1 -24 1l-41 -2q-215 19 -255 19q-26 0 -37 -1l-138 -9q-63 -7 -115 -7h-43q-2 25 -2 32q0 11 3 31zM534 715q48 -2 70 -2q170 0 241 61t71 163q0 63 -17.5 118.5t-43.5 82.5
q-37 39 -97 59q-44 15 -141 15q-46 0 -79 -5l-1 -19l1 -135l-2 -82l1 -109q-2 -46 -3 -119v-28zM603 1399q31 110 102 321l274 -3l-301 -319q-37 -1 -44 -1q-14 0 -31 2z" />
    <glyph glyph-name="racute" unicode="&#x155;" horiz-adv-x="704" 
d="M39 55q13 11 34 16q51 11 97 40q9 24 9 162q0 253 -11 342q-2 16 -16 28q-25 13 -68 23q-20 5 -24 22l-3 37q74 10 134 50.5t90 82.5q16 23 28 35l70 3q5 -23 5 -38q0 -11 -1 -27q-1 -35 -1 -58q0 -11 1 -83q41 70 60 94q9 11 53 49q34 25 77 25q53 0 92 -36t39 -83
t-29.5 -84.5t-78.5 -37.5q-43 0 -90 36q-28 22 -45 22l-7 -1q-21 -7 -38 -38q-28 -50 -28 -104l2 -27q4 -74 6 -347q3 -25 19 -50q18 -14 36.5 -20t64.5 -10t56 -12.5t10 -27.5q0 -11 -6 -29h-94l-191 10q-72 0 -131 -6h-17q-7 0 -104 -5q-3 16 -3 24t3 23zM264 959
q31 110 102 321l274 -3l-301 -319q-37 -1 -44 -1q-14 0 -31 2z" />
    <glyph glyph-name="Rcedilla" unicode="&#x156;" horiz-adv-x="1429" 
d="M84 68q26 14 77 20.5t92 21.5q5 20 6 29q2 14 2 96l-1 223l4 120l-2 93l2 54q3 109 3 204q0 208 -5 266l-59 12q-81 5 -108 10l-2 60l4 11q50 8 92 8q23 0 93 1q72 -6 78 -6l53 3l125 6q117 12 247 12q205 0 326 -104.5t121 -239.5q0 -101 -65.5 -183.5t-201.5 -124.5
q12 -21 32 -49q42 -60 68 -102l160 -259q60 -103 78.5 -120.5t76.5 -38.5q45 -17 69 -34q6 -17 6 -30q0 -9 -1 -23h-27l-20 -1l-52 7h-41q-32 5 -79 5l-100 1q-11 0 -70 -7q-27 -3 -43 -5l-34 66q-42 75 -59 112q-44 97 -151 309q-50 98 -70 111q-30 21 -103 21
q-20 0 -68 -2q-3 -29 -3 -69l4 -222l-5 -188q28 -17 73 -26q78 -16 134 -38q0 -49 -4 -74q-19 1 -24 1l-41 -2q-215 19 -255 19q-26 0 -37 -1l-138 -9q-63 -7 -115 -7h-43q-2 25 -2 32q0 11 3 31zM534 715q48 -2 70 -2q170 0 241 61t71 163q0 63 -17.5 118.5t-43.5 82.5
q-37 39 -97 59q-44 15 -141 15q-46 0 -79 -5l-1 -19l1 -135l-2 -82l1 -109q-2 -46 -3 -119v-28zM580 -78l98 2q292 0 292 -167q0 -113 -113.5 -208t-227.5 -95q-63 0 -63 50q0 29 14 60t33 39.5t76 8.5q5 0 28 -4q27 -4 49 -4q40 0 72 21.5t32 58.5q0 79 -136 79
q-55 0 -128 -18q-6 17 -12 71l-4 28q-7 43 -10 78z" />
    <glyph glyph-name="rcedilla" unicode="&#x157;" horiz-adv-x="704" 
d="M39 55q13 11 34 16q51 11 97 40q9 24 9 162q0 253 -11 342q-2 16 -16 28q-25 13 -68 23q-20 5 -24 22l-3 37q74 10 134 50.5t90 82.5q16 23 28 35l70 3q5 -23 5 -38q0 -11 -1 -27q-1 -35 -1 -58q0 -11 1 -83q41 70 60 94q9 11 53 49q34 25 77 25q53 0 92 -36t39 -83
t-29.5 -84.5t-78.5 -37.5q-43 0 -90 36q-28 22 -45 22l-7 -1q-21 -7 -38 -38q-28 -50 -28 -104l2 -27q4 -74 6 -347q3 -25 19 -50q18 -14 36.5 -20t64.5 -10t56 -12.5t10 -27.5q0 -11 -6 -29h-94l-191 10q-72 0 -131 -6h-17q-7 0 -104 -5q-3 16 -3 24t3 23zM101 -78l98 2
q292 0 292 -167q0 -113 -113.5 -208t-227.5 -95q-63 0 -63 50q0 29 14 60t33 39.5t76 8.5q5 0 28 -4q27 -4 49 -4q40 0 72 21.5t32 58.5q0 79 -136 79q-55 0 -128 -18q-6 17 -12 71l-4 28q-7 43 -10 78z" />
    <glyph glyph-name="Rcaron" unicode="&#x158;" horiz-adv-x="1429" 
d="M84 68q26 14 77 20.5t92 21.5q5 20 6 29q2 14 2 96l-1 223l4 120l-2 93l2 54q3 109 3 204q0 208 -5 266l-59 12q-81 5 -108 10l-2 60l4 11q50 8 92 8q23 0 93 1q72 -6 78 -6l53 3l125 6q117 12 247 12q205 0 326 -104.5t121 -239.5q0 -101 -65.5 -183.5t-201.5 -124.5
q12 -21 32 -49q42 -60 68 -102l160 -259q60 -103 78.5 -120.5t76.5 -38.5q45 -17 69 -34q6 -17 6 -30q0 -9 -1 -23h-27l-20 -1l-52 7h-41q-32 5 -79 5l-100 1q-11 0 -70 -7q-27 -3 -43 -5l-34 66q-42 75 -59 112q-44 97 -151 309q-50 98 -70 111q-30 21 -103 21
q-20 0 -68 -2q-3 -29 -3 -69l4 -222l-5 -188q28 -17 73 -26q78 -16 134 -38q0 -49 -4 -74q-19 1 -24 1l-41 -2q-215 19 -255 19q-26 0 -37 -1l-138 -9q-63 -7 -115 -7h-43q-2 25 -2 32q0 11 3 31zM534 715q48 -2 70 -2q170 0 241 61t71 163q0 63 -17.5 118.5t-43.5 82.5
q-37 39 -97 59q-44 15 -141 15q-46 0 -79 -5l-1 -19l1 -135l-2 -82l1 -109q-2 -46 -3 -119v-28zM420 1751l79 1q21 -19 155 -135l64 -53l220 189l76 -2l-190 -351q-111 -1 -169 -1q-18 0 -45 5z" />
    <glyph glyph-name="rcaron" unicode="&#x159;" horiz-adv-x="704" 
d="M39 55q13 11 34 16q51 11 97 40q9 24 9 162q0 253 -11 342q-2 16 -16 28q-25 13 -68 23q-20 5 -24 22l-3 37q74 10 134 50.5t90 82.5q16 23 28 35l70 3q5 -23 5 -38q0 -11 -1 -27q-1 -35 -1 -58q0 -11 1 -83q41 70 60 94q9 11 53 49q34 25 77 25q53 0 92 -36t39 -83
t-29.5 -84.5t-78.5 -37.5q-43 0 -90 36q-28 22 -45 22l-7 -1q-21 -7 -38 -38q-28 -50 -28 -104l2 -27q4 -74 6 -347q3 -25 19 -50q18 -14 36.5 -20t64.5 -10t56 -12.5t10 -27.5q0 -11 -6 -29h-94l-191 10q-72 0 -131 -6h-17q-7 0 -104 -5q-3 16 -3 24t3 23zM93 1299l79 1
q21 -19 155 -135l64 -53l220 189l76 -2l-190 -351q-111 -1 -169 -1q-18 0 -45 5z" />
    <glyph glyph-name="Sacute" unicode="&#x15a;" horiz-adv-x="1045" 
d="M845 1272q10 -34 18 -103q12 -103 12 -160q0 -18 -4 -39l-10 -3l-72 5l-12 2q-44 132 -88 179q-76 80 -179 80q-98 0 -155.5 -51.5t-57.5 -127.5q0 -64 57 -123q56 -59 238 -113q61 -18 147.5 -58t131.5 -87q60 -62 82.5 -119.5t22.5 -143.5q0 -94 -35 -185
q-19 -48 -61 -91q-30 -30 -93 -70.5t-130.5 -58.5t-173.5 -18q-70 0 -167 20l-120 35q-50 14 -63 25q-5 4 -9 19v11q0 11 -5 137q-2 65 -2 92v38l92 2q48 -111 62 -134q31 -51 68.5 -82.5t89.5 -50t113 -18.5q54 0 119 23t104.5 75.5t39.5 112.5q0 74 -69 137
q-42 39 -226 104t-255 116t-112 136.5t-41 164.5q0 159 114 270t336 111q48 0 142 -17q57 -10 151 -42zM463 1399q31 110 102 321l274 -3l-301 -319q-37 -1 -44 -1q-14 0 -31 2z" />
    <glyph glyph-name="sacute" unicode="&#x15b;" horiz-adv-x="853" 
d="M90 286q30 6 44 6q7 0 21 -1l9 -10q54 -95 71 -115q35 -41 69 -66q23 -16 72 -33q33 -12 70 -12q63 0 108 40.5t45 87.5q0 32 -17 54.5t-68 44.5q-25 11 -125.5 36t-121.5 33q-47 18 -83.5 50t-55.5 72q-26 57 -26 98q0 76 22 124.5t62 85.5q29 28 87.5 51t125.5 23
q95 0 167 -13t122 -39q6 -23 17 -106t11 -98q0 -7 -3 -15q-26 -8 -43 -8q-10 0 -29 2q-9 14 -24 42q-48 89 -98.5 125.5t-116.5 36.5q-69 0 -116 -40q-34 -29 -34 -79q0 -33 36 -67q35 -35 122 -53q131 -29 193 -58q90 -42 126.5 -99t36.5 -132q0 -116 -87.5 -193.5
t-255.5 -77.5q-22 0 -115 10q-42 5 -99 20q-14 4 -73 29q-11 6 -15.5 14.5t-13.5 83.5q-16 122 -17 146zM322 959q31 110 102 321l274 -3l-301 -319q-37 -1 -44 -1q-14 0 -31 2z" />
    <glyph glyph-name="Scircumflex" unicode="&#x15c;" horiz-adv-x="1045" 
d="M845 1272q10 -34 18 -103q12 -103 12 -160q0 -18 -4 -39l-10 -3l-72 5l-12 2q-44 132 -88 179q-76 80 -179 80q-98 0 -155.5 -51.5t-57.5 -127.5q0 -64 57 -123q56 -59 238 -113q61 -18 147.5 -58t131.5 -87q60 -62 82.5 -119.5t22.5 -143.5q0 -94 -35 -185
q-19 -48 -61 -91q-30 -30 -93 -70.5t-130.5 -58.5t-173.5 -18q-70 0 -167 20l-120 35q-50 14 -63 25q-5 4 -9 19v11q0 11 -5 137q-2 65 -2 92v38l92 2q48 -111 62 -134q31 -51 68.5 -82.5t89.5 -50t113 -18.5q54 0 119 23t104.5 75.5t39.5 112.5q0 74 -69 137
q-42 39 -226 104t-255 116t-112 136.5t-41 164.5q0 159 114 270t336 111q48 0 142 -17q57 -10 151 -42zM230 1404l193 349q20 1 38 1l176 -1q44 -78 105 -194l83 -159l-78 -1l-218 192q-29 -21 -84.5 -72t-135.5 -118z" />
    <glyph glyph-name="scircumflex" unicode="&#x15d;" horiz-adv-x="853" 
d="M90 286q30 6 44 6q7 0 21 -1l9 -10q54 -95 71 -115q35 -41 69 -66q23 -16 72 -33q33 -12 70 -12q63 0 108 40.5t45 87.5q0 32 -17 54.5t-68 44.5q-25 11 -125.5 36t-121.5 33q-47 18 -83.5 50t-55.5 72q-26 57 -26 98q0 76 22 124.5t62 85.5q29 28 87.5 51t125.5 23
q95 0 167 -13t122 -39q6 -23 17 -106t11 -98q0 -7 -3 -15q-26 -8 -43 -8q-10 0 -29 2q-9 14 -24 42q-48 89 -98.5 125.5t-116.5 36.5q-69 0 -116 -40q-34 -29 -34 -79q0 -33 36 -67q35 -35 122 -53q131 -29 193 -58q90 -42 126.5 -99t36.5 -132q0 -116 -87.5 -193.5
t-255.5 -77.5q-22 0 -115 10q-42 5 -99 20q-14 4 -73 29q-11 6 -15.5 14.5t-13.5 83.5q-16 122 -17 146zM152 948l193 349q20 1 38 1l176 -1q44 -78 105 -194l83 -159l-78 -1l-218 192q-29 -21 -84.5 -72t-135.5 -118z" />
    <glyph glyph-name="Scedilla" unicode="&#x15e;" horiz-adv-x="1045" 
d="M845 1272q10 -34 18 -103q12 -103 12 -160q0 -18 -4 -39l-10 -3l-72 5l-12 2q-44 132 -88 179q-76 80 -179 80q-98 0 -155.5 -51.5t-57.5 -127.5q0 -64 57 -123q56 -59 238 -113q61 -18 147.5 -58t131.5 -87q60 -62 82.5 -119.5t22.5 -143.5q0 -94 -35 -185
q-19 -48 -61 -91q-30 -30 -93 -70.5t-130.5 -58.5t-173.5 -18q-70 0 -167 20l-120 35q-50 14 -63 25q-5 4 -9 19v11q0 11 -5 137q-2 65 -2 92v38l92 2q48 -111 62 -134q31 -51 68.5 -82.5t89.5 -50t113 -18.5q54 0 119 23t104.5 75.5t39.5 112.5q0 74 -69 137
q-42 39 -226 104t-255 116t-112 136.5t-41 164.5q0 159 114 270t336 111q48 0 142 -17q57 -10 151 -42zM584 16h108q-16 -19 -45.5 -48.5t-29.5 -35.5q0 -7 11 -19q58 -61 73 -91.5t15 -72.5q0 -103 -94 -160t-207 -57q-106 0 -171 40q-34 21 -34 48q0 26 32.5 57t62.5 31
q13 0 30 -8t73.5 -46.5t93.5 -38.5q35 0 54.5 17.5t19.5 42.5q0 31 -28 61t-116 59q-20 7 -29 16q-6 6 -6 12q0 25 61 68q46 33 126 125z" />
    <glyph glyph-name="scedilla" unicode="&#x15f;" horiz-adv-x="853" 
d="M90 286q30 6 44 6q7 0 21 -1l9 -10q54 -95 71 -115q35 -41 69 -66q23 -16 72 -33q33 -12 70 -12q63 0 108 40.5t45 87.5q0 32 -17 54.5t-68 44.5q-25 11 -125.5 36t-121.5 33q-47 18 -83.5 50t-55.5 72q-26 57 -26 98q0 76 22 124.5t62 85.5q29 28 87.5 51t125.5 23
q95 0 167 -13t122 -39q6 -23 17 -106t11 -98q0 -7 -3 -15q-26 -8 -43 -8q-10 0 -29 2q-9 14 -24 42q-48 89 -98.5 125.5t-116.5 36.5q-69 0 -116 -40q-34 -29 -34 -79q0 -33 36 -67q35 -35 122 -53q131 -29 193 -58q90 -42 126.5 -99t36.5 -132q0 -116 -87.5 -193.5
t-255.5 -77.5q-22 0 -115 10q-42 5 -99 20q-14 4 -73 29q-11 6 -15.5 14.5t-13.5 83.5q-16 122 -17 146zM464 16h108q-16 -19 -45.5 -48.5t-29.5 -35.5q0 -7 11 -19q58 -61 73 -91.5t15 -72.5q0 -103 -94 -160t-207 -57q-106 0 -171 40q-34 21 -34 48q0 26 32.5 57t62.5 31
q13 0 30 -8t73.5 -46.5t93.5 -38.5q35 0 54.5 17.5t19.5 42.5q0 31 -28 61t-116 59q-20 7 -29 16q-6 6 -6 12q0 25 61 68q46 33 126 125z" />
    <glyph glyph-name="Scaron" unicode="&#x160;" horiz-adv-x="1045" 
d="M845 1272q10 -34 18 -103q12 -103 12 -160q0 -18 -4 -39l-10 -3l-72 5l-12 2q-44 132 -88 179q-76 80 -179 80q-98 0 -155.5 -51.5t-57.5 -127.5q0 -64 57 -123q56 -59 238 -113q61 -18 147.5 -58t131.5 -87q60 -62 82.5 -119.5t22.5 -143.5q0 -94 -35 -185
q-19 -48 -61 -91q-30 -30 -93 -70.5t-130.5 -58.5t-173.5 -18q-70 0 -167 20l-120 35q-50 14 -63 25q-5 4 -9 19v11q0 11 -5 137q-2 65 -2 92v38l92 2q48 -111 62 -134q31 -51 68.5 -82.5t89.5 -50t113 -18.5q54 0 119 23t104.5 75.5t39.5 112.5q0 74 -69 137
q-42 39 -226 104t-255 116t-112 136.5t-41 164.5q0 159 114 270t336 111q48 0 142 -17q57 -10 151 -42zM245 1735l79 1q21 -19 155 -135l64 -53l220 189l76 -2l-190 -351q-111 -1 -169 -1q-18 0 -45 5z" />
    <glyph glyph-name="scaron" unicode="&#x161;" horiz-adv-x="853" 
d="M90 286q30 6 44 6q7 0 21 -1l9 -10q54 -95 71 -115q35 -41 69 -66q23 -16 72 -33q33 -12 70 -12q63 0 108 40.5t45 87.5q0 32 -17 54.5t-68 44.5q-25 11 -125.5 36t-121.5 33q-47 18 -83.5 50t-55.5 72q-26 57 -26 98q0 76 22 124.5t62 85.5q29 28 87.5 51t125.5 23
q95 0 167 -13t122 -39q6 -23 17 -106t11 -98q0 -7 -3 -15q-26 -8 -43 -8q-10 0 -29 2q-9 14 -24 42q-48 89 -98.5 125.5t-116.5 36.5q-69 0 -116 -40q-34 -29 -34 -79q0 -33 36 -67q35 -35 122 -53q131 -29 193 -58q90 -42 126.5 -99t36.5 -132q0 -116 -87.5 -193.5
t-255.5 -77.5q-22 0 -115 10q-42 5 -99 20q-14 4 -73 29q-11 6 -15.5 14.5t-13.5 83.5q-16 122 -17 146zM149 1299l79 1q21 -19 155 -135l64 -53l220 189l76 -2l-190 -351q-111 -1 -169 -1q-18 0 -45 5z" />
    <glyph glyph-name="Tcedilla" unicode="&#x162;" horiz-adv-x="1408" 
d="M107 1357h62q7 -11 10 -16q28 -48 43 -63q13 -4 137 -4q77 0 137 1l20 3l121 1l226 -2h309l59 9q13 9 28 48q4 9 11 25l44 1q10 0 30 -1q1 -69 1 -208l1 -89l-1 -51q0 -26 -4 -45q-41 -13 -72 -16q-26 39 -56.5 113t-38.5 82q-12 13 -28 17q-24 5 -212 5q-28 0 -70 -4
q-6 -39 -6 -64l1 -134v-294l4 -317l-1 -130q0 -69 12 -104q16 -7 59 -13q8 -1 74 -16q30 -7 53 -16q5 -36 5 -44q0 -9 -3 -26q-22 -1 -36 -1q-103 0 -175 7.5t-261 7.5q-30 0 -176 -12q-57 -4 -74 -4q-1 15 -2 23l-1 23v8q22 29 83 43q104 25 144 45q10 19 12 50
q7 120 7 382l-5 378q0 156 -6 189q-2 9 -7 13.5t-14 5.5q-31 4 -202 4q-94 0 -126 -18q-43 -25 -129 -136q-25 -32 -37 -32q-46 24 -59 39q31 65 86 260q16 57 23 77zM542 -646q7 14 39 31q48 24 88 72.5t40 98.5q0 54 -54 82q-88 46 -105.5 77.5t-17.5 65.5q0 59 45 99
t103 40q81 0 147 -74.5t66 -183.5q0 -167 -115 -275.5t-186 -108.5q-41 0 -50 76z" />
    <glyph glyph-name="tcedilla" unicode="&#x163;" horiz-adv-x="640" 
d="M59 764q118 50 170.5 98t112.5 156h56q9 -26 9 -55q0 -52 -1 -81l-3 -59q0 -5 1 -23l23 -1q5 0 94 4q7 0 75 2q6 -27 6 -48q0 -23 -7 -54q-33 -4 -50 -4q-8 0 -32 2h-52l-18 1l-48 -2l-2 -382q-1 -111 4.5 -138.5t23.5 -52.5q23 -11 51 -11q27 0 40 5t44 29q6 5 19 14
q24 -19 39 -38l4 -12q-35 -55 -98.5 -86.5t-135.5 -31.5q-93 0 -151 59t-58 183l4 176v285l-31 1l-72 -1l-13 3q-6 9 -6 17q0 6 2 45zM226 -646q7 14 39 31q48 24 88 72.5t40 98.5q0 54 -54 82q-88 46 -105.5 77.5t-17.5 65.5q0 59 45 99t103 40q81 0 147 -74.5t66 -183.5
q0 -167 -115 -275.5t-186 -108.5q-41 0 -50 76z" />
    <glyph glyph-name="Tcaron" unicode="&#x164;" horiz-adv-x="1408" 
d="M107 1357h62q7 -11 10 -16q28 -48 43 -63q13 -4 137 -4q77 0 137 1l20 3l121 1l226 -2h309l59 9q13 9 28 48q4 9 11 25l44 1q10 0 30 -1q1 -69 1 -208l1 -89l-1 -51q0 -26 -4 -45q-41 -13 -72 -16q-26 39 -56.5 113t-38.5 82q-12 13 -28 17q-24 5 -212 5q-28 0 -70 -4
q-6 -39 -6 -64l1 -134v-294l4 -317l-1 -130q0 -69 12 -104q16 -7 59 -13q8 -1 74 -16q30 -7 53 -16q5 -36 5 -44q0 -9 -3 -26q-22 -1 -36 -1q-103 0 -175 7.5t-261 7.5q-30 0 -176 -12q-57 -4 -74 -4q-1 15 -2 23l-1 23v8q22 29 83 43q104 25 144 45q10 19 12 50
q7 120 7 382l-5 378q0 156 -6 189q-2 9 -7 13.5t-14 5.5q-31 4 -202 4q-94 0 -126 -18q-43 -25 -129 -136q-25 -32 -37 -32q-46 24 -59 39q31 65 86 260q16 57 23 77zM420 1751l79 1q21 -19 155 -135l64 -53l220 189l76 -2l-190 -351q-111 -1 -169 -1q-18 0 -45 5z" />
    <glyph glyph-name="tcaron" unicode="&#x165;" horiz-adv-x="1024" 
d="M56 764q118 50 170.5 98t112.5 156h56q9 -26 9 -55q0 -52 -1 -81l-3 -59q0 -5 1 -23l23 -1q5 0 94 4q7 0 75 2q6 -27 6 -48q0 -23 -7 -54q-33 -4 -50 -4q-8 0 -32 2h-52l-18 1l-48 -2l-2 -382q-1 -111 4.5 -138.5t23.5 -52.5q23 -11 51 -11q27 0 40 5t44 29q6 5 19 14
q24 -19 39 -38l4 -12q-35 -55 -98.5 -86.5t-135.5 -31.5q-93 0 -151 59t-58 183l4 176v285l-31 1l-72 -1l-13 3q-6 9 -6 17q0 6 2 45zM673 744q7 14 39 31q48 24 88 72.5t40 98.5q0 54 -54 82q-88 46 -105.5 77.5t-17.5 65.5q0 59 45 99t103 40q81 0 147 -74.5t66 -183.5
q0 -167 -115 -275.5t-186 -108.5q-41 0 -50 76z" />
    <glyph glyph-name="Tbar" unicode="&#x166;" horiz-adv-x="1408" 
d="M861 515h197l65 1h66q37 0 61 -4q1 -47 6 -70q1 -9 1 -14t-5 -15h-390q0 -19 1 -40v-21l-1 -117q0 -85 12 -115q8 -6 59 -13q70 -9 127 -32q5 -36 5 -44q0 -9 -3 -26q-21 -1 -36 -1q-31 0 -59 2l-91 3l-25 3q-72 7 -261 7q-30 0 -77 -5l-99 -7q-57 -4 -74 -4q-1 15 -2 23
l-1 23v8q15 27 83 43q104 25 144 45q12 18 13 64l3 75l1 128h-401l1 34v51q0 2 3 17h399v63l-5 349q0 97 -3 161.5t-10.5 70t-74.5 6.5l-21 1q-28 2 -118 2q-110 0 -141 -24.5t-91 -99.5l-25 -30q-25 -32 -37 -32q-2 0 -25.5 12.5t-33.5 26.5q10 19 22 57l15 45
q27 79 49 158q18 65 23 77h62l10 -16q33 -56 43 -63q13 -4 137 -4l137 1l20 3l121 1l226 -2h309q4 0 29 3q26 2 35 10t23 44l11 25h74l1 -208l1 -89q0 -82 -5 -96q-43 -14 -72 -16q-22 30 -59 119q-29 69 -41 81t-65.5 14.5t-167.5 2.5q-33 0 -72 -4q-6 -38 -6 -64l1 -134
v-294z" />
    </font>
</defs>
</svg>
